<?xml version="1.0" encoding="UTF-8" standalone="no"?>
<!-- Created with Inkscape (http://www.inkscape.org/) -->

<svg
   xmlns:dc="http://purl.org/dc/elements/1.1/"
   xmlns:cc="http://creativecommons.org/ns#"
   xmlns:rdf="http://www.w3.org/1999/02/22-rdf-syntax-ns#"
   xmlns:svg="http://www.w3.org/2000/svg"
   xmlns="http://www.w3.org/2000/svg"
   xmlns:sodipodi="http://sodipodi.sourceforge.net/DTD/sodipodi-0.dtd"
   xmlns:inkscape="http://www.inkscape.org/namespaces/inkscape"
   width="331.48508mm"
   height="255.29019mm"
   viewBox="0 0 1174.5534 904.57154"
   id="svg7604"
   version="1.1"
   inkscape:version="0.91 r13725"
   sodipodi:docname="AUS.op.svg">
  <defs
     id="defs7606" />
  <sodipodi:namedview
     id="base"
     pagecolor="#ffffff"
     bordercolor="#666666"
     borderopacity="1.0"
     inkscape:pageopacity="0.0"
     inkscape:pageshadow="2"
     inkscape:zoom="0.98994949"
     inkscape:cx="394.98376"
     inkscape:cy="463.25475"
     inkscape:document-units="px"
     inkscape:current-layer="layer1"
     showgrid="false"
     inkscape:window-width="1680"
     inkscape:window-height="987"
     inkscape:window-x="1672"
     inkscape:window-y="-8"
     inkscape:window-maximized="1"
     fit-margin-top="0"
     fit-margin-left="0"
     fit-margin-right="0"
     fit-margin-bottom="0" />
  <metadata
     id="metadata7609">
    <rdf:RDF>
      <cc:Work
         rdf:about="">
        <dc:format>image/svg+xml</dc:format>
        <dc:type
           rdf:resource="http://purl.org/dc/dcmitype/StillImage" />
        <dc:title></dc:title>
      </cc:Work>
    </rdf:RDF>
  </metadata>
  <g
     inkscape:label="Layer 1"
     inkscape:groupmode="layer"
     id="layer1"
     transform="translate(1572.991,285.63786)">
    <path
       inkscape:connector-curvature="0"
       d="m -725.49876,-283.88496 c 0,0 10.22682,0 10.22682,0 0,0 1.81851,12.39217 1.81851,12.39217 0,0 0,15.85109 0,15.85109 0,0 9.43004,0 9.43004,0 0,0 -3.74952,13.12332 -3.74952,13.12332 7.52716,0.21559 6.96474,3.17771 11.24856,8.43642 0,0 -1.87476,6.56165 -1.87476,6.56165 0,0 3.80577,0 3.80577,0 0,0 0,11.21107 0,11.21107 0,0 1.77164,7.57403 1.77164,7.57403 0,0 -0.61867,6.84287 -0.61867,6.84287 0,0 0.66554,8.11771 0.66554,8.11771 0,0 3.74952,0 3.74952,0 0,0 1.87476,14.99807 1.87476,14.99807 0,0 6.4773,1.15298 6.4773,1.15298 0,0 5.48367,-3.74015 5.48367,-3.74015 0,0 9.59877,-3.03711 9.59877,-3.03711 0,0 0.93738,-3.74951 0.93738,-3.74951 0.14998,12.17656 4.74314,11.60476 10.79861,15.63549 0,0 6.0836,4.73377 6.0836,4.73377 3.47768,2.01536 4.49942,1.77165 7.48966,4.93999 -1.13423,1.29358 -2.08098,2.31533 -2.49343,4.0776 0,0 0.86239,12.71087 0.86239,12.71087 0,0 1.22797,4.09635 1.22797,4.09635 0,0 1.10611,6.96473 1.10611,6.96473 1.3217,3.937 3.44956,5.26808 2.74652,10.50803 -0.15935,3.60891 -1.81852,4.10573 0,7.93961 2.45594,6.27107 6.82413,5.92424 7.799,12.75774 0,0 5.62428,0 5.62428,0 -0.25309,1.28421 -0.85302,3.34644 -0.74053,4.574414 0.33746,3.61829 6.23358,10.68613 6.36481,19.79746 0.0375,2.95275 0.59992,7.86462 -2.39969,9.53316 -3.04649,1.70603 -5.97111,-0.31871 -8.93323,-0.97488 0,0 -10.22682,0 -10.22682,0 -7.52716,0.009 -25.04679,9.0176 -28.27137,16.11356 -0.89051,1.94975 -0.75928,4.17134 -0.7874,6.2617 0,0 -29.05878,0 -29.05878,0 -11.97971,-0.0188 -11.07045,-5.4743 -17.82896,-12.79524 0,0 -8.64264,-8.80199 -8.64264,-8.80199 0,0 -4.48068,-6.19608 -4.48068,-6.19608 0,0 -8.64264,-8.802 -8.64264,-8.802 -3.49643,-4.21821 -0.4312,-2.17472 -7.5834,-9.3363 0,0 -6.06485,-6.317944 -6.06485,-6.317944 0,0 -3.35582,-4.89313 -3.35582,-4.89313 -1.81852,-2.09973 -4.46193,-3.87137 -5.01498,-6.7585 -0.32809,-1.68729 1.85601,-10.58302 2.57779,-12.39217 0,0 1.7529,-4.55566 1.7529,-4.55566 0.7499,-2.44656 -0.36558,-3.26208 0,-5.27745 0,0 0.79677,-3.94637 0.79677,-3.94637 0.59055,-3.35582 -0.23434,-6.45855 0.89051,-9.81437 1.7529,-5.21183 5.48368,-8.29581 4.85563,-14.43565 -0.42182,-4.0401 -3.91825,-12.17656 -3.39331,-15.83234 0.43119,-2.99962 1.98724,-3.86201 1.59354,-9.50503 -0.43119,-6.19608 -4.24633,-5.64302 -3.4683,-11.11732 0.70303,-4.95874 6.62727,-14.64188 6.0086,-17.62274 -0.76865,-3.66516 -6.01798,-9.32693 3.13085,-10.63927 0,0 0.93738,-5.62427 0.93738,-5.62427 0,0 2.81214,1.87476 2.81214,1.87476 0,0 -3.74952,-8.43642 -3.74952,-8.43642 0,0 -3.74952,0 -3.74952,0 0.83427,-3.49643 4.08698,-11.67038 6.56166,-14.0607 0,0 0,3.74952 0,3.74952 6.37418,-3.01836 1.94038,-4.39631 3.21521,-10.04871 2.62467,-11.61414 5.22121,-12.9171 5.22121,-25.57173 0,0 7.5834,1.7529 7.5834,1.7529 z"
       id="path3765" />
    <path
       inkscape:connector-curvature="0"
       d="m -994.47053,-261.69717 c 1.66854,0.73115 10.52678,3.66515 11.96097,3.45893 3.74014,-0.52494 3.36519,-3.99324 8.52078,-2.09036 0,0 -1.87476,4.6869 -1.87476,4.6869 0,0 5.62428,-1.87476 5.62428,-1.87476 3.92762,5.38993 4.19009,4.60253 10.04871,6.01798 1.86539,0.44994 2.67153,1.09673 4.71502,0.65616 1.66854,-0.3562 4.36819,-2.00599 5.85863,-2.92462 2.88713,3.95574 3.16834,3.7214 7.05847,6.25232 4.59316,2.99962 7.04909,4.17134 8.87698,-2.5028 0,0 9.3738,0 9.3738,0 0.44057,-3.09336 0.98425,-5.59616 4.6869,-4.6869 -3.09335,3.51517 -3.59954,5.70864 -3.74952,10.31118 0,0 7.49904,-3.74952 7.49904,-3.74952 0,0 1.87476,9.3738 1.87476,9.3738 8.16458,-0.0281 9.14883,-0.6093 12.18594,-8.43642 0,0 -5.62428,-0.93738 -5.62428,-0.93738 0,0 10.31118,-7.49904 10.31118,-7.49904 0,0 1.87476,11.24856 1.87476,11.24856 1.79977,-0.24372 5.74614,-1.58417 7.05847,-0.99363 2.18409,0.98425 3.2902,4.73377 -3.30895,5.68053 0,0 -4.6869,11.24855 -4.6869,11.24855 0,0 -2.81214,-1.87475 -2.81214,-1.87475 0.29996,9.37379 2.39032,2.96212 0,13.12331 0,0 -2.81214,0 -2.81214,0 0,0 0,-3.74952 0,-3.74952 0,0 -5.16497,2.99025 -5.16497,2.99025 -2.66215,1.23734 -11.67975,1.30295 -8.89573,8.25831 -4.94937,6.73039 1.90288,8.2302 1.12486,12.81398 -1.88414,11.08921 -11.67976,15.15743 -12.37342,24.68121 0,0 -7.49904,1.87476 -7.49904,1.87476 0,0 0,3.74952 0,3.74952 0,0 -11.35167,-0.68429 -11.35167,-0.68429 0,0 -3.53392,0 -3.53392,0 -4.73377,-0.56243 -4.70565,-4.18071 -10.42366,-1.19047 -3.56205,-1.61229 -5.05248,2.13723 -8.7645,2.99024 -3.04649,0.70304 -8.06147,-2.67153 -10.83611,-2.26846 -4.34007,0.63742 -2.38095,4.64003 -11.33293,4.9025 0,0 0,3.74952 0,3.74952 -4.92124,1.3217 -4.97748,3.12147 -7.5834,3.40269 -3.44958,0.37495 -9.09258,-3.31833 -12.42968,-4.02136 -5.1743,-1.07799 -7.274,4.14322 -9.7581,7.14283 -4.1713,5.05248 -5.8305,6.56166 -12.4109,6.59916 -12.8421,0.075 -14.0045,3.39331 -18.7945,3.59953 -3.6558,0.14999 -4.6025,-1.96849 -6.6554,-2.29658 -1.6685,-0.41244 -3.1027,0.67492 -5.2212,0 0,0 -5.8867,-3.17771 -5.8867,-3.17771 0,0 -0.9374,5.62428 -0.9374,5.62428 -3.2902,-2.41844 -5.4555,-1.87476 -9.3738,-1.87476 0,0 0,-5.62428 0,-5.62428 0,0 -14.9981,1.87476 -14.9981,1.87476 -0.403,-5.67115 -2.0435,-11.52978 -5.6243,-15.93546 6.7679,-3.56204 8.3146,-0.31871 11.2486,-6.56166 0,0 -9.3738,1.87476 -9.3738,1.87476 0,0 -1.8748,-4.6869 -1.8748,-4.6869 0,0 3.7496,0 3.7496,0 0,0 0,-2.81214 0,-2.81214 -2.8309,-0.075 -11.0236,-1.25609 -10.5643,-5.49304 0.1968,-1.71541 1.8373,-2.10911 3.0652,-6.69289 12.2141,-3.29021 7.1522,-12.4859 12.186,-20.62236 5.7461,4.15259 10.7423,-2.49343 9.7862,-6.4023 -0.8624,-3.53392 -2.7746,-2.03412 -3.2246,-8.59578 7.0585,-0.51555 7.4241,-2.91525 7.4991,-9.37379 0,0 9.3738,1.87476 9.3738,1.87476 0,0 -3.7496,-5.62428 -3.7496,-5.62428 0,0 1.8748,-3.74952 1.8748,-3.74952 0,0 9.3738,5.62428 9.3738,5.62428 0,0 0,-4.6869 0,-4.6869 0,0 -3.7495,-0.93738 -3.7495,-0.93738 0,0 7.499,-1.87476 7.499,-1.87476 0,0 -1.8747,-5.62428 -1.8747,-5.62428 13.6201,3.19646 10.2361,3.77764 25.3092,3.74952 4.1807,-0.009 9.9362,-0.98425 13.892,-2.34345 2.5684,-0.88114 3.5901,-2.69028 5.8774,-2.934 1.706,-0.18748 3.937,0.92801 5.5399,1.52793 -1.6404,-4.38694 -3.1215,-12.12032 -1.3311,-16.62912 0,0 5.0806,-7.74276 5.0806,-7.74276 7.25531,2.06224 4.3776,8.13646 10.45177,10.81737 z"
       id="path3757" />
    <path
       inkscape:connector-curvature="0"
       d="m -1174.5881,-193.77463 c 6.8898,-2.56842 4.5088,-1.60292 11.2486,0 1.7529,6.41168 3.8995,4.03073 6.8522,7.9771 1.8279,2.45593 2.2966,5.63365 5.3806,8.52078 2.3809,2.23096 6.1773,3.33707 7.6115,6.46792 1.3592,2.95275 -1.3123,6.89912 -1.7622,10.1612 -0.6187,4.53692 3.5058,8.30518 7.2272,9.99247 -0.1688,-5.34307 -0.4687,-5.33369 -3.7496,-9.3738 0,0 2.8122,-3.74952 2.8122,-3.74952 0,0 4.6869,3.74952 4.6869,3.74952 0,0 -1.8748,-7.49904 -1.8748,-7.49904 0,0 4.7994,-1.25609 4.7994,-1.25609 0,0 13.0108,3.13085 13.0108,3.13085 0,0 0,31.87091 0,31.87091 0,5.2587 1.1999,10.18932 -2.8121,14.0607 -5.4462,-6.71164 -7.1053,2.22159 -8.8395,6.27107 -1.6592,3.88076 -2.5778,2.54968 -3.3464,7.78963 6.0179,0.86239 7.3303,3.70265 7.499,9.373804 0,0 4.6869,0 4.6869,0 0,0 2.8121,-5.624284 2.8121,-5.624284 0,0 0,77.802534 0,77.802534 0,0 -159.3545,0 -159.3545,0 0,0 -46.869,0 -46.869,0 0,0 -21.5598,-0.93738 -21.5598,-0.93738 8.1271,-5.91487 8.4083,-10.54553 12.9171,-18.73823 0,0 2.7747,-4.23695 2.7747,-4.23695 0,0 2.3809,-5.28683 2.3809,-5.28683 1.003,-1.26546 2.6715,-1.94037 3.9745,-2.88713 0,0 3.9557,-3.34644 3.9557,-3.34644 4.8557,-3.62766 8.6239,-4.62129 9.6176,-11.43604 -6.3086,-0.90926 -4.8182,-3.14959 -6.3086,-8.17395 -1.9779,-6.6554 -2.6715,-17.71648 6.3086,-19.01006 0,0 0,-3.749524 0,-3.749524 0,0 5.6242,0 5.6242,0 0,0 -1.8747,-3.74952 -1.8747,-3.74952 0,0 7.499,-1.87476 7.499,-1.87476 0,0 -1.8747,-3.74952 -1.8747,-3.74952 0,0 6.8522,-6.6554 6.8522,-6.6554 0,0 1.5842,0 1.5842,0 -3.3746,4.77127 -0.1875,6.31794 2.081,10.41429 0,0 7.1428,14.238804 7.1428,14.238804 2.1185,3.92762 3.2246,3.52455 3.8995,8.24895 0,0 2.8121,0 2.8121,0 0.2906,-10.17995 2.8309,-2.94338 0,-14.998084 0,0 11.2486,7.499044 11.2486,7.499044 -1.2373,-8.483294 -4.8931,-3.90888 -1.8748,-12.185944 0,0 -3.7495,0 -3.7495,0 0,0 -3.7495,-9.3738 -3.7495,-9.3738 0,0 -3.7495,-0.93738 -3.7495,-0.93738 0,0 5.6243,0 5.6243,0 0.7686,-5.35244 2.484,-5.4743 7.499,-5.62428 0,0 0,-3.74952 0,-3.74952 4.6963,0.32809 5.868,0.80615 6.5617,5.68052 0,0 10.2268,0 10.2268,0 0,0 11.3329,1.81852 11.3329,1.81852 0,0 0,-2.81214 0,-2.81214 0,0 -14.9981,-1.87476 -14.9981,-1.87476 0,0 0,-6.56166 0,-6.56166 0,0 5.6243,1.87476 5.6243,1.87476 0.1875,-6.5804 1.5092,-6.42105 3.7495,-12.18594 0,0 -4.6869,0 -4.6869,0 0,0 0,3.74952 0,3.74952 0,0 -4.6869,0 -4.6869,0 0,-8.08021 -1.4717,-11.92347 7.4991,-12.18593 0,0 0,-2.81214 0,-2.81214 0,0 -5.6243,-2.81214 -5.6243,-2.81214 0,0 2.8121,-1.87476 2.8121,-1.87476 0,0 0,3.74952 0,3.74952 0,0 2.8122,0 2.8122,0 0,0 0.9373,-3.74952 0.9373,-3.74952 0,0 12.186,7.49904 12.186,7.49904 0,0 0,-6.56166 0,-6.56166 0,0 -5.6243,-0.93738 -5.6243,-0.93738 0,0 3.7495,0 3.7495,0 0,0 0,-2.81214 0,-2.81214 0,0 -5.6243,-0.93738 -5.6243,-0.93738 0,0 6.5617,-3.74952 6.5617,-3.74952 0,0 0,3.74952 0,3.74952 0,0 5.6243,-1.87476 5.6243,-1.87476 0,0 0,3.74952 0,3.74952 0,0 4.6869,0 4.6869,0 0,0 -1.8748,-6.56166 -1.8748,-6.56166 0,0 -3.7495,0 -3.7495,0 0,0 -1.8748,-8.43642 -1.8748,-8.43642 0,0 3.7495,0 3.7495,0 0,0 0,-3.74952 0,-3.74952 0,0 9.3738,0 9.3738,0 0,-3.78701 -1.1342,-7.73338 2.8122,-9.3738 0,0 -1.8748,5.62428 -1.8748,5.62428 0,0 5.6243,0 5.6243,0 0,0 0,5.62428 0,5.62428 5.6805,-2.57779 8.9332,-9.77687 8.3146,-15.89796 -0.2906,-2.83088 -1.5748,-3.70265 -0.8156,-6.59915 0,0 3.7496,2.81214 3.7496,2.81214 0,0 -1.8748,6.56166 -1.8748,6.56166 0,0 4.6869,0 4.6869,0 0,0 2.8121,-5.62428 2.8121,-5.62428 1.6405,5.98986 5.9337,6.67414 9.1114,1.38732 1.5185,-2.51218 1.1998,-6.01798 1.1998,-8.88636 5.2493,0.0562 7.5928,-0.23435 8.4364,5.62428 z"
       id="path3715" />
    <path
       inkscape:connector-curvature="0"
       d="m -955.56927,-168.64348 c 4.52755,1.13423 4.41506,3.88075 9.70189,1.11548 3.63703,2.68091 7.799,1.87476 12.18593,1.87476 0,0 0,-3.74952 0,-3.74952 0,0 2.81214,0 2.81214,0 0.58118,7.93023 4.22759,7.98648 10.09558,11.45478 0,0 8.39893,5.6524 8.39893,5.6524 1.62166,1.14361 4.18071,2.3247 5.10872,4.03074 0.83427,1.5373 0.72178,3.42143 0.76865,5.10872 0,0 8.43642,1.87476 8.43642,1.87476 0,0 0.93738,-3.74952 0.93738,-3.74952 0,0 3.74952,11.24855 3.74952,11.24855 14.76373,0 12.60776,3.44019 19.94744,6.70227 2.79339,1.23734 5.23995,0.36558 7.68651,1.55605 1.65917,0.80615 8.8395,10.04871 9.71126,11.72662 0.25309,1.62167 0.14998,4.49943 0,6.2617 0,0 0,165.916234 0,165.916234 0,0 -25.79669,-4.19946 -25.79669,-4.19946 0,0 -11.02359,-6.03673 -11.02359,-6.03673 0,0 -6.69289,-1.64979 -6.69289,-1.64979 0,0 -11.80162,-4.77126 -11.80162,-4.77126 0,0 -11.0892,0 -11.0892,0 -0.71241,-9.93622 -9.29881,-12.14844 -15.93546,-16.81659 -4.0776,-2.86839 -5.81175,-2.56842 -6.56165,-7.77088 -1.47169,-0.2156 -2.63404,-0.18748 -3.87138,-1.20922 -3.02774,-2.49343 -5.0806,-18.46638 -6.73039,-20.75359 -2.04349,-2.83089 -13.70449,-5.73677 -16.34791,-9.68314 -3.24333,-4.8275 -2.47468,-10.40491 -3.29957,-14.2013 -0.73116,-3.31832 -2.5778,-3.74015 -3.26208,-6.81475 0,0 -0.47807,-10.05809 -0.47807,-10.05809 0,0 -2.66216,-7.69589 -2.66216,-7.69589 -0.40307,-1.931 0.74053,-2.81213 0,-5.27744 0,0 -2.07161,-5.3337 -2.07161,-5.3337 0,0 -1.34982,-7.75213 -1.34982,-7.75213 -2.09973,-6.25232 -4.70565,-8.61452 -4.92125,-16.20729 0,0 -3.74952,0 -3.74952,0 -1.74352,-6.36481 -9.04574,-8.30519 -14.84804,-9.58003 -7.1898,-1.57479 -5.0619,-1.79977 -13.2733,-1.66853 -6.6648,0.11248 -5.4837,1.07798 -10.0675,4.49942 -5.3243,3.97449 -9.0645,4.79939 -9.6175,12.37342 -9.8706,2.65278 -6.7773,10.06745 -14.9981,11.24855 0,0 -0.7593,3.27146 -0.7593,3.27146 0,0 -4.1901,5.38993 -4.1901,5.38993 0,0 -3.487,6.33669 -3.487,6.33669 -2.456,-1.86539 -2.7747,-1.3967 -5.1462,-2.61529 0,0 -3.5902,-2.22159 -3.5902,-2.22159 -5.3149,-2.31533 -9.6925,-0.34683 -13.7607,2.96212 -6.6367,-5.83988 -8.5489,-2.26846 -12.0735,-2.49343 -1.5748,-0.10311 -3.159,-1.33108 -5.5774,-0.73116 -1.6967,0.42183 -4.0026,3.14023 -12.3453,5.09935 0,0 0,-40.30733 0,-40.30733 0,0 1.8748,-14.060704 1.8748,-14.060704 0,0 -1.8748,-20.62236 -1.8748,-20.62236 0,0 0,-18.74759 0,-18.74759 0,0 0.9374,-15.93546 0.9374,-15.93546 0,0 3.7495,4.6869 3.7495,4.6869 0,0 -1.8748,4.6869 -1.8748,4.6869 0,0 6.5617,-1.87476 6.5617,-1.87476 0,0 0,-6.56166 0,-6.56166 0,0 -3.7495,-0.93738 -3.7495,-0.93738 0,0 8.4364,1.87476 8.4364,1.87476 2.6528,10.9486 7.2178,7.09596 7.499,16.87284 0,0 14.9981,-1.87476 14.9981,-1.87476 0,0 0,5.62428 0,5.62428 6.5898,0 6.018,-0.42183 12.186,1.87476 0,0 0.9373,-5.62428 0.9373,-5.62428 3.1403,3.97449 4.9494,4.32132 9.3738,1.87476 5.1181,6.48666 9.8706,2.54967 16.3292,0.63741 4.7619,-1.40607 11.6141,0.22498 15.2418,-1.42481 4.5838,-2.09036 9.0926,-9.9456 10.4612,-11.18294 0,0 4.8368,-3.02774 4.8368,-3.02774 2.5778,2.26846 10.5174,5.94299 13.90137,5.09934 3.08398,-0.76865 2.15597,-2.43718 7.65839,-3.22458 0,0 0,-3.74952 0,-3.74952 7.97711,-0.58118 6.89912,-4.34944 10.46116,-4.94937 1.64979,-0.28121 6.51479,1.92163 8.52078,2.26846 3.69328,0.63742 7.03035,-2.11848 9.13946,-4.81813 3.66515,1.50918 3.45893,0.0562 6.23357,0.75928 z"
       id="path3687" />
    <path
       inkscape:connector-curvature="0"
       d="m -844.47101,-107.97626 c 0,0 8.00523,0.84364 8.00523,0.84364 5.50242,1.42482 3.39331,3.23396 12.45777,3.34645 0,0 3.74952,13.123324 3.74952,13.123324 8.98948,1.15297 9.82374,3.97449 13.60139,6.30856 0,0 4.66815,1.93101 4.66815,1.93101 3.60891,1.82789 2.44656,2.8965 8.91448,3.00898 4.72439,0.075 9.47691,-0.46869 13.77011,-2.64341 4.21821,-2.1466 2.73715,-4.00261 8.72701,-4.85562 0.23434,-8.31456 4.18071,-18.597624 10.31117,-24.371884 0,0 10.32993,12.795244 10.32993,12.795244 0,0 8.64264,8.80199 8.64264,8.80199 0,0 3.31833,4.89312 3.31833,4.89312 0,0 9.23319,9.45817 9.23319,9.45817 0,0 3.89012,5.53991 3.89012,5.53991 0,0 7.39593,7.56466 7.39593,7.56466 7.63965,7.70526 7.17096,14.66062 19.99431,14.68874 0,0 29.05878,0 29.05878,0 0.12186,9.68313 2.59654,7.08659 4.865,11.73599 1.51855,3.10273 -0.48744,3.53393 4.5088,11.69851 -2.44656,3.31832 -1.42482,3.69327 -2.09973,7.33968 0,0 -1.38733,4.92124 -1.38733,4.92124 -0.72178,5.0806 2.3997,9.85187 7.23658,11.17357001 1.86538,6.82412999 5.21183,4.51816999 8.20207,9.14882999 1.17172,1.80914 1.91225,8.96135 4.92124,14.28567 0,0 -1.87476,3.74952 -1.87476,3.74952 -11.97971,2.90587 -18.43826,11.31417 -24.84994,14.2388 -2.39031,1.09673 -4.52754,0.47806 -6.85224,1.23734 5.6524,-1.83727 -18.59762,8.20207 -13.93884,5.91486 0,0 -5.73677,3.55267 -5.73677,3.55267 -6.50541,3.07461 -2.24033,-1.29358 -13.08582,5.7274 0,0 -13.30142,9.05508 -13.30142,9.05508 -4.21821,3.64641 -7.96773,9.05509 -12.98271,11.46416 -8.38017,4.03073 -15.51363,3.30895 -24.54998,3.17772 -8.62389,-0.13124 -19.68497,-4.93999 -27.37149,-8.78325 0,0 -10.52677,-5.20246 -10.52677,-5.20246 0,0 -4.74315,-1.7529 -4.74315,-1.7529 0,0 -9.59876,-6.99285 -9.59876,-6.99285 0,0 -7.76151,-5.13685 -7.76151,-5.13685 0,0 -5.85862,-3.2527 -5.85862,-3.2527 0,0 -8.88636,-8.45517 -8.88636,-8.45517 -4.53692,-3.59954 -8.66139,-4.35882 -9.61752,-11.04233 -4.04948,-0.58118 -9.43004,-4.7244 -11.09858,-8.73638 0,0 0,-25.0093 0,-25.0093 0,0 0,-109.673444 0,-109.673444 2.10911,1.38732 7.93023,4.55567 10.32055,5.18371 z"
       id="path3657" />
    <path
       inkscape:connector-curvature="0"
       d="m -1031.6189,-93.690586 c 2.2591,-1.63104 3.3933,-3.59954 6.243,-4.23696 5.6617,-1.26546 11.3423,0.20623 16.7697,1.40607 5.7086,1.26547 13.03894,2.96212 13.99506,9.60815 0,0 3.74952,0 3.74952,0 0.47807,6.78663 3.05586,9.71125 4.97749,15.41052 0,0 1.34983,7.75213 1.34983,7.75213 0,0 2.07161,5.28682 2.07161,5.28682 0.74053,2.26846 -0.3937,3.16835 0,5.22121 0,0 2.62466,7.73338 2.62466,7.73338 0,0 0.47806,10.06746 0.47806,10.06746 0.73116,3.31833 2.5778,3.74015 3.26209,6.81475 0.79677,3.59954 0.0562,9.1957 3.29957,14.35129 2.77465,4.40569 14.46377,7.43342 16.34791,9.73 1.62166,1.9685 3.73077,17.86646 6.73038,20.84733 1.26547,1.25609 2.26846,1.34045 3.85264,1.77165 2.84026,10.38617 21.55973,9.92685 22.49711,23.43449 -4.91187,1.19048 -12.11095,5.3337 -16.87284,7.71464 0,0 -29.24625,14.62313 -29.24625,14.62313 -7.81774,3.90887 -12.43903,7.63964 -21.37226,7.65839 0,0 -35.62038,0 -35.62038,0 0,0 0,3.74952 0,3.74952 0,0 -15.9355,0 -15.9355,0 0,0 -14.0607,1.87476 -14.0607,1.87476 0,0 -36.5578,0 -36.5578,0 0,0 -11.3329,1.81851 -11.3329,1.81851 0,0 -13.039,0 -13.039,0 0,0 0,-8.38017 0,-8.38017 5.6337,-1.50918 12.2328,-6.11172 13.1233,-12.18594 0,0 -3.7495,0 -3.7495,0 0,0 3.7495,-11.24856 3.7495,-11.24856 -5.1556,0 -8.4926,-0.70303 -13.1233,1.87476 0,0 0,-104.04916 0,-104.04916 0,0 13.2077,-5.27745 13.2077,-5.27745 0,0 5.4649,0.84364 5.4649,0.84364 0,0 5.4649,-0.74053 5.4649,-0.74053 0,0 5.9618,2.12786 5.9618,2.12786 0,0 10.1705,-2.53093 10.1705,-2.53093 0,0 14.0982,5.57741 14.0982,5.57741 1.1249,-8.73638 5.6712,-8.20207 7.4991,-14.99808 7.9771,-2.18409 5.5305,-9.89873 14.9981,-11.24855 0.2249,-7.77088 3.2902,-8.33331 8.9238,-12.40154 z"
       id="path3639" />
    <path
       inkscape:connector-curvature="0"
       d="m -659.57283,-26.377336 c 0,0 -3.05586,-9.61752 -3.05586,-9.61752 -2.11848,-4.57441 -4.71502,-2.55905 -4.61191,-10.61114 -0.25309,-1.85601 -0.33746,-5.53992 0,-7.19908 1.89351,-4.88375 9.29881,-9.02697 13.64825,-11.20169 0,0 9.83311,-4.63065 9.83311,-4.63065 6.05548,-1.56543 18.28828,0.075 24.10004,2.40906 0,0 -1.87476,4.6869 -1.87476,4.6869 3.90887,0.11249 9.72063,1.36858 8.43642,6.56166 0,0 -6.56166,-5.62428 -6.56166,-5.62428 0,0 1.87476,8.43642 1.87476,8.43642 0,0 7.49904,2.81214 7.49904,2.81214 -1.46231,1.66854 -3.3652,4.06823 -3.02774,6.47729 0.4312,3.07461 7.78963,9.43005 10.85486,10.06746 1.63104,0.34683 2.01537,-0.0375 3.42144,-0.60929 4.55566,5.8305 13.79823,9.43004 20.62235,5.62428 1.9685,8.12708 3.71203,4.54629 3.74952,14.99807 0,0 6.56163,0 6.56163,0 0,0 0.9374,-3.74952 0.9374,-3.74952 0.7499,10.29243 6.3929,5.83988 10.7236,8.26769 3.4683,1.94975 2.381,10.17058001 8.0053,6.36481 0,0 1.8935,-1.50918 1.8935,-1.50918 0,0 7.499,3.74952001 7.499,3.74952001 0,0 1.8748,6.56165999 1.8748,6.56165999 -6.1961,1.69666 -6.0086,5.12747 -2.5966,9.86124 3.309,4.59316 7.9209,4.99623 10.2362,7.23657 1.6123,1.55605 1.8935,3.92762 2.7465,5.93361 1.7623,4.18072 6.2242,12.56089 6.4867,16.33853 0,0 -5.7086,-1.63104 -5.7086,-1.63104 -2.2872,-0.43119 -3.5527,-0.0469 -6.0649,-0.89051 -3.9651,-1.33108 -10.0862,-5.21183 -14.3325,-4.49005 0,0 -4.0495,1.16235 -4.0495,1.16235 -4.1901,0.76865 -8.7364,0.93738 -12.4859,3.29021 -5.5868,3.51517 -7.9677,12.38278 -7.9771,18.4945 0,0 0,8.32393 0,8.32393 0,0 -30.77419,0 -30.77419,0 0,0 -4.06823,-1.33108 -4.06823,-1.33108 -3.66515,-0.88113 -6.93661,0.20623 -9.35505,-1.63104 -2.53092,-1.94037 -6.52416,-10.56427 -8.51141,-13.34829 -3.0746,-4.32132 -5.50242,-3.92762 -6.34606,-9.82374 0,0 -3.74952,0 -3.74952,0 -1.12485,-4.19008 -1.64979,-3.18709 -2.99024,-6.10234 0,0 -4.15259,-11.96097 -4.15259,-11.96097 0,0 -4.89313,-16.31978 -4.89313,-16.31978 -2.72777,-5.83988 -7.50841,-3.13085 -8.58639,-10.61114 -13.44203,-1.931 -3.1871,-18.40076 -5.23058,-24.76557 z"
       id="path3621" />
    <path
       inkscape:connector-curvature="0"
       d="m -1392.1352,-6.561126 c 0,0 7.8459,-3.08398 7.8459,-3.08398 3.5152,-0.90926 6.8429,0.19685 10.7049,-1.10611 0,0 28.3932,-12.42028 28.3932,-12.42028 0,0 0,100.29964 0,100.29964 -0.01,7.80837 -2.6996,14.47314 -4.94,21.8222 -0.6655,2.174716 -0.6187,4.565036 -1.856,6.524156 -4.1807,6.63665 -15.6449,11.93285 -23.2001,12.89835 0,0 0,14.99808 0,14.99808 0,0 -12.186,0 -12.186,0 0,0 -14.0607,-1.87476 -14.0607,-1.87476 0,0 -25.3092,0 -25.3092,0 0,0 -15.9355,-1.87476 -15.9355,-1.87476 0,0 -25.3093,0 -25.3093,0 0,0 -11.286,-1.9685 -11.286,-1.9685 0,0 -11.2111,0 -11.2111,0 0,0 -6.2898,0 -6.2898,0 0,0 -11.3329,-5.68052 -11.3329,-5.68052 0,0 -7.1147,-2.68091 -7.1147,-2.68091 0,0 -9.7581,-4.81813 -9.7581,-4.81813 0,0 -7.874,-3.01836 -7.874,-3.01836 0,0 -11.3142,-5.52117 -11.3142,-5.52117 0,0 -15.823,-7.470916 -15.823,-7.470916 0,0 -3.6089,-7.27406 -3.6089,-7.27406 4.4713,-6.06485 -0.3562,-11.05171 -1.4342,-17.10719 -0.5437,-3.06523 1.7623,-6.4398 3.0934,-9.13945 2.8215,-5.75551 1.5373,-5.31494 2.5403,-8.13646 1.003,-2.84963 2.0997,-2.40906 3.2995,-6.86162 0,0 2.8122,0 2.8122,0 0,0 -0.6656,10.92985 -0.6656,10.92985 0,0 0.6656,9.69251 0.6656,9.69251 0,0 8.4364,-1.87476 8.4364,-1.87476 0.2531,-9.06446 7.4615,-19.55374 15.4761,-23.63135 0,0 11.886,-4.34944 11.886,-4.34944 3.6652,-1.89351 5.0712,-3.97449 7.949,-6.69289 4.237,-4.00261 6.243,-2.69965 7.8084,-8.44579 6.8335,-1.64979 6.8428,-3.7214 12.0078,-6.19608 0,0 5.5118,-2.07161 5.5118,-2.07161 6.1961,-3.15897 1.5935,-4.73377 9.8144,-3.45893 3.9088,0.59992 4.8931,-1.76228 9.0832,-1.16236 0,0 4.9119,1.3967 4.9119,1.3967 4.9774,0.89988 10.1705,-0.13123 14.7824,-2.06224 4.2276,-1.77164 6.7679,-6.63664 9.9925,-8.18332 1.9498,-0.93738 4.8556,-0.75928 7.0116,-0.75928 8.174,-0.0188 16.1604,-1.49043 16.8728,-11.24856 0,0 6.5617,-1.87476 6.5617,-1.87476 2.231,1.64979 10.2549,3.8995 13.0483,3.48706 z"
       id="path3593" />
    <path
       inkscape:connector-curvature="0"
       d="m -1118.4203,-23.171496 c 0,0 0,46.86899 0,46.86899 0,0 0,27.02466 0,27.02466 0,0 -1.7997,5.78363 -1.7997,5.78363 0,0 -9.3738,3.74952 -9.3738,3.74952 0,0 0,8.43642 0,8.43642 0,0 9.4956,1.20922 9.4956,1.20922 0,0 1.7529,6.28982 1.7529,6.28982 0,0 0,25.309246 0,25.309246 0,0 -36.5578,0 -36.5578,0 -9.4019,-0.0187 -14.0701,-3.730766 -23.4345,-3.749516 0,0 -64.6792,0 -64.6792,0 -2.2684,0 -5.1181,-0.15935 -7.1991,0.7874 -5.9336,2.699656 -2.9527,6.655396 -13.4232,6.711636 0,0 -18.7476,0 -18.7476,0 -7.1335,0.12186 -4.7619,1.66854 -12.186,1.87476 0,0 0,3.74952 0,3.74952 0,0 -9.5425,5.38994 -9.5425,5.38994 0,0 -10.2268,2.11847 -10.2268,2.11847 0,0 -8.3146,0 -8.3146,0 0,0 -6.6835,1.80915 -6.6835,1.80915 0,0 -23.3501,0 -23.3501,0 0,0 -21.5598,-0.88114 -21.5598,-0.88114 8.1365,-1.94038 17.6415,-5.89612 22.6846,-12.89835 1.856,-2.57779 1.453,-4.4713 2.3247,-7.330306 1.7342,-5.69927 4.8838,-14.2388 4.9869,-20.07867 0,0 0,-102.1744 0,-102.1744 0,0 225.8335,0 225.8335,0 z"
       id="path3591" />
    <path
       inkscape:connector-curvature="0"
       d="m -844.63036,31.196534 c 1.81851,6.7585 5.68052,7.22719 10.27368,11.02358 0,0 8.92386,8.4458 8.92386,8.4458 0,0 12.92647,7.88336 12.92647,7.88336 0,0 5.6149,3.76827 5.6149,3.76827 0,0 3.98386,3.30895 3.98386,3.30895 0,0 16.01983,7.34906 16.01983,7.34906 7.71463,3.85263 18.90695,8.68951 27.55896,8.83949 9.25194,0.14998 16.12294,0.82489 24.73746,-3.23396 5.30557,-2.50281 8.79262,-7.57403 13.08582,-11.41729 0,0 18.18517,-12.31717 18.18517,-12.31717 2.92462,-1.66854 4.04011,-0.63742 8.08959,-2.51218 0,0 6.49604,-3.862 6.49604,-3.862 0,0 8.79262,-3.04649 8.79262,-3.04649 0,0 4.34007,-2.53092 4.34007,-2.53092 2.22159,-0.74053 4.34944,-0.11249 6.89912,-1.23735 6.42105,-2.82151 14.72623,-12.8046 25.60921,-14.21067 0,0 0.93738,-3.74952 0.93738,-3.74952 0,0 4.53692,13.76073 4.53692,13.76073 0,0 2.96212,6.86162 2.96212,6.86162 0,0 3.74952,0 3.74952,0 1.48106,5.50242 3.38394,5.1181 6.37418,9.13008 0,0 7.97711,13.77949 7.97711,13.77949 1.28421,3.72139 2.63403,10.62988 2.5028,14.57625 -0.16873,5.38056 -1.50918,4.81814 -1.80914,9.39255 -0.74991,11.698496 7.88336,14.004446 12.8796,21.765956 0,0 8.23019,12.61713 8.23019,12.61713 2.50281,1.73415 5.06185,0.66554 8.83949,2.16535 -2.41844,3.2902 -1.87476,5.45555 -1.87476,9.3738 -10.32992,0.009 -6.63665,0.50618 -13.13269,3.94637 0,0 -6.29919,2.36219 -6.29919,2.36219 -3.29958,1.26547 -5.69927,3.39332 -9.48628,2.83089 -2.31533,-0.34683 -10.36742,-4.77126 -15.17618,-5.26807 -12.01721,-1.23734 -14.78248,11.15482 -17.62274,13.72324 -3.68391,3.33707 -21.466,11.28605 -26.55598,12.28905 0,0 -7.33968,0 -7.33968,0 -7.65839,0.0656 -5.63365,-1.07799 -10.34867,-1.70603 0,0 -14.02321,0 -14.02321,0 0,0 0,18.69135 0,18.69135 0,0 -59.99231,0 -59.99231,0 0,0 0,3.74952 0,3.74952 0,0 -87.17632,0 -87.17632,0 0,0 0,-164.041466 0,-164.041466 3.88075,3.26208 5.2587,6.13984 10.31118,7.49904 z"
       id="path3571" />
    <path
       inkscape:connector-curvature="0"
       d="m -566.81914,48.819274 c 1.2186,-2.30596 2.4372,-4.34007 4.8182,-5.63366 3.3089,-1.79039 7.1053,-2.23096 10.7423,-2.73715 2.4935,-0.33745 4.7526,-1.76227 7.2929,-1.31233 7.3303,1.31233 9.2519,5.0806 18.0445,5.18371 0.3843,5.44618 1.3592,4.91187 1.7717,8.52079 0.9186,8.07084 -1.2655,6.33668 2.6621,16.53538 2.6247,6.81475 5.6337,6.65539 6.5804,10.733 0,0 2.5872,16.53538 2.5872,16.53538 0,0 2.7746,5.118086 2.7746,5.118086 1.0405,3.83388 -2.3715,3.62766 0.4969,9.11133 0,0 0,15.93546 0,15.93546 6.9647,0.89051 11.8391,2.42781 16.526,7.82712 3.9182,4.51817 0.8999,7.14284 7.6209,9.04572 0.2249,2.47468 0.4499,8.91448 0,10.94859 -1.4905,3.80577 -3.3933,2.21222 -3.5246,9.67376 -0.1406,8.68951 2.0716,13.02021 7.4991,19.68498 -7.471,5.33369 -8.6896,3.73077 -17.8103,3.74952 -13.217,0.0281 -15.1105,6.13984 -24.3343,5.57741 -3.1215,-0.18748 -3.2153,-0.71241 -5.8118,-1.3967 -3.5433,-0.928 -7.2928,-1.34982 -10.6205,-3.04648 -5.1181,-2.60592 -7.2272,-5.21183 -13.6014,-6.75851 0,0 -6.5429,-16.50726 -6.5429,-16.50726 -2.6903,-6.67414 1.0311,-5.8305 -6.5804,-10.67676 2.8777,-3.98386 0.9467,-8.26769 -3.7027,-8.07084 -3.11206,0.14061 -10.37675,3.55267 -13.17015,5.25871 0,0 -5.12746,-6.8335 -5.12746,-6.8335 0,0 1.13423,-6.37419 1.13423,-6.37419 0,0 2.11847,-13.03895 2.11847,-13.03895 -2.2872,0 -6.92723,0.27184 -8.85824,-0.76865 -1.4998,-0.81552 -7.1522,-10.76112 -8.68951,-13.07645 -3.42143,-5.12747 -9.05509,-7.9771 -11.49227,-13.920086 -2.73715,-6.67415 0.69366,-10.39554 0.89988,-16.29166 0.26247,-7.42405 -1.46231,-7.05847 -1.85601,-13.12332 0,0 18.7476,1.87476 18.7476,1.87476 0,0 26.24666,0 26.24666,0 0,-9.47691 -1.3405,-13.18894 3.1589,-21.74721 z"
       id="path3563" />
    <path
       inkscape:connector-curvature="0"
       d="m -990.86162,72.441244 c 8.90511,-0.0187 13.04833,-3.45893 20.80984,-7.33969 0,0 28.49634,-14.24817 28.49634,-14.24817 10.71425,-5.36181 13.35767,-8.5864 25.68421,-8.4083 6.66477,0.10312 5.88675,1.44357 11.37042,3.35582 0,0 11.49227,3.22459 11.49227,3.22459 4.82751,1.94975 8.92386,5.16496 10.24557,5.75551 3.6839,1.64979 22.47836,4.53692 26.88405,4.53692 0,0 0,128.421036 0,128.421036 0,0 -261.52898,0 -261.52898,0 0,0 0,-107.854926 0,-107.854926 0,0 13.0858,0 13.0858,0 0,0 11.2861,-1.81851 11.2861,-1.81851 0,0 36.5578,0 36.5578,0 0,0 11.3329,-1.81852 11.3329,-1.81852 0,0 19.6006,0 19.6006,0 0,0 0,-3.80576 0,-3.80576 0,0 34.68308,0 34.68308,0 z"
       id="path3561" />
    <path
       inkscape:connector-curvature="0"
       d="m -520.29694,46.194604 c 0.056,4.69628 1.2186,9.21445 3.234,13.4889 2.0997,4.44318 3.5339,3.8995 4.265,9.00822 0,0 3.7496,-1.87476 3.7496,-1.87476 2.2122,3.88075 2.3528,5.53054 6.5616,7.49904 0,0 -3.0746,-9.51441 -3.0746,-9.51441 0,0 1.1999,-5.48367 1.1999,-5.48367 0,0 2.8121,0 2.8121,0 1.7154,6.38356 8.1646,10.83611 14.0607,13.12332 0,0 0,-7.49904 0,-7.49904 0,0 2.8121,0 2.8121,0 0.1219,9.99247 3.2996,8.34268 3.7027,15.03557 0.3468,5.69927 -1.2936,6.75851 -1.1436,9.26132 0.2531,4.13384 2.8027,10.62988 4.79,14.323156 1.3873,2.55905 3.7495,5.51179 6.2523,7.05847 4.2182,2.60592 6.1024,0.40307 7.021,6.81475 4.865,0.61867 4.9962,2.28721 9.3738,0 0,0 7.2928,8.66139 7.2928,8.66139 0,0 4.3307,9.09259 4.3307,9.09259 0,0 11.0798,7.60215 11.0798,7.60215 0,0 4.7338,11.64225 4.7338,11.64225 0,0 7.4147,4.77127 7.4147,4.77127 0,0 1.2467,12.42965 1.2467,12.42965 0,0 6.1492,8.07084 6.1492,8.07084 0,0 -0.8811,6.19608 -0.8811,6.19608 0,0 -1.0593,13.08583 -1.0593,13.08583 -3.6839,-1.65917 -3.6933,2.2872 -11.211,1.82789 0,0 -7.5741,-1.70603 -7.5741,-1.70603 -7.6584,-0.7874 -8.8207,5.03373 -10.2737,11.1267 -7.049,-0.48744 -7.6396,-5.52117 -11.4641,-10.79862 -3.6839,-5.09935 -9.4488,-10.07683 -14.97,-12.98271 -5.2024,-2.74652 -5.1743,-5.05248 -10.1237,-2.46531 -3.9463,-5.53054 -7.3959,-9.73 -7.274,-16.87284 -0.2531,-1.8935 -0.3469,-5.48367 0,-7.19907 1.003,-2.34345 2.6059,-2.98087 3.3933,-6.00861 0,0 0,-11.16419 0,-11.16419 -7.4428,-1.08736 -2.6903,-3.3652 -9.5519,-10.31118 -4.6213,-4.66815 -8.4927,-5.08997 -14.6888,-6.56166 0,-5.26807 0.7593,-9.3363 -1.8747,-14.0607 0.4874,-0.99362 1.5935,-9.18632 1.3498,-10.15182 -0.6562,-2.624666 -2.5965,-2.971496 -3.1121,-6.805376 -0.4218,-3.1121 -1.6685,-14.0607 -2.7746,-16.48851 -1.3592,-2.99024 -4.1339,-3.56204 -6.3555,-9.92685 -3.5995,-10.29243 -1.3498,-7.30219 -2.3528,-15.64487 -0.4499,-3.73077 -1.4061,-3.08398 -1.7529,-8.47392 0,0 4.6869,1.87476 4.6869,1.87476 z"
       id="path3557" />
    <path
       inkscape:connector-curvature="0"
       d="m -1549.1369,105.17454 c 0,0 22.4596,9.46754 22.4596,9.46754 0,0 11.2861,5.53054 11.2861,5.53054 0,0 5.5867,1.9685 5.5867,1.9685 8.4552,3.58079 9.3457,6.52416 19.3194,6.54291 0,0 8.4365,0 8.4365,0 7.6302,0.11248 4.1807,1.85601 14.0606,1.87476 0,0 25.3093,0 25.3093,0 10.0956,0.0188 6.093,1.81852 14.9981,1.87476 0,0 26.2466,0 26.2466,0 9.0739,0.0188 6.1399,1.13423 11.2861,1.81852 0,0 14.9606,0 14.9606,0 0,0 3.3089,18.56949 3.3089,18.56949 -0.703,3.96512 -1.3873,1.79977 -1.4342,8.67076 -0.094,14.26692 -1.6404,8.8395 -6.1398,18.38202 0,0 -2.3154,6.35544 -2.3154,6.35544 0,0 -8.1927,11.78286 -8.1927,11.78286 -6.0086,7.28344 -13.2264,13.40453 -13.3482,23.47199 0,0 -3.7496,0 -3.7496,0 -0.028,8.49266 -0.2062,4.96812 -2.9808,10.60177 0,0 -1.931,4.62128 -1.931,4.62128 0,0 -3.787,4.6869 -3.787,4.6869 -2.1279,3.35582 -2.2685,5.72739 -3.2902,7.73338 -2.9622,5.82113 -4.6307,4.73377 -4.8838,12.72025 0,0 12.1016,0 12.1016,0 0,0 10.3955,1.81852 10.3955,1.81852 0,0 20.6224,0 20.6224,0 0,0 15.9354,1.87476 15.9354,1.87476 0,0 10.3112,0.93738 10.3112,0.93738 -3.0465,4.13384 -1.2936,6.54291 -2.0997,11.0892 -0.5718,3.30895 -1.9591,3.92762 -1.6029,9.52378 0.3374,5.10872 1.781,3.38394 1.8279,11.25793 0.037,6.6554 0.3843,10.9111 3.7495,16.87284 0,0 -21.5598,0 -21.5598,0 -6.0554,-0.0937 -4.5181,-0.88114 -8.5207,-1.63104 0,0 -6.0836,-0.88114 -6.0836,-0.88114 -8.2959,-2.46531 -10.6955,-4.78064 -17.6697,-7.72401 0,0 -9.655,-3.24333 -9.655,-3.24333 0,0 -6.1492,-2.69028 -6.1492,-2.69028 -2.9527,-0.99363 -14.1919,-2.62467 -17.5384,-2.5778 -7.2553,0.12186 -4.9493,1.76227 -12.1859,1.87476 -3.487,0.0469 -11.511,0.6093 -14.2857,-1.17172 -4.6212,-2.9715 -2.3153,-6.33669 -9.1488,-8.20208 -1.3967,-5.18371 -3.7964,-5.94299 -7.1522,-9.70188 0,0 -3.8901,-5.53991 -3.8901,-5.53991 0,0 -8.6427,-8.82075 -8.6427,-8.82075 -3.6651,-3.65578 -7.6771,-6.2617 -8.4364,-11.55789 0,0 -3.7495,0 -3.7495,0 0,0 0,-3.74952 0,-3.74952 0,0 -3.7495,0 -3.7495,0 0,0 0,-14.99808 0,-14.99808 -0.066,-9.66438 -4.8463,-13.10457 -14.0607,-13.12332 -10.4987,-0.0281 -6.6367,-1.07798 -12.2235,-1.81851 0,0 -20.5848,0 -20.5848,0 -2.3247,-9.64564 -14.52,-17.66961 -1.8748,-19.74122 0,0 0.9374,-7.49904 0.9374,-7.49904 0,0 4.1432,2.11848 4.1432,2.11848 1.0968,0.55305 1.6967,0.43119 2.6716,0 3.487,-2.3622 1.9872,-4.67753 1.7247,-7.82712 -0.4593,-5.61491 2.1091,-6.70227 1.2468,-10.06746 -0.7968,-3.12148 -4.6495,-4.98687 -7.1804,-9.54253 0,0 -4.7337,-10.76112 -4.7337,-10.76112 -1.7248,-2.79339 -4.087,-3.75889 -5.6618,-8.38955 0,0 -1.3498,-7.75213 -1.3498,-7.75213 -1.2749,-3.78702 -3.7777,-5.98986 -4.6963,-8.07084 -0.3843,-1.83727 -0.2531,-6.93661 0,-9.07384 -0.1031,-8.23019 3.7776,-12.03596 5.3993,-18.7476 0,0 3.7495,0 3.7495,0 0,0 0,-5.624276 0,-5.624276 5.1743,1.23735 9.5988,4.433806 14.4638,6.486666 z"
       id="path3525" />
    <path
       inkscape:connector-curvature="0"
       d="m -1285.1145,106.24316 c 0,0 20.538,0 20.538,0 15.7386,-0.0844 6.2054,-7.527156 21.5597,-7.555286 0,0 64.6792,0 64.6792,0 9.4019,0.0187 14.0701,3.730776 23.4345,3.749516 0,0 36.5578,0 36.5578,0 0,0 0,117.17248 0,117.17248 -7.199,-0.46869 -3.4495,-1.85601 -13.1233,-1.87476 0,0 -38.4326,0 -38.4326,0 -9.0738,-0.0187 -6.1398,-1.13423 -11.286,-1.92162 0,0 -9.177,0 -9.177,0 -3.7401,-0.83427 -2.484,-1.72478 -8.5957,-1.94038 0,0 -19.5257,0 -19.5257,0 0,0 -4.9118,-1.52793 -4.9118,-1.52793 -1.3686,-0.30934 -2.8497,-0.30934 -4.1058,-1.003 -3.6932,-2.04348 -3.8713,-9.72063 -10.058,-11.88597 0,0 -25.2249,-5.84925 -25.2249,-5.84925 0,0 -5.2775,-0.6468 -5.2775,-0.6468 -10.1705,-2.47468 -25.8998,-9.30818 -35.8829,-8.95197 -6.3554,0.22497 -3.6089,1.83726 -13.1233,1.85601 0,0 -14.9981,0 -14.9981,0 -3.8339,0.0281 -9.3457,1.03112 -12.6452,3.06523 -1.9873,1.22797 -3.1403,3.18709 -5.465,4.20884 -2.184,0.51556 -13.4795,0.21559 -16.5728,0 -6.946,0.23434 -13.8358,3.85263 -20.6224,1.16235 7.2272,-5.26808 5.6149,-7.61153 8.802,-14.2388 3.2433,-6.74914 6.1305,-5.89612 6.2523,-15.75736 0,0 0,-6.47729 0,-6.47729 0.3656,-2.76527 1.8186,-4.58379 1.3311,-7.4428 0,0 -3.1496,-11.54852 -3.1496,-11.54852 0,0 0,-17.65086 0,-17.65086 0,0 40.1949,0 40.1949,0 0,0 11.3329,-1.94038 11.3329,-1.94038 0,0 9.2051,0 9.2051,0 0,0 11.0329,-2.59654 11.0329,-2.59654 0,0 8.7364,-4.83688 8.7364,-4.83688 0,0 0,-3.74952 0,-3.74952 5.4462,-0.38432 4.9119,-1.3592 8.5208,-1.81851 z"
       id="path3523" />
    <path
       inkscape:connector-curvature="0"
       d="m -693.79657,166.23547 c 4.1151,0.52493 3.17772,1.70603 9.45816,1.81851 0,0 4.6869,0 4.6869,0 5.19308,-0.0937 15.53238,-4.03073 20.33177,-6.39293 0,0 4.98686,-3.18709 4.98686,-3.18709 0,0 5.11809,-2.84963 5.11809,-2.84963 3.55267,-2.934 5.49305,-14.8856 17.29466,-13.7045 4.78064,0.47807 12.68275,4.87438 15.14806,5.24933 3.95574,0.59055 6.28982,-1.5373 9.70188,-2.84963 0,0 6.33669,-2.37158 6.33669,-2.37158 6.6554,-3.43081 2.63404,-3.88075 12.94521,-3.89012 -0.43119,1.83726 -1.65916,4.865 -1.4998,6.51479 0.15935,1.56542 0.89051,2.58717 1.86538,3.53392 5.99923,7.43342 8.50204,1.1811 16.74157,0 3.862,-0.89051 5.7462,1.94038 4.7338,5.50242 0,0 -1.2186,3.19646 -1.2186,3.19646 0,0 4.4151,1.7529 4.4151,1.7529 0,0 2.2216,7.20846 2.2216,7.20846 0,0 6.4866,17.28528 6.4866,17.28528 0,0 11.1923,3.74952 11.1923,3.74952 0,0 0,7.41467 0,7.41467 -0.4124,3.16835 -2.0622,5.04311 -1.556,8.4458 0.3374,2.22159 5.0806,11.6985 6.5148,13.68574 1.3967,1.94038 13.6201,11.35167 16.0948,12.60776 2.5872,1.30296 8.8957,3.27146 10.1143,5.23058 0,0 1.4248,3.91825 1.4248,3.91825 2.3997,7.18033 -1.406,6.69289 -2.2778,12.51402 -0.4874,3.25271 0.8436,4.89312 1.1717,6.72101 0.4875,2.78402 -0.9655,4.99624 -2.3715,7.2647 -4.0589,-2.66216 -5.0525,0.27184 -8.1927,2.62466 0,0 -4.8932,3.35582 -4.8932,3.35582 -5.0993,4.40568 -4.7993,7.03035 -12.2234,7.14283 0,0 -31.8709,0 -31.8709,0 0,0 -195.9124,0 -195.9124,0 0,0 0,-92.8006 0,-92.8006 0,0 59.99231,0 59.99231,0 0,0 0,-18.69135 0,-18.69135 0,0 13.03896,0 13.03896,0 z"
       id="path3505" />
    <path
       inkscape:connector-curvature="0"
       d="m -520.30634,194.25375 c 5.8118,-0.38433 10.7424,-5.4368 19.6944,-5.57741 0,0 8.4364,0 8.4364,0 2.3341,0 5.0337,0.16873 7.1991,-0.7874 2.4372,-1.06861 5.6992,-4.61191 8.5957,-4.16197 1.2561,0.19685 3.5433,2.08099 4.8369,2.82152 6.1867,3.54329 12.0922,7.799 16.2261,13.82635 3.0277,4.41506 4.5838,9.31756 10.0112,10.79862 0,0 1.6498,5.78363 1.6498,5.78363 0,0 0.6655,5.30557 0.6655,5.30557 0,0 2.6622,6.19608 2.6622,6.19608 1.7248,5.03373 -0.1969,7.1897 6.271,8.96135 0,0 2.3435,11.07983 2.3435,11.07983 0,0 2.3434,6.73039 2.3434,6.73039 -2.9527,-1.33108 -3.2058,0.33745 -5.9148,1.47168 -3.0465,1.28421 -7.6584,2.04349 -9.0457,5.40869 -1.2655,2.39969 -0.1406,3.91824 0,5.62427 0.5249,2.11848 -0.4875,4.19009 -0.9749,6.24295 0,0 -7.7428,0.7874 -7.7428,0.7874 0,0 -7.2553,1.08736 -7.2553,1.08736 0,0 -2.8121,7.49904 -2.8121,7.49904 -2.8309,-5.38993 -1.3124,-6.93661 -3.6371,-9.49565 0,0 -4.1057,-2.87776 -4.1057,-2.87776 -3.084,-2.30596 -5.943,-5.72739 -10.1143,-6.00861 -2.5966,-0.16872 -4.1807,1.40607 -6.4304,1.16236 -2.8497,-0.30934 -3.4308,-2.78402 -7.6209,-3.27146 -4.3214,-0.51556 -5.7649,1.21859 -9.4207,1.68728 0,0 -7.4147,0 -7.4147,0 0.4593,-1.91225 1.6123,-4.63065 1.5092,-6.45854 -0.1406,-2.31533 -1.781,-3.99324 -1.2748,-7.4053 0.5718,-3.77765 3.7401,-6.18671 3.0277,-10.31118 -1.9591,-11.39854 -8.0521,-8.64264 -15.9355,-13.90135 0,0 -5.8305,-5.19308 -5.8305,-5.19308 0,0 -5.5118,-3.8995 -5.5118,-3.8995 -2.8215,-2.83089 -8.1833,-13.36704 -7.6208,-17.31341 0,0 1.3966,-4.91187 1.3966,-4.91187 0.5062,-2.70902 0.066,-3.67453 1.1811,-6.47729 3.5246,2.68091 16.1792,5.85862 20.613,5.57741 z"
       id="path3483" />
    <path
       inkscape:connector-curvature="0"
       d="m -1395.5472,206.27096 c 2.0809,-3.13085 5.7274,-8.38955 9.4113,-9.64564 2.1091,-0.72178 5.7367,-0.29059 8.0989,-0.5718 0,0 6.6835,-1.69666 6.6835,-1.69666 0,0 14.9138,0 14.9138,0 13.3764,-0.0844 9.0925,-7.33968 23.4344,-7.55528 0,0 17.8103,0 17.8103,0 7.6302,-0.13123 5.1274,-2.1466 14.0513,-1.85601 0,0 32.977,8.92385 32.977,8.92385 0,0 6.1398,0.83427 6.1398,0.83427 0,0 11.5954,3.10273 11.5954,3.10273 3.2434,0.6093 10.6768,1.48106 13.4889,2.87775 4.3963,2.16535 5.3243,8.27707 7.8646,10.60177 2.4841,2.26846 12.5891,3.62766 16.0574,3.63703 0,0 13.1233,0 13.1233,0 7.4147,0.0375 5.1087,0.84365 9.4581,1.80915 0,0 9.2051,0 9.2051,0 4.9494,0.74053 2.2966,1.92163 11.3329,1.94037 0,0 38.4326,0 38.4326,0 9.6457,0.0187 5.8211,1.3592 13.1233,1.87476 0,0 0,92.80061 0,92.80061 0,0 -17.8102,0 -17.8102,0 0,0 -14.0607,1.87476 -14.0607,1.87476 0,0 -84.3642,0 -84.3642,0 0,0 0,3.74952 0,3.74952 0,0 -42.1821,0 -42.1821,0 0,0 0,-65.61659 0,-65.61659 0,0 -77.8025,0 -77.8025,0 0,0 0,11.24856 0,11.24856 0,0 -12.1859,0 -12.1859,0 0,0 -14.0607,-1.87476 -14.0607,-1.87476 0,0 -19.685,0 -19.685,0 0,0 -11.2861,-1.81852 -11.2861,-1.81852 0,0 -11.211,0 -11.211,0 0.4031,-6.2617 1.6873,-6.05547 4.4432,-10.84549 0,0 3.262,-7.73338 3.262,-7.73338 0,0 3.7308,-4.6869 3.7308,-4.6869 1.5748,-2.15597 1.228,-2.63404 2.0904,-4.62128 2.1372,-4.93062 3.2433,-2.22159 3.3464,-10.60177 0,0 3.7495,0 3.7495,0 0.037,-10.75174 1.8186,-8.65201 6.8242,-16.15105 z"
       id="path3481" />
    <path
       inkscape:connector-curvature="0"
       d="m -1002.1102,188.67634 c 0.3187,4.51817 0.525,3.14022 1.4811,6.82412 0,0 1.09672,5.08998 1.09672,5.08998 2.39032,6.93661 8.23957,10.79861 14.28567,14.12631 5.84925,3.23396 3.49643,3.86201 11.25793,3.95574 0,0 0,45.93162 0,45.93162 0,0 3.74952,15.93545 3.74952,15.93545 10.27368,1.46232 11.81099,15.37303 24.37188,18.7476 0,0 0,3.74952 0,3.74952 6.88036,0.89051 13.71386,7.39593 19.97556,10.47991 10.62051,5.2212 31.03665,7.14283 38.34821,16.7416 2.99024,3.91825 2.94337,12.08283 3.78701,16.75098 1.74353,9.57065 7.48967,13.8076 16.62912,16.01982 0,0 0.79677,9.99247 0.79677,9.99247 0,0 5.50242,4.865 5.50242,4.865 0,0 1.19985,6.70227 1.19985,6.70227 -9.02697,0.11248 -5.98986,1.74352 -12.75774,4.66815 -6.57103,2.84963 -17.72585,6.57103 -24.73745,6.5804 0,0 -15.93546,0 -15.93546,0 -2.7184,-0.0469 -16.65724,-3.23396 -19.38502,-4.19946 0,0 -5.15558,-2.82151 -5.15558,-2.82151 -5.12747,-1.55605 -10.68613,2.13722 -12.01721,7.02097 -4.9025,0.34683 -7.81775,2.52156 -10.93923,1.41545 -2.85901,-1.003 -3.05585,-3.69328 -4.87437,-5.26808 -2.95275,-2.54967 -6.80538,0.33746 -9.49566,1.97787 0,0 0.65617,-6.41167 0.65617,-6.41167 -0.53431,-2.46531 -6.02736,-7.99585 -8.69889,-7.14284 -1.98724,0.63742 -2.33407,2.69966 -8.79262,2.25909 -7.1897,-0.48744 -12.4765,-10.27369 -21.5597,-9.1957 -4.7525,0.55305 -5.4275,4.10572 -9.1489,3.12148 -3.5995,-0.95613 -9.3269,-6.80538 -12.2046,-9.08322 -3.1215,-2.4653 -14.3701,-7.68651 -18.2883,-8.36142 -3.1684,-0.55306 -4.8744,1.3592 -7.6772,2.29658 -2.3528,0.7874 -4.64,0.64679 -7.0866,0.64679 0,0 -19.6849,0 -19.6849,0 -9.0364,0.0187 -6.3836,1.19985 -11.333,1.94038 0,0 -11.0798,0 -11.0798,0 -3.5714,0.82489 -2.3247,1.47168 -7.5834,1.80914 0,0 0,-177.16479 0,-177.16479 0,0 115.2977,0 115.2977,0 z"
       id="path3479" />
    <path
       inkscape:connector-curvature="0"
       d="m -767.76522,188.67634 c 0,0 0,216.75034 0,216.75034 0,0 -11.0892,0 -11.0892,0 0,0 -14.4544,4.96811 -14.4544,4.96811 0,0 -11.01421,-3.30895 -11.01421,-3.30895 0,0 0,-14.99808 0,-14.99808 0,0 -16.87284,0 -16.87284,0 0,0 0,-48.74375 0,-48.74375 0,0 -28.33699,0 -28.33699,0 0.2156,-2.55904 0.3937,-6.87099 0,-9.21444 -1.72478,-5.71802 -7.34906,-11.3423 -13.06707,-13.06708 -2.25909,-0.36557 -5.85863,-0.21559 -8.27707,0 0,0 0,6.34607 0,6.34607 0,0 3.74952,0 3.74952,0 0.009,7.94898 0.69366,8.20207 5.62428,14.06069 0,0 -5.62428,0 -5.62428,0 0,0 0,4.6869 0,4.6869 1.73415,0.25309 3.18709,0.26247 4.41506,1.7529 3.24334,3.92762 0.36558,12.72025 -0.54368,17.07906 0,0 0,5.53992 0,5.53992 0,0 2.69028,0 2.69028,0 0.23435,-8.21145 4.32132,-11.82974 10.31118,-16.87284 -0.23435,3.64641 -1.81852,8.92386 -3.55267,12.17657 -3.53392,6.63664 -5.57741,3.1121 -3.94637,11.25793 -9.98309,-2.39032 -8.43642,-6.28982 -8.43642,-14.99808 -3.05586,-0.3937 -3.63703,-0.68429 -6.37418,-2.03411 -2.69028,-1.32171 -5.72739,-2.66216 -7.45217,-5.23996 -4.40569,-6.5804 -2.12785,-20.05055 -7.75213,-26.14352 -7.6584,-8.30519 -26.63096,-11.20169 -37.18586,-15.72924 -6.89912,-2.95274 -12.54214,-9.04571 -19.97556,-10.84548 0,0 0,-3.74952 0,-3.74952 -11.82036,-1.68728 -13.83573,-15.91671 -24.37188,-18.7476 0,0 -3.74952,-14.06069 -3.74952,-14.06069 0,0 0,-47.80638 0,-47.80638 -8.69888,-0.0281 -5.45555,-0.36557 -11.99846,-3.8995 -5.60553,-3.01836 -11.39854,-7.03972 -13.60138,-13.38578 0,0 -1.07799,-5.06185 -1.07799,-5.06185 -0.95617,-3.65578 -1.15297,-2.26846 -1.44357,-6.71164 0,0 233.40758,0 233.40758,0 z"
       id="path3477" />
    <path
       inkscape:connector-curvature="0"
       d="m -412.01084,212.74825 c -0.8811,2.65279 -3.6464,4.14322 -2.7746,7.63965 0.7124,2.85901 4.3775,5.16496 5.8024,7.43342 1.6966,2.70903 0.7686,4.84625 1.6497,7.55528 0,0 2.5122,4.39631 2.5122,4.39631 0.5812,1.25609 2.2591,8.27707 1.7529,9.39255 -0.9092,1.99662 -3.6276,2.21222 -5.3899,3.08398 0,0 -4.3401,2.53093 -4.3401,2.53093 0,0 -5.2399,0.90925 -5.2399,0.90925 -2.6903,0.29059 -5.1369,2.16535 -7.724,0 -4.3964,-3.1121 -7.2085,-13.92009 -7.3585,-19.20691 -6.8897,-0.99362 -4.5838,-3.85263 -6.6366,-8.96135 0,0 -2.0904,-4.57441 -2.0904,-4.57441 0,0 -1.8935,-10.72363 -1.8935,-10.72363 0.1219,-1.46231 1.8185,-4.38694 2.4372,-5.98986 1.3686,-3.53392 1.3123,-6.87099 8.1083,-6.19608 4.9682,0.49681 11.4173,5.02436 16.9479,-1.98724 4.4619,3.76826 6.1679,8.87698 4.2369,14.69811 z"
       id="path3473" />
    <path
       inkscape:connector-curvature="0"
       d="m -1540.1662,220.54725 c 7.6303,0.11249 4.1713,1.85602 14.0607,1.87476 8.1646,0.0188 13.9107,1.73416 14.0607,11.24856 0,0 0,16.87284 0,16.87284 0,0 3.7495,0 3.7495,0 0,0 0,3.74952 0,3.74952 0,0 3.7495,0 3.7495,0 1.3405,4.96811 5.5118,8.0146 9.0645,11.55789 0,0 8.0333,8.16458 8.0333,8.16458 0,0 3.8808,5.54929 3.8808,5.54929 3.4589,4.00261 6.3367,4.72439 7.1428,10.34867 6.8617,0.98425 4.5369,4.22758 9.1489,7.68652 2.4746,1.85601 4.79,1.66853 7.724,1.68728 0,0 7.499,0 7.499,0 6.2805,-0.11249 5.3431,-1.29358 9.4582,-1.77165 7.0303,-0.79677 8.7363,0.29996 14.9137,1.77165 0,0 0,23.4345 0,23.4345 0,2.48405 0.3374,8.75512 -0.7687,10.72362 -1.406,2.49343 -4.2557,2.3622 -6.7304,2.39969 0,0 -17.8102,0 -17.8102,0 -9.0738,-0.0187 -6.1398,-1.13423 -11.286,-1.81851 0,0 -15.898,0 -15.898,0 -0.028,7.19907 0.3468,7.73338 -6.3086,9.98309 -2.484,0.84364 -3.9932,1.41545 -6.7303,1.09674 -5.1931,-0.61867 -2.9809,-3.48706 -11.333,-3.63704 -9.9456,-0.16873 -6.4304,0.38433 -15.9354,-1.87476 0,0 -5.6243,-14.06069 -5.6243,-14.06069 1.8185,-3.73078 -1.8654,-9.67376 -1.9966,-17.81022 0,0 0,-15.85109 0,-15.85109 0,0 -1.5467,-4.92125 -1.5467,-4.92125 -0.3281,-1.49981 -0.3187,-2.78402 -0.9936,-4.23696 0,0 -7.724,-11.00483 -7.724,-11.00483 -1.228,-3.24334 1.7341,-1.44357 -2.2029,-9.35506 -7.9021,-15.86984 -11.7641,-9.45816 -11.9984,-22.12216 0.2062,-2.84026 0.4312,-8.59577 0,-11.0892 0,0 -3.534,-8.59578 -3.534,-8.59578 0,0 15.9355,0 15.9355,0 z"
       id="path3465" />
    <path
       inkscape:connector-curvature="0"
       d="m -422.01264,257.55501 c 0,0 10.1518,-2.17472 10.1518,-2.17472 5.3993,-2.35282 6.1492,-4.35882 13.4233,-4.83688 -0.084,7.68651 -1.0499,5.53991 -1.6123,9.44879 -0.5062,3.54329 1.0124,5.02435 1.3779,7.56465 0.7218,5.06185 -2.934,8.14583 -5.1368,12.05471 -2.0435,3.62766 -2.0997,5.30557 -2.1279,9.36442 -0.066,9.73 -0.253,4.93062 -1.631,12.2703 0,0 -0.6468,5.27745 -0.6468,5.27745 -2.3716,9.73938 -7.2553,15.27929 -7.096,25.57172 0.075,4.49005 0.5344,3.5433 1.1343,6.88037 0.4968,2.76527 -1.8748,7.31157 -2.5778,10.15183 0,0 -0.6562,5.30557 -0.6562,5.30557 0,0 -4.2651,12.8046 -4.2651,12.8046 0,0 -7.6959,9.85187 -7.6959,9.85187 0,0 -8.9613,-2.52155 -8.9613,-2.52155 0,0 -8.0802,-4.49943 -8.0802,-4.49943 0,0 -10.9205,-0.70303 -10.9205,-0.70303 0,0 -5.7836,-1.64979 -5.7836,-1.64979 0,0 1.8747,-6.56166 1.8747,-6.56166 9.2895,-0.68429 6.468,-4.93062 5.7368,-8.59577 0,0 0,-5.46493 0,-5.46493 0,0 -3.862,0 -3.862,0 0,0 0,-3.74952 0,-3.74952 -9.0457,-1.30296 -6.5992,-9.5144 -7.7428,-15.85109 0,0 -3.4589,-12.3078 -3.4589,-12.3078 -0.3656,-6.03672 1.1811,-6.02735 1.8748,-10.31118 0,0 0,-5.42743 0,-5.42743 0,0 1.5841,-4.93061 1.5841,-4.93061 0.9562,-5.32432 -1.3873,-7.80838 3.0559,-12.10158 0,0 2.8121,1.87476 2.8121,1.87476 0,0 1.8748,-7.49904 1.8748,-7.49904 0,0 7.7427,-0.7874 7.7427,-0.7874 0,0 7.2554,-1.08736 7.2554,-1.08736 0,0 0.9936,-6.48666 0.9936,-6.48666 0,0 0,-6.13047 0,-6.13047 0,0 13.0671,-8.00522 13.0671,-8.00522 2.3059,2.02474 5.0618,3.81513 8.2958,3.26208 z"
       id="path3447" />
    <path
       inkscape:connector-curvature="0"
       d="m -1277.6998,254.29293 c 0,0 0,64.67921 0,64.67921 0,0 -26.2467,0 -26.2467,0 0,0 0,33.74567 0,33.74567 0,0 -7.499,0 -7.499,0 0,0 0,25.30926 0,25.30926 0,5.26807 -0.7593,9.3363 1.8747,14.06069 0,0 -1.8747,3.74952 -1.8747,3.74952 0,0 -40.3074,0 -40.3074,0 0,0 0,-22.49711 0,-22.49711 -10.0674,-0.0281 -6.1585,-1.81852 -14.998,-1.87476 0,0 -21.5598,0 -21.5598,0 -10.9017,0 -14.4919,-1.65916 -23.4345,5.62428 -1.3873,-5.15559 -4.8837,-7.18971 -8.427,-10.93923 -2.6434,-2.79339 -2.1372,-2.94337 -3.9745,-5.48367 -4.2651,-5.91486 -4.4525,-3.10273 -4.4151,-11.6985 0,0 0,-11.16419 0,-11.16419 0.6187,-4.94937 1.7998,-2.29658 1.8186,-11.33292 0,0 0,-27.18402 0,-27.18402 0,0 10.433,3.35582 10.433,3.35582 0,0 9.6175,3.22459 9.6175,3.22459 0,0 17.7071,7.73338 17.7071,7.73338 0,0 6.1399,0.90926 6.1399,0.90926 0,0 5.8211,1.59354 5.8211,1.59354 0,0 25.2717,0 25.2717,0 -3.6745,-9.76749 -3.5807,-8.30518 -3.7495,-18.69135 -0.1218,-7.24595 -2.2497,-6.19608 -1.8279,-13.08582 0.2156,-3.59017 1.078,-3.90888 1.7623,-6.68352 0,0 0,-7.33031 0,-7.33031 0.4593,-2.51218 1.0218,-2.934 1.7248,-4.93062 0.4312,-2.69028 0.2156,-8.10833 0,-11.0892 0,0 76.1434,0 76.1434,0 z"
       id="path3445" />
    <path
       inkscape:connector-curvature="0"
       d="m -536.11054,286.33257 c 0.6562,-2.42781 1.856,-3.1121 2.859,-5.14621 0,0 1.5092,-3.91825 1.5092,-3.91825 1.9029,-3.53392 6.093,-6.4773 9.355,-8.65202 1.6967,-1.13423 4.3401,-3.99324 5.9899,-4.27445 2.0997,-0.36558 2.5028,1.45294 10.1612,1.1811 5.4274,-0.18748 6.5242,-2.29658 11.1642,-1.74353 3.6933,0.44057 4.2088,2.46531 6.8054,3.1121 2.4559,0.6093 3.8995,-0.59992 5.6992,-0.90926 4.7244,-0.81552 8.0803,3.45894 11.4642,5.9055 1.5467,1.11548 3.4402,1.78102 4.4057,3.54329 0.7405,1.36858 0.8061,3.5058 0.6561,5.03373 0,0 -1.7529,6.67415 -1.7529,6.67415 0,0 0,6.4398 0,6.4398 0,0 -1.8747,5.793 -1.8747,5.793 0,0 0,6.31794 0,6.31794 -0.8155,3.31833 -2.1935,3.92763 -1.8373,9.52378 0.2625,4.02136 2.3716,7.6584 3.2996,11.5204 1.3873,5.76489 -1.5279,14.96996 7.9021,17.54775 0,0 0,3.74952 0,3.74952 0,0 3.7495,0 3.7495,0 0.084,7.2647 4.8088,11.88598 -5.6242,12.18594 -1.0687,7.48966 -4.9588,6.2617 -8.8958,8.68951 -2.6809,1.65916 -5.2399,5.868 -11.7641,6.2617 -8.0708,0.49681 -8.4833,-2.99024 -14.0607,-3.58079 -7.6209,-0.79678 -8.5583,4.65878 -12.6359,6.6179 -2.156,1.04049 -6.421,0.75928 -8.8863,0.75928 -0.2531,8.67076 -2.5028,5.2587 -8.4177,11.57664 -4.1432,4.42443 -5.8024,7.83649 -6.6835,13.64825 -0.7406,4.81813 -6.0368,7.26469 1.9778,9.45816 0,0 -3.7495,13.94821 -3.7495,13.94821 0,0 -10.1518,0 -10.1518,0 0,0 -10.5549,-3.39331 -10.5549,-3.39331 -3.3371,-0.59993 -6.421,0.24372 -9.8144,-0.89051 -5.0431,-1.69666 -12.72021,-7.03973 -14.77307,-7.93961 -3.31832,-1.45294 -11.99846,0.20622 -14.86684,-5.05248 -1.19985,-2.21221 -0.41245,-5.46492 -1.19985,-8.69888 0,0 -3.3277,-9.69251 -3.3277,-9.69251 0,0 0,-6.31794 0,-6.31794 -0.9655,-4.01199 -3.65578,-13.4889 -5.6149,-16.9572 1.52793,-3.1496 -2.3622,-13.3108 -3.35582,-17.13531 0,0 -2.04349,-8.3333 -2.04349,-8.3333 0,0 -0.65617,-5.30557 -0.65617,-5.30557 0,0 -3.74952,-13.13269 -3.74952,-13.13269 -0.48743,-1.85602 -2.88713,-9.87061 -2.64341,-11.24856 0,0 5.88675,-8.5864 5.88675,-8.5864 3.7214,2.73715 8.65201,1.86539 13.12332,1.87476 5.23995,0.009 9.46753,0.88114 14.2388,3.17772 0,0 6.55228,3.84325 6.55228,3.84325 4.00261,1.2186 5.51182,-1.29358 12.01722,-1.39669 2.6621,-0.0375 8.8676,0.25309 11.0798,-0.47807 3.4496,-1.12485 10.4893,-11.07983 11.4173,-14.52001 0,0 7.6209,-1.87476 7.6209,-1.87476 0,0 0,-9.20507 0,-9.20507 z"
       id="path3439" />
    <path
       inkscape:connector-curvature="0"
       d="m -533.42024,278.6648 c 0,0 -3.2715,6.73039 -3.2715,6.73039 0,0 -0.478,9.20507 -0.478,9.20507 0,0 -7.4991,1.87476 -7.4991,1.87476 -0.1874,1.31233 -0.1312,1.98725 -0.7593,3.27146 -1.0029,2.04348 -7.6677,10.52677 -9.8518,11.50165 -1.8654,0.41244 -6.8804,0.22497 -9.0738,0 -8.64269,0.24372 -9.46759,2.51217 -12.96401,1.84664 -2.13723,-0.40308 -4.79939,-2.83089 -7.29282,-4.01199 -4.87437,-2.29658 -9.08321,-3.22459 -14.42627,-3.23396 -7.27407,-0.009 -8.07084,0.71241 -14.99808,-1.87476 0,0 -4.9025,9.45816 -4.9025,9.45816 0,0 1.09674,5.60553 1.09674,5.60553 0,0 5.0431,18.1383 5.0431,18.1383 0,0 0.88114,6.0836 0.88114,6.0836 0,0 7.25532,24.45624 7.25532,24.45624 0,0 -12.75774,6.54291 -12.75774,6.54291 0,0 -7.86462,3.04648 -7.86462,3.04648 0,0 -11.65163,6.64603 -11.65163,6.64603 0,0 -15.34491,6.84287 -15.34491,6.84287 -2.09036,0.94675 -5.38993,1.60292 -6.85225,3.06523 -3.33707,3.33707 -4.87437,15.80423 -5.74613,20.56612 0,0 -3.09336,11.55789 -3.09336,11.55789 0,0 -2.06223,8.3708 -2.06223,8.3708 0,0 -0.64679,5.27745 -0.64679,5.27745 0,0 -3.34645,12.4484 -3.34645,12.4484 -1.40607,-0.32808 -4.28383,-1.34982 -5.53054,-1.15297 -3.03711,0.49681 -6.85225,7.77088 -7.59278,10.52677 0,0 -4.6869,1.85601 -4.6869,1.85601 0,0 -9.3363,0 -9.3363,0 0,0 -12.22343,-3.73077 -12.22343,-3.73077 -1.16236,8.08022 -6.79601,5.79301 -10.51741,0.89989 -2.934,-3.85263 -0.3562,-7.24595 -4.23695,-12.85148 -3.79639,-5.48367 -8.16458,-3.17772 -10.47991,-3.37457 -5.08997,-0.41244 -4.08698,-3.6839 -11.32355,2.20285 -4.66815,-3.55267 -11.23918,-4.88375 -16.87284,-3.74952 0,0 0,-164.04148 0,-164.04148 0,0 233.4076,0 233.4076,0 z"
       id="path3431" />
    <path
       inkscape:connector-curvature="0"
       d="m -1150.2162,316.16 c 0,0 11.3329,-1.81852 11.3329,-1.81852 0,0 20.538,0 20.538,0 0,0 0,51.49965 0,51.49965 -6.3742,1.54668 -8.4833,4.15259 -13.6014,6.75851 0,0 -13.0577,5.71801 -13.0577,5.71801 0,0 -7.7615,1.33108 -7.7615,1.33108 -9.0176,2.69028 -10.9204,4.92125 -20.8848,4.94 0,0 -11.9516,1.43419 -11.9516,1.43419 0,0 -4.0682,-1.19048 -4.0682,-1.19048 0,0 -8.6708,-0.90925 -8.6708,-0.90925 -6.6085,-0.81552 -13.8076,3.74952 -18.9163,7.44279 0,0 -3.9745,3.29958 -3.9745,3.29958 -2.6621,1.66853 -3.8245,0.50618 -8.8488,2.8965 -8.7177,4.13385 -7.5741,5.28682 -10.6018,6.90849 -6.1961,3.30895 -11.4267,1.52793 -15.4199,4.85563 -3.4214,2.84963 -5.8211,7.19908 -7.4616,11.29543 -2.0528,5.10872 0.2531,7.96773 -6.6366,8.96135 -0.5437,3.78701 -3.0934,7.55528 -6.8616,8.92385 0,0 -5.0525,1.15298 -5.0525,1.15298 -1.9966,0.68429 -4.0964,1.94975 -5.8961,3.04649 -2.081,-7.6209 -4.9306,-4.1526 -10.3487,-3.79639 -4.9025,0.32808 -5.6149,-0.67492 -10.2737,1.92163 -4.8181,-3.16835 -3.4214,1.33108 -11.3798,1.87476 0,0 0,-2.72778 0,-2.72778 -1.8091,-7.33031 -5.8305,-0.68429 -9.9456,-1.47169 -3.1308,-0.59055 -5.6711,-3.76826 -11.4454,-3.17771 0,0 -5.8211,1.70603 -5.8211,1.70603 0,0 -7.3022,0 -7.3022,0 -4.64,0.72178 -3.4589,1.84664 -10.3487,1.92163 -0.1687,-2.43719 -2.1091,-11.67038 -3.6464,-13.22643 -2.3622,-2.3997 -6.3554,-1.34046 -11.661,-6.46792 0,0 -14.0513,-18.25079 -14.0513,-18.25079 0,0 -7.4147,-12.22343 -7.4147,-12.22343 -1.5467,-2.1466 -7.8927,-9.08321 -7.5271,-11.5579 0.5999,-4.10572 8.427,-4.80875 11.4922,-4.8275 0,0 31.871,0 31.871,0 7.2834,0.11248 4.6025,1.77165 13.1233,1.87476 0,0 0,22.49711 0,22.49711 0,0 42.1821,0 42.1821,0 0,0 0.6655,-6.24295 0.6655,-6.24295 0,0 -0.6655,-36.87652 -0.6655,-36.87652 0,0 7.499,0 7.499,0 0,0 0,-33.74567 0,-33.74567 0,0 69.3661,0 69.3661,0 0,0 0,-3.74952 0,-3.74952 0,0 83.4268,0 83.4268,0 z"
       id="path3421" />
    <path
       inkscape:connector-curvature="0"
       d="m -1467.0506,334.90759 c 0,0 14.0607,1.87476 14.0607,1.87476 0,0 23.5658,0 23.5658,0 0,0 0,17.72586 0,17.72586 1.3592,5.6524 3.5995,1.57479 3.6182,12.2703 0,0 0,10.31118 0,10.31118 -0.094,6.28044 -1.2467,5.16496 -1.8185,9.41129 0,0 0,11.21106 0,11.21106 0,0 -21.616,0 -21.616,0 0,0 -10.3111,-1.87476 -10.3111,-1.87476 -0.7687,5.40869 -5.7743,12.59839 -11.8391,12.50465 -5.315,-0.0844 -4.3589,2.79339 -5.4275,6.91786 0,0 -1.3592,4.97749 -1.3592,4.97749 0,0 -1.5092,10.14245 -1.5092,10.14245 0.8624,5.08997 2.4091,9.38317 0.9843,14.86685 -1.078,4.14321 -5.5305,8.5114 -8.0333,12.45777 -7.2647,-6.35543 -11.1924,1.16235 -16.3292,2.87776 -2.6153,0.88114 -4.64,-2.20284 -6.6179,-3.59954 -4.5369,-3.22459 -9.3551,-5.89612 -14.5481,-3.02774 -4.1058,-7.799 -3.7496,-16.7416 -3.7496,-25.30925 0,0 14.9981,1.87476 14.9981,1.87476 0.8249,-5.81176 6.318,-9.97372 6.7773,-13.20768 0,0 -1.3967,-11.07983 -1.3967,-11.07983 -0.7687,-4.21821 -2.5122,-4.83688 -0.6937,-9.45817 0,0 0,5.62428 0,5.62428 0,0 2.8122,0 2.8122,0 0.1499,-5.46492 1.0779,-5.67115 1.1904,-7.57403 0,0 -1.1717,-6.52416 -1.1717,-6.52416 0,0 0,-14.0232 0,-14.0232 -0.047,-13.62013 -10.5549,-20.88483 -11.2673,-31.87092 0,0 11.2486,0 11.2486,0 9.6737,0.0562 6.3366,2.92463 12.2234,3.61829 2.8215,0.33746 4.3494,-0.26247 6.9179,-1.12486 6.646,-2.24033 7.0209,-2.76527 7.1053,-9.99247 0,0 12.1859,0 12.1859,0 z"
       id="path3411" />
    <path
       inkscape:connector-curvature="0"
       d="m -822.13325,344.28139 c 0,0 0,48.74375 0,48.74375 0,0 16.87284,0 16.87284,0 0,0 0,14.99808 0,14.99808 0,0 12.04533,3.26208 12.04533,3.26208 0,0 14.47315,-4.93061 14.47315,-4.93061 0,0 10.97671,0 10.97671,0 0,0 0,17.60399 0,17.60399 0,0 -29.99615,0 -29.99615,0 0,0 -6.07422,-0.75928 -6.07422,-0.75928 0,0 -12.2703,-14.88559 -12.2703,-14.88559 0,0 -11.65163,-1.22797 -11.65163,-1.22797 0,0 0,18.7476 0,18.7476 0,0 -19.68498,0 -19.68498,0 -1.99662,0 -5.23058,0.1781 -6.98348,-0.76865 -3.1121,-1.69666 -4.05886,-6.35544 -4.26508,-9.54253 2.30595,-0.62804 5.18371,-1.55605 4.89312,-4.60253 -0.14998,-1.5748 -1.62166,-2.91526 -2.25908,-4.31195 -0.85302,-1.85601 -2.73715,-10.46116 -2.52155,-12.57027 0.29996,-2.98086 1.54667,-4.10572 1.39669,-6.58978 -0.1406,-2.39031 -1.76227,-3.83388 -1.38732,-7.4053 0.66554,-4.06823 2.17472,-3.24333 0,-7.63964 6.50542,-4.83688 7.8365,-10.96735 9.45816,-18.59762 0.32809,-1.5748 1.08736,-3.14959 0.98425,-4.76189 0,0 -1.19047,-4.76189 -1.19047,-4.76189 0,0 27.18401,0 27.18401,0 z"
       id="path3403" />
    <path
       inkscape:connector-curvature="0"
       d="m -1414.3323,373.37766 c 0,0 3.3183,4.89313 3.3183,4.89313 0,0 8.4552,10.76112 8.4552,10.76112 0,0 7.424,12.20468 7.424,12.20468 0,0 12.8046,17.06031 12.8046,17.06031 2.231,2.56843 4.4338,4.25571 7.5459,5.58679 1.856,0.79677 4.6213,1.21859 5.8868,2.76527 1.1998,1.45294 1.1717,3.78701 1.6404,5.59616 0.7686,2.934 2.6528,6.5804 -1.6779,8.12708 -3.1496,1.12486 -5.3806,-0.7499 -8.2021,-1.15298 -2.5309,-0.3562 -3.6652,0.22497 -5.943,0.99363 -9.2519,3.10272 -8.9145,6.15858 -14.3794,12.76711 0,0 -6.7866,6.54291 -6.7866,6.54291 -3.1121,-2.23096 -9.2051,-2.86838 -12.3078,0 0,0 -3.4871,4.48068 -3.4871,4.48068 -1.7622,1.39669 -3.3933,0.98424 -5.9898,2.88713 -7.396,5.40868 -6.8523,9.23319 -18.5227,9.56127 0,0 0,2.81214 0,2.81214 0,0 3.7496,0.93738 3.7496,0.93738 -5.2587,-0.33746 -4.0026,-0.98425 -7.5834,-1.86539 0,0 -6.318,0 -6.318,0 0,0 -4.9306,-1.64041 -4.9306,-1.64041 -4.49,-0.80615 -9.9831,-0.59992 -13.9763,1.63104 -4.312,-3.17772 -5.9055,-0.95613 -10.0112,-2.3247 0,0 -4.9963,-3.04649 -4.9963,-3.04649 -7.424,-4.18071 -6.2242,-0.15935 -14.9887,-10.56427 0,0 12.186,-7.49904 12.186,-7.49904 0,0 6.5616,3.74952 6.5616,3.74952 1.0686,-7.51778 7.3209,-6.98348 7.4991,-17.81021 0,0 -1.4342,-12.88898 -1.4342,-12.88898 0,0 1.1904,-4.06823 1.1904,-4.06823 0.928,-4.94936 1.1811,-12.2328 4.9307,-15.85109 6.2335,4.1151 12.6827,-6.11171 14.0606,-11.24856 0,0 5.7087,1.7529 5.7087,1.7529 0,0 26.2185,0 26.2185,0 0,0 0,-11.97971 0,-11.97971 0,0 1.8185,-10.39554 1.8185,-10.39554 0,0 0,-14.99808 0,-14.99808 4.7432,7.48029 5.9993,6.72101 10.5362,12.22343 z"
       id="path3401" />
    <path
       d="m 1108,652.41602 -5.8496,3.0371 c -12.2478,9.9919 -9.6409,6.73534 -28.75,2.69922 l -9.0078,6.19727 -8.8867,1.18945 c -0.1406,1.88413 -0.092,3.44943 -1.2266,5.08985 -1.1436,1.66854 -3.6378,2.6826 -5.2969,4.06054 -2.2591,1.86539 -6.5337,7.48901 -7.7148,10.07617 -2.1841,4.78064 2.7119,6.90942 -3.0812,11.48383 l 4.1964,2.09821 -3.75,15.93554 -11.248,0 c 0.047,4.14322 0.1402,6.28054 2.5117,9.86133 1.453,2.19347 3.9375,3.92724 4.2656,6.1582 l -2.5879,13.27344 c -0.4405,2.5028 0.4603,3.31786 1.0039,5.54883 0.5343,2.19347 0.2712,5.11819 1.1992,6.82422 1.2936,2.37157 8.4375,5.88743 11.0997,5.39062 l 4.0683,-1.125 c 0,-3.16834 -0.4412,-8.05269 1.1992,-10.76172 3.0184,-5.02436 6.3561,-3.49507 10.7149,-4.63867 l 6.9922,-2.90625 c 2.6674,-1.18318 5.4268,-2.46616 8.2031,-3.82812 -1.4296,6.62608 -2.0075,13.25221 -1.8008,18.38476 5.465,-1.25609 6.3737,-3.31106 11.2481,0.98214 l 3.9286,-0.89285 6.3839,-7.58733 c -2.0341,-3.8995 -0.5251,-8.83012 2.2402,-12.14844 1.2842,-1.54668 4.2653,-3.844 4.584,-5.8125 0.072,-3.49951 -3.1936,-5.86539 1.6113,-2.66211 3.6277,-3.5058 2.241,-3.97399 3.0566,-8.35156 l 1.6016,-5.60742 c 2.2572,-3.51429 3.1008,-7.02966 1.9043,-10.41211 l 5.623,0 c 0.6187,-8.68951 6.6929,-14.85768 14.9981,-16.87305 0.9936,-3.63703 1.988,-4.63137 5.625,-5.625 0.9186,-3.35582 2.2691,-4.70441 5.625,-5.62305 2.4653,-10.46115 0.1312,-3.68375 0,-14.06054 -3.2809,0 -5.8508,0.25178 -8.9629,-1.01368 -4.0213,-1.62167 -5.2023,-3.73953 -8.0801,-4.37695 -6.5429,-1.44356 -7.3763,2.29607 -17.6406,-3.98437 z"
       transform="translate(-1572.9911,-285.63786)"
       id="path3397"
       inkscape:connector-curvature="0"
       sodipodi:nodetypes="ccccccccccccccccccccccccccccccccccccccccc" />
    <path
       inkscape:connector-curvature="0"
       d="m -669.77153,439.73478 c 0,0 0.83427,-6.13984 0.83427,-6.13984 0,0 4.79001,-18.23203 4.79001,-18.23203 0,0 4.93999,-19.94745 4.93999,-19.94745 0,0 13.11395,-6.73038 13.11395,-6.73038 0,0 10.86423,-4.51818 10.86423,-4.51818 0,0 7.14283,-4.4713 7.14283,-4.4713 0,0 10.83612,-4.55566 10.83612,-4.55566 0,0 12.58901,-4.61191 12.58901,-4.61191 0.31871,4.56504 2.27783,9.83311 3.34644,14.32316 0,0 0.83427,8.0146 0.83427,8.0146 0,0 2.91525,8.85824 2.91525,8.85824 1.04987,4.34944 -0.88113,8.18333 3.44956,11.22981 5.40868,3.80576 8.5864,1.68728 12.58901,3.01836 0.97488,0.32809 12.47655,7.78026 17.25715,8.68014 4.1339,0.76865 13.3296,-0.0188 16.5166,3.87138 1.4061,1.70603 0.9468,4.08697 2.2216,7.20845 2.2216,5.45555 5.39,6.50542 5.8118,8.99885 0,0 -2.5872,15.64487 -2.5872,15.64487 0.9655,5.68052 1.378,2.11847 1.3873,10.45178 0,0 -3.7495,0 -3.7495,0 0,0 1.8748,5.62428 1.8748,5.62428 -2.9246,0.7874 -11.2861,5.40868 -11.886,8.56765 -0.225,1.17173 0.2531,1.72478 0.4781,2.68091 -3.0371,4.4338 -0.037,5.52117 0,11.25793 0.1968,1.65916 0.2249,4.73377 0,6.25232 -1.4623,3.41207 -9.3926,10.78925 -13.5733,9.85187 0,0 -4.4057,-1.9685 -4.4057,-1.9685 0,0 -6.47727,0 -6.47727,0 -3.96511,-0.76865 -11.82036,3.10273 -16.55412,2.61529 -3.90888,-0.3937 -6.16796,-2.86838 -9.52378,-3.37457 -3.57142,-0.53431 -4.99624,1.1436 -7.31157,0.99362 0,0 -14.17318,-3.13085 -14.17318,-3.13085 0,0 0,-3.74952 0,-3.74952 0,0 -4.79938,-0.75927 -4.79938,-0.75927 0,0 -7.31157,0.64679 -7.31157,0.64679 0,0 -9.44879,-1.76227 -9.44879,-1.76227 0,0 0,9.37379 0,9.37379 0,0 -4.68689,1.87476 -4.68689,1.87476 0,0 -3.74952,-1.87476 -3.74952,-1.87476 -1.03112,-3.77764 -1.84664,-4.59316 -5.62428,-5.62428 0,0 -1.87476,-7.49903 -1.87476,-7.49903 -6.01798,-0.86239 -7.33031,-3.70265 -7.49904,-9.59877 -1.77165,0.21559 -4.63066,0.32808 -6.2617,0 -4.01198,-1.59355 -8.1552,-6.97411 -8.73638,-11.02359 -8.0146,-1.15298 -5.81175,-7.5834 -3.74952,-13.12332 0,0 -5.62428,-2.81214 -5.62428,-2.81214 0,0 2.81214,-1.87476 2.81214,-1.87476 0,0 6.56166,0 6.56166,0 0.38433,-2.69965 3.74952,-10.00184 6.72101,-10.57364 0,0 6.40231,1.19984 6.40231,1.19984 0,0 3.31832,-13.28267 3.31832,-13.28267 z"
       id="path3393" />
    <path
       inkscape:connector-curvature="0"
       d="m -938.5277,389.52872 c 2.55905,0.47806 3.39331,2.1466 5.95236,3.02773 0,0 15.85109,4.09635 15.85109,4.09635 0,0 19.60062,0 19.60062,0 7.07721,0.11249 18.26016,-3.66515 24.90618,-6.51479 8.32393,-3.56204 2.85901,-4.60253 14.46377,-4.6119 0,0 -3.53392,10.47053 -3.53392,10.47053 0,0 0,12.96396 0,12.96396 -11.56727,0.83427 -9.34568,10.22682 -14.07007,17.31341 -2.01537,3.01836 -3.18709,6.42105 -7.35843,6.43042 -4.75252,0.0187 -3.66516,1.28421 -7.35844,3.74015 -4.34007,2.88713 -6.0461,2.17472 -10.44241,7.23657 -2.69028,3.09335 -3.14022,5.75551 -4.75251,7.92086 -2.95275,3.94637 -5.09935,1.56542 -6.85225,7.9771 0,0 -3.74952,0 -3.74952,0 0,0 -1.87476,10.31118 -1.87476,10.31118 0,0 5.62428,-1.87476 5.62428,-1.87476 0,0 0,6.56166 0,6.56166 -3.83388,-1.06861 -3.97449,-2.23096 -5.88675,-2.69028 -2.25908,-0.87176 -3.48705,0.45932 -5.21183,0 -3.21521,-0.43119 -4.44318,-3.937 -4.83688,-6.68352 0,0 -3.74952,-0.93738 -3.74952,-0.93738 3.26208,-4.4338 0.91864,-8.12708 -0.66554,-12.87022 0,0 -1.99662,-9.32693 -1.99662,-9.32693 0,0 -12.33591,-13.42328 -12.33591,-13.42328 0.70303,-1.05924 1.19984,-1.19047 1.16235,-2.7559 -0.0656,-2.5028 -4.38694,-10.02059 -6.52417,-11.56727 -2.78402,-1.54667 -4.93999,1.0405 -8.38955,0 -0.80614,-0.48743 -1.3592,-0.83426 -1.92163,-1.49043 0,0 -4.60253,-9.56127 -4.60253,-9.56127 -0.15935,-1.28421 0.19685,-1.67791 0.59055,-2.74653 3.08398,1.3967 3.12147,-0.45931 5.92424,-1.42481 2.44656,-0.85302 9.23319,-2.24972 11.88598,-2.32471 0.69366,-4.8275 5.21183,-8.18332 10.15182,-7.24594 z"
       id="path3385" />
    <path
       inkscape:connector-curvature="0"
       d="m -816.36836,409.22307 c 4.92124,3.75889 5.868,15.46677 17.66961,15.67299 0,0 30.93353,0 30.93353,0 0,0 0,47.80637 0,47.80637 0,0 -11.24855,0 -11.24855,0 -8.31456,-0.0469 -16.88221,-4.70565 -25.30926,0 -3.82451,-2.81214 -10.80799,-2.46531 -11.02359,1.78102 -0.19685,3.77764 3.55267,8.11771 3.78702,9.60815 0.18747,1.12485 -0.89051,4.16196 -1.19985,5.48367 0,0 -14.99807,0 -14.99807,0 0,0 1.87475,5.62428 1.87475,5.62428 -2.34344,0 -7.1522,-0.18748 -9.20507,0.70303 -1.94037,0.3937 -9.59876,6.96473 -16.10418,0 5.08997,-3.40269 13.24518,-7.34906 9.3738,-14.76373 1.13423,-1.29359 2.08098,-2.31533 2.49343,-4.0776 0.24372,-1.05924 -0.94676,-11.48291 -1.40607,-12.49528 0,0 -5.04311,-6.87099 -5.04311,-6.87099 -2.58716,-4.66815 -3.10272,-8.83949 -8.23019,-11.23918 0,0 0,7.49903 0,7.49903 -4.75252,5.39931 -2.94337,7.27407 -4.15259,11.9141 0,0 -2.90588,6.99286 -2.90588,6.99286 -0.71241,2.6809 0.0562,7.04909 -2.7559,8.3333 -2.16534,0.99362 -3.88075,-1.33108 -7.92086,-0.73115 -5.21183,0.78739 -11.31417,6.50541 -16.94782,4.42443 5.64302,-4.45256 2.43718,-6.46792 4.95873,-9.43942 3.06524,-3.74014 9.96435,-0.45931 13.90135,0 0,0 0,-7.27406 0,-7.27406 0,0 1.07798,-3.98387 1.07798,-3.98387 0,0 -1.04049,-5.59616 -1.04049,-5.59616 0,0 0.51556,-6.19608 0.51556,-6.19608 -0.72178,-6.85224 0.88114,-3.87138 2.61529,-8.92385 0,0 1.22797,-4.96812 1.22797,-4.96812 1.11548,-2.27783 9.40192,-10.48928 11.72662,-11.58601 1.62167,-0.25309 4.49942,-0.14998 6.2617,0 0,0 20.62236,0 20.62236,0 0,0 0,-18.89758 0,-18.89758 2.78401,0 8.23956,-0.47806 10.45178,1.19985 z"
       id="path3381" />
    <path
       inkscape:connector-curvature="0"
       d="m -749.15823,446.17458 c 1.67791,-0.32808 2.7934,-1.95912 4.91188,-2.3622 4.12447,-0.26246 3.92762,3.31833 10.22681,0 1.87476,1.49981 4.04948,2.56842 5.41805,4.75252 3.02774,4.81813 1.33108,7.33031 2.86839,10.71425 0.63742,1.40607 2.15597,2.98087 3.2902,4.03073 5.33369,4.92125 7.80837,2.09036 10.92048,-2.79339 5.15558,3.92762 11.25793,3.3652 13.76073,4.19946 0,0 6.86162,4.23696 6.86162,4.23696 -3.57142,4.85563 -2.37157,10.5174 3.74952,12.18594 2.09036,7.77088 13.13269,10.11433 2.77465,18.01644 -1.83727,1.40607 -2.47469,1.3592 -4.64941,1.66854 -0.928,7.17095 -3.85263,7.41467 -5.14621,11.41728 -1.0405,3.19647 0.40307,5.70865 -2.71841,8.83949 -3.2902,3.30895 -11.97971,2.80277 -12.75773,13.4889 0,0 -3.74952,0 -3.74952,0 -1.11549,7.78963 -5.12747,3.82451 -8.14584,8.03335 -1.7154,2.39969 -0.65616,5.0431 -2.16534,8.83949 0,0 -3.74952,-1.87476 -3.74952,-1.87476 0,0 0,-3.74952 0,-3.74952 0,0 -7.49904,7.49904 -7.49904,7.49904 0,0 -3.74952,-1.87476 -3.74952,-1.87476 0,0 0,-3.74952 0,-3.74952 -7.99585,2.98087 -5.09935,1.02174 -11.16419,2.11848 -2.39032,0.44056 -4.02136,1.64978 -6.59916,1.47168 -4.52754,-0.29996 -3.69327,-3.62766 -8.48329,-1.7154 -3.42143,-6.51479 -1.87476,-23.87507 -1.87476,-31.87092 0,0 0,-74.053 0,-74.053 0,0 3.74952,-1.87476 3.74952,-1.87476 2.35283,1.33108 11.43604,4.88374 13.92009,4.40568 z"
       id="path3373" />
    <path
       inkscape:connector-curvature="0"
       d="m -499.61834,461.49137 c 0,0 0,10.27368 0,10.27368 0,0 6.3929,-1.24671 6.3929,-1.24671 3.787,0.3187 3.7402,3.21521 8.5489,1.24671 2.5685,2.28721 5.5962,2.87776 4.6869,6.56166 0,0 -4.6869,-1.87476 -4.6869,-1.87476 0,0 0,5.62428 0,5.62428 0,0 -3.7495,0 -3.7495,0 -1.2748,9.99247 -8.2489,18.71947 -10.5455,25.58109 -1.3873,4.1151 -0.1125,8.45517 -1.1061,12.58902 0,0 -3.9651,13.92946 -3.9651,13.92946 -0.7124,2.06224 -2.934,7.84587 -2.7559,9.72063 0.2906,2.91525 2.7371,4.04011 3.2058,6.69289 0.2719,4.10573 -3.3183,3.91825 0,10.22682 0,0 -14.295,-6.48667 -14.295,-6.48667 0,0 -22.3378,-9.66439 -22.3378,-9.66439 0,0 -14.8293,-7.52716 -14.8293,-7.52716 0,0 -3.6746,1.1811 -3.6746,1.1811 0,0 -1.8747,-2.81214 -1.8747,-2.81214 0,0 1.1248,-2.74652 1.1248,-2.74652 0,0 -4.8743,-10.3768 -4.8743,-10.3768 2.0903,-3.15897 0.7967,-4.04948 0,-7.49904 3.5151,-0.94675 4.0026,-1.5373 6.5616,-4.05885 7.0116,-6.93661 4.8275,-10.14245 3.0371,-18.67261 -0.4218,-3.4683 1.4436,-3.20584 0,-7.26469 3.7402,-2.83089 7.9959,-6.79601 12.8984,-7.49904 0,0 -1.8748,-5.62428 -1.8748,-5.62428 0,0 13.3577,4.79939 13.3577,4.79939 0,0 7.2647,-1.04987 7.2647,-1.04987 0,-2.69965 -0.3375,-8.50204 0.7592,-10.76112 2.2123,-4.55567 5.4931,-3.71202 9.4676,-4.48068 0,0 12.0641,-4.01198 12.0641,-4.01198 1.6216,-0.64679 1.3029,-0.79677 2.0809,-1.36858 0,0 -0.8811,6.59916 -0.8811,6.59916 z"
       id="path3371" />
    <path
       inkscape:connector-curvature="0"
       d="m -802.76698,472.43059 c 4.41506,-0.54368 8.88636,-1.06861 13.35766,-0.56243 4.1151,0.47807 3.17772,1.65916 9.45817,1.77165 0,0 12.18593,0 12.18593,0 0,0 0,98.42488 0,98.42488 0,1.94038 0.17811,5.28683 -0.76865,6.97411 -2.41844,4.28383 -8.727,1.58417 -11.661,-0.59992 -5.4743,-4.07761 -7.82712,-10.97672 -11.37979,-14.76374 -2.55905,-2.72777 -4.4713,-2.60591 -6.4773,-5.21183 -2.26846,-2.96212 -6.1867,-10.72362 -5.59616,-14.3794 0.4312,-2.67154 2.83089,-2.28721 3.05586,-8.57703 0.4312,-11.67975 -3.69327,-6.99285 -3.73077,-19.68498 0,0 -5.62428,-2.81214 -5.62428,-2.81214 0,0 1.87476,-4.6869 1.87476,-4.6869 0,0 -3.74952,1.87476 -3.74952,1.87476 0,0 -6.37418,-7.25532 -6.37418,-7.25532 0,0 -4.87438,-8.68013 -4.87438,-8.68013 3.76827,1.07798 4.13385,1.79977 4.6869,5.62428 5.09935,-2.3997 3.78702,-3.52455 5.08998,-8.16458 0,0 2.65278,-6.90849 2.65278,-6.90849 0,0 -4.93062,-11.17357 -4.93062,-11.17357 7.20845,-3.78701 7.93961,-0.6093 12.80461,-1.20922 z"
       id="path3367" />
    <path
       inkscape:connector-curvature="0"
       d="m -672.15247,492.38741 c 0.40307,5.45555 2.09973,7.92086 7.49904,9.3738 0,0 1.87476,7.49903 1.87476,7.49903 4.28382,0.61868 5.00561,1.34046 5.62428,5.62428 0,0 3.74952,0 3.74952,0 0,0 -1.87476,12.18594 -1.87476,12.18594 0,0 -3.74952,0 -3.74952,0 0,0 -1.63104,6.64602 -1.63104,6.64602 0,0 -0.6468,9.02697 -0.6468,9.02697 0,0 -2.66216,8.77388 -2.66216,8.77388 -0.19685,3.02773 3.11211,6.50541 -1.04986,10.81736 -2.56842,2.65279 -5.58678,3.34645 -8.88636,4.49942 -5.46493,1.91226 -6.73976,4.25571 -8.69889,4.55567 -1.77164,0.28121 -4.89312,-1.70603 -6.67414,-2.39032 -13.04833,-5.00561 -8.38018,-5.31494 -19.19754,-12.15782 -4.5088,-2.859 -14.54814,-0.16872 -13.24518,-10.93922 0.89989,-7.3678 6.88037,-1.68728 9.26132,-10.39554 0,0 3.74951,0 3.74951,0 0.33746,-11.54852 8.64265,-9.61752 12.74837,-14.11694 3.09335,-3.39332 1.70603,-6.05547 2.69965,-9.01759 1.04987,-3.12148 3.57142,-3.98387 5.17434,-10.61114 4.7244,-1.27484 8.09896,-4.64941 9.3738,-9.3738 0,0 6.56166,0 6.56166,0 z"
       id="path3361" />
    <path
       inkscape:connector-curvature="0"
       d="m -630.90776,505.51072 c 0,0 3.74952,1.87476 3.74952,1.87476 0,0 0,3.74952 0,3.74952 0,0 15.07307,3.06524 15.07307,3.06524 0,0 7.28344,-0.95613 7.28344,-0.95613 0,0 12.28905,3.39331 12.28905,3.39331 0,0 11.60476,-2.88713 11.60476,-2.88713 0,0 8.11768,-0.74053 8.11768,-0.74053 0,0 8.1271,5.44618 8.1271,5.44618 0,0 1.1624,7.799 1.1624,7.799 0,0 3.1777,6.58041 3.1777,6.58041 0,0 0,3.4683 0,3.4683 0,0 2.5309,5.76489 2.5309,5.76489 0,0 -10.3112,5.62428 -10.3112,5.62428 -7.41464,-5.35244 -9.86121,6.75851 -17.88518,7.16158 -2.859,0.14998 -8.02397,-4.49942 -10.71425,-5.98048 -2.61529,-1.42482 -5.0806,-1.17173 -7.95835,-1.1811 -0.17811,6.19608 -1.78102,10.94859 -6.56166,14.99808 -1.76228,-6.54292 -5.05248,-7.42405 -11.24856,-7.49904 0,0 0,-7.49904 0,-7.49904 0,0 -14.99808,0 -14.99808,0 0,0 0,-3.74952 0,-3.74952 -11.39854,-1.64042 0.27184,-10.19869 1.38732,-16.07607 0.59055,-3.13084 -1.20922,-3.92762 -1.38732,-10.17057 0,0 -11.24856,-2.81214 -11.24856,-2.81214 1.73416,-2.62466 1.4342,-2.87775 0,-5.62428 0,0 1.87476,-3.74952 1.87476,-3.74952 6.73039,0.44057 9.0176,3.86201 15.93546,0 z"
       id="path3359" />
    <path
       inkscape:connector-curvature="0"
       d="m -638.4068,518.63404 c 0.37495,5.34307 0.97488,4.19009 1.43419,6.79601 1.27484,7.25532 -13.94821,16.02919 -1.43419,19.45063 0,0 0,3.74952 0,3.74952 0,0 14.77311,0 14.77311,0 0.20622,1.64041 0.29059,3.76826 0,5.32432 -0.83427,1.82789 -6.88037,8.73638 -1.64979,18.11017 -1.88413,0.14061 -3.44956,0.0937 -5.08997,1.22797 -3.24334,2.23097 -5.88675,10.00184 -6.15859,13.77011 0,0 -7.49904,0 -7.49904,0 0,0 -3.74952,9.3738 -3.74952,9.3738 -4.79001,-0.32808 -5.38056,-1.06861 -8.43641,-4.6869 0,0 7.49903,0 7.49903,0 0,0 2.49344,-9.9831 2.49344,-9.9831 0,0 -2.49344,-7.82712 -2.49344,-7.82712 -10.61114,0.33746 -7.02097,6.11172 -17.81021,7.49904 0,0 0,4.6869 0,4.6869 0,0 7.49904,-1.87476 7.49904,-1.87476 0,0 -1.7529,3.47768 -1.7529,3.47768 0,0 -12.42029,4.3307 -12.42029,4.3307 0,0 -5.51179,-1.24672 -5.51179,-1.24672 0,0 1.87476,-9.3738 1.87476,-9.3738 0,0 -3.74952,0 -3.74952,0 0,-2.78402 -0.47806,-8.24894 1.19985,-10.45178 3.09335,-4.04011 13.69512,-3.66516 16.59162,-10.47054 1.63104,-3.23396 0.33746,-4.65877 0,-7.51778 -0.67491,-2.78402 1.69666,-7.29282 2.39969,-10.15183 0,0 0.53431,-8.1927 0.53431,-8.1927 0,0 1.77165,-6.64602 1.77165,-6.64602 0,0 3.74952,0 3.74952,0 0.0187,-7.0116 0.29996,-7.07722 3.74951,-13.12332 0,0 12.18594,3.74952 12.18594,3.74952 z"
       id="path3357" />
    <path
       inkscape:connector-curvature="0"
       d="m -539.69134,545.98679 c 0,0 4.7619,1.72478 4.7619,1.72478 0,0 10.5174,5.18371 10.5174,5.18371 0,0 12.0922,5.80238 12.0922,5.80238 0,0 7.021,3.99324 7.021,3.99324 -4.7619,0.34683 -6.1961,0.84364 -7.4991,5.62427 -7.9021,1.88414 -7.8177,3.73078 -16.8728,3.74952 -11.1079,0.0188 -22.8908,-1.52793 -33.3426,2.88713 -5.643,2.38095 -14.51064,8.74576 -18.84133,13.04833 -2.31533,2.30596 -9.82374,10.25494 -12.03596,11.44541 -6.21483,3.3277 -13.36704,2.61529 -20.14429,2.61529 0.2156,6.63665 1.5373,9.43941 7.49904,4.6869 0,5.79301 0.31871,7.12408 -2.81214,12.18594 -5.98986,-10.50803 -3.78702,-11.23919 -14.99808,-11.24856 0,0 0,-7.49904 0,-7.49904 -7.34906,0.23434 -7.56465,3.75889 -13.12332,-2.81214 5.9055,-4.65878 3.04649,-7.33968 2.31533,-11.4829 -0.50618,-2.88713 3.12148,-10.71426 5.69927,-12.12033 1.5373,-0.83426 3.42144,-0.72178 5.10872,-0.76865 -1.36857,-3.67453 -3.47768,-11.72662 -0.66554,-15.11993 2.19347,-2.65279 11.5204,-3.56205 12.85148,5.74614 5.99923,-2.71841 7.99585,-8.75513 8.43642,-14.99808 2.63403,0.0281 4.42443,-0.19685 6.796,1.15297 2.87776,1.63105 7.81775,6.13984 10.96734,5.97111 5.32432,-0.27184 9.09259,-6.02735 11.99847,-7.82712 3.16839,-1.94975 4.49009,0.0937 7.40529,-0.55305 4.087,-0.91863 3.8808,-3.53392 9.7019,-4.36819 0,0 0,-5.62428 0,-5.62428 0,0 17.1634,8.60515 17.1634,8.60515 z"
       id="path3351" />
    <path
       inkscape:connector-curvature="0"
       d="m -728.39526,550.50496 c 0,0 10.61114,4.83688 10.61114,4.83688 0,0 7.65839,1.54667 7.65839,1.54667 0,0 12.17657,9.33631 12.17657,9.33631 0,0 16.42289,6.77725 16.42289,6.77725 0,0 0,9.3738 0,9.3738 0,0 3.74952,0.93738 3.74952,0.93738 -2.29658,3.1121 -1.86539,4.70565 -1.87476,8.43642 0,0 3.74952,0 3.74952,0 -1.71541,6.14921 -6.94599,8.4083 -11.49228,11.97971 -1.73415,1.36858 -3.43081,3.91825 -5.92424,3.08398 -3.10273,-1.02174 -1.08736,-2.77464 -9.7675,-2.87775 0,0 0,-3.74952 0,-3.74952 -4.35881,-0.0187 -6.16796,0.19685 -10.09558,-2.08098 -4.06823,-2.3622 -10.09558,-7.58341 -15.06369,-6.81476 -1.82789,0.29059 -2.42781,1.11549 -4.5088,0.63742 -3.97449,-0.89988 -8.93323,-5.98048 -13.13269,-4.04948 -1.95912,0.89989 -2.97149,3.08398 -4.06823,4.80876 0,0 -4.6494,-3.52455 -4.6494,-3.52455 -4.98686,-4.14322 -5.04311,-5.98048 -12.22344,-7.72401 0,0 0,-20.62235 0,-20.62235 0,0 0.93738,-12.18594 0.93738,-12.18594 0,0 3.74952,0 3.74952,0 4.76189,6.02735 7.35844,2.97149 12.3453,2.09973 4.83688,-0.85302 4.96811,0.79677 10.15182,-2.09973 0,0 0,3.74952 0,3.74952 7.00223,0.80614 5.78363,2.30595 10.31118,-5.62428 0,0 0.93738,3.74952 0.93738,3.74952 z"
       id="path3349" />
  </g>
</svg>
