<?xml version="1.0" encoding="UTF-8" standalone="no"?>
<svg
   xmlns:dc="http://purl.org/dc/elements/1.1/"
   xmlns:cc="http://creativecommons.org/ns#"
   xmlns:rdf="http://www.w3.org/1999/02/22-rdf-syntax-ns#"
   xmlns:svg="http://www.w3.org/2000/svg"
   xmlns="http://www.w3.org/2000/svg"
   version="1.1"
   id="svg7309"
   viewBox="0 0 1172.8377 891.16022"
   height="251.50522mm"
   width="331.00085mm">
  <defs
     id="defs7311" />
  <metadata
     id="metadata7314">
    <rdf:RDF>
      <cc:Work
         rdf:about="">
        <dc:format>image/svg+xml</dc:format>
        <dc:type
           rdf:resource="http://purl.org/dc/dcmitype/StillImage" />
        <dc:title></dc:title>
      </cc:Work>
    </rdf:RDF>
  </metadata>
  <g
     transform="translate(177.84743,40.04161)"
     id="layer1">
    <path
       id="path5966"
       d="m 771.43529,849.67342 c -0.2165,-0.6445 -0.5193,-2.2265 -0.674,-3.5156 -0.2607,-2.1809 -0.6375,-2.3437 -5.4207,-2.3437 -5.0465,0 -7.574,-1.9761 -4.755,-3.718 1.3219,-0.8172 1.2638,-7.5868 -0.084,-9.7454 -1.7419,-2.7894 3.4115,-11.5152 7.4015,-12.5324 2.9466,-0.751 4.0341,-2.8149 2.1094,-4.0042 -1.3219,-0.8173 -1.17,-10.1737 0.1875,-11.5313 2.9972,-2.9973 12,1.1361 12,5.5094 0,4.2451 5.9222,-1.9043 8.1938,-8.5084 2.2228,-6.4633 3.389,-6.683 10.2365,-1.9295 7.4663,5.1825 10.7372,4.7255 18.346,-2.5633 3.20528,-3.0708 3.68248,-3.247 5.76838,-2.1303 2.5959,1.3894 12.6037,-4.2684 13.4812,-7.6212 0.5935,-2.2705 1.2647,-2.1667 7.5169,1.1615 2.9494,1.5707 6.4181,3.4176 7.7072,4.1042 5.8219,3.1012 18.8916,8.9776 19.9669,8.9776 0.6544,0 3.375,1.4078 6.0459,3.1283 l 4.8553,3.1284 -3.75,3.9029 c -2.3606,2.4564 -4.5853,3.9029 -6.0037,3.9029 -1.2394,0 -2.5144,0.4219 -2.8331,0.9375 -0.3526,0.57 -7.3351,0.9375 -17.8125,0.9375 -10.4775,0 -17.46,0.3675 -17.8125,0.9375 -0.3188,0.5156 -1.3154,0.9375 -2.2154,0.9375 -2.49,0 -10.7821,4.4008 -13.25808,7.0358 -1.2084,1.2866 -2.6597,2.3392 -3.225,2.3392 -0.5653,0 -4.8075,3.7969 -9.4265,8.4375 -5.1807,5.205 -9.1425,8.4375 -10.3397,8.4375 -1.0678,0 -2.3429,0.4013 -2.8332,0.8918 -0.4903,0.4904 -4.0556,1.0177 -7.9218,1.1718 -6.8935,0.2747 -7.036,0.3304 -7.3266,2.8583 -0.3244,2.8166 -7.2488,4.0152 -8.1244,1.4062 z"
       style="fill:#a4a4a4" />
    <path
       id="path5962"
       d="m 699.69969,848.50162 c -0.6422,-0.7735 -2.3662,-1.4063 -3.8316,-1.4063 -1.7053,0 -3.0262,-0.6751 -3.6684,-1.875 -0.6384,-1.1924 -1.9631,-1.875 -3.6394,-1.875 -2.6728,0 -8.0915,-2.2536 -9.0168,-3.7493 -1.4429,-2.3351 -10.9341,-5.841 -14.3382,-5.2965 -2.6831,0.429 -4.6237,0.01 -8.1131,-1.7577 -5.5509,-2.8102 -9.0347,-2.9479 -11.2987,-0.4465 -2.3157,2.559 -3.1425,2.3909 -7.0613,-1.4359 -1.8656,-1.821 -4.8366,-4.0853 -6.6028,-5.0319 l -3.2109,-1.721 -0.2597,-14.297 -0.2588,-14.2968 3.0713,0.6734 c 3.6093,0.7911 8.5162,0.7808 15.9197,-0.034 4.5384,-0.4993 5.9353,-0.2578 9.2362,1.5972 l 3.8878,2.1855 2.2285,-2.7941 2.2275,-2.7941 3.5362,1.8344 c 1.9453,1.0089 4.5422,2.5864 5.7722,3.5054 1.23,0.919 3.6722,1.671 5.4281,1.671 3.3291,0 6.555,1.8741 12.961,7.5291 2.0625,1.8206 5.2265,3.8481 7.0312,4.5056 11.8041,4.3003 11.9203,4.4478 13.7419,17.4966 0.2878,2.0625 1.1859,4.499 1.995,5.4145 1.5178,1.7167 -4.0481,9.1167 -6.8578,9.1167 -0.5785,0 -2.0428,1.0547 -3.2541,2.3438 -2.5275,2.6903 -3.9703,2.9309 -5.625,0.9375 z"
       style="fill:#a4a4a4" />
    <path
       id="path5958"
       d="m 742.53219,838.98992 c -1.2234,-1.2226 -0.6394,-2.2071 1.3078,-2.2071 1.0913,0 1.7897,0.4914 1.5825,1.1133 -0.4565,1.3699 -2.0222,1.9623 -2.8903,1.0938 z"
       style="fill:#a4a4a4" />
    <path
       id="path5956"
       d="m 717.69969,833.78282 c -1.4362,-1.4362 -1.4259,-3.1059 0.028,-5.442 0.9938,-1.5916 0.8541,-2.0667 -0.9872,-3.3564 -1.7521,-1.2272 -2.0925,-2.2162 -1.8609,-5.3989 0.3066,-4.2072 0.028,-3.9897 11.2566,-8.9229 5.9915,-2.6338 7.7156,-5.4464 6.9365,-11.3189 -0.4106,-3.098 -0.149,-5.9161 0.8053,-8.6554 0.7782,-2.234 1.4203,-6.2619 1.4278,-8.951 0.01,-4.0849 0.4772,-5.4162 2.8266,-8.0925 1.5469,-1.7618 2.8125,-4.0769 2.8125,-5.1448 0,-9.0764 11.4806,-9.4493 14.9447,-0.4854 1.2206,3.1584 1.2478,3.0802 -4.1991,12.0495 -4.2234,6.9543 0.7435,12.7788 11.5913,13.5937 7.1128,0.5344 8.2556,1.9784 4.919,6.2195 -1.5337,1.9495 -1.9434,3.8154 -1.9434,8.8438 0,5.6465 -0.224,6.4439 -1.965,6.9964 -1.2591,0.3999 -3.1472,3.1137 -5.2603,7.5632 -2.985,6.286 -3.5522,6.9396 -6.0272,6.9396 -2.0512,0 -2.9531,0.5839 -3.6225,2.3438 -0.4903,1.289 -1.3237,2.3437 -1.8516,2.3437 -1.3237,0 -1.2365,-0.3897 0.9657,-4.3102 l 1.9265,-3.4296 -2.4647,-5.0364 c -2.9559,-6.0429 -6.7584,-6.9596 -10.8346,-2.612 -1.2497,1.3333 -4.066,3.2423 -6.2569,4.2422 -4.0341,1.8405 -5.5238,5.3962 -2.9325,6.9978 0.6215,0.3845 -0.4313,1.3518 -2.5781,2.3673 -4.2872,2.028 -6.1313,2.1859 -7.6613,0.6559 z"
       style="fill:#a4a4a4" />
    <path
       id="path5954"
       d="m 617.37409,823.21522 c -3.0178,-1.6641 -7.6744,-6.2492 -7.6744,-7.5562 0,-0.5971 -0.8437,-1.8492 -1.875,-2.7824 -1.0312,-0.9333 -1.875,-2.1854 -1.875,-2.7825 0,-1.3381 -4.5564,-5.6378 -6.8182,-6.4338 -0.914,-0.3218 -1.926,-1.3328 -2.249,-2.2468 -0.323,-0.9141 -1.3125,-2.5057 -2.199,-3.5369 -2.2706,-2.6414 -3.1524,-10.2562 -1.3599,-11.7439 2.1785,-1.8079 1.8522,-13.1327 -0.4989,-17.3186 -1.0312,-1.8361 -1.875,-4.6306 -1.875,-6.21 0,-2.0567 -0.5178,-3.0073 -1.8241,-3.3489 -1.3101,-0.3426 -1.9045,-1.4408 -2.1094,-3.8965 -0.242,-2.901 -0.6569,-3.4628 -2.7359,-3.704 -1.3478,-0.1564 -3.632,-1.5176 -5.0762,-3.0249 l -2.6256,-2.7405 2.4981,-1.9651 c 1.68,-1.3215 2.4981,-2.8556 2.4981,-4.6843 0,-1.4957 0.926,-4.6253 2.0576,-6.9547 l 2.0577,-4.2352 -2.0577,-2.7832 c -4.3268,-5.8523 0.2758,-12.3381 5.236,-7.3779 0.8497,0.8497 1.6206,0.8306 3.3269,-0.082 1.5303,-0.819 4.3779,-1.0139 9.1595,-0.6269 3.8163,0.309 10.7356,0.8734 15.3763,1.2543 l 8.4375,0.6928 0.2428,51.4567 c 0.1753,37.2221 -0.056,51.8101 -0.8185,52.7344 -1.2881,1.5527 -4.2947,1.51 -7.2187,-0.1025 z"
       style="fill:#a4a4a4" />
    <path
       id="path5952"
       d="m 708.13719,813.33072 c -0.7734,-0.5079 -3.0262,-1.3717 -5.0072,-1.9197 -1.98,-0.5479 -5.355,-2.5654 -7.5,-4.4832 -6.5644,-5.8707 -11.2415,-8.5825 -14.8012,-8.5825 -4.1063,0 -7.3791,-3.1663 -7.3791,-7.1386 0,-3.1906 1.4634,-5.0489 3.975,-5.0489 2.0316,0 9.1209,-7.3131 9.1388,-9.4254 0.019,-1.9773 5.7909,-7.4496 7.8628,-7.4496 2.9793,0 7.1484,-5.1138 7.1484,-8.7691 0,-4.2911 2.7731,-8.6522 10.6144,-16.6949 6.1781,-6.3367 9.0731,-7.6166 9.0731,-4.0119 0,0.8362 2.0044,3.5566 4.4531,6.0451 8.3428,8.4764 13.8282,14.985 13.6228,16.1621 -0.8146,4.6736 -1.6575,7.0489 -3.0787,8.675 -2.8134,3.2205 -3.7472,5.817 -3.7472,10.4228 0,2.4487 -0.8662,6.892 -1.9247,9.8738 -1.4578,4.1068 -1.6856,5.869 -0.9375,7.2664 2.4131,4.5084 -1.109,9.3671 -8.1956,11.3071 -1.9106,0.5228 -4.8544,1.7995 -6.5428,2.8372 -3.4275,2.1061 -4.7185,2.2843 -6.7744,0.9343 z"
       style="fill:#a4a4a4" />
    <path
       id="path5950"
       d="m 781.60719,801.08662 c -1.0969,-1.0969 -3.4162,-2.2835 -5.1534,-2.637 -2.4207,-0.492 -3.2363,-1.1832 -3.4847,-2.9515 -0.54,-3.8472 -1.8919,-4.6528 -7.8094,-4.6528 -9.7247,0 -14.2078,-5.1106 -9.7659,-11.1317 6.629,-8.9848 3.5972,-20.7213 -5.3569,-20.7398 -1.4138,0 -1.6472,-0.6646 -1.4063,-3.9879 0.2457,-3.4052 0.5607,-3.9336 2.1629,-3.6356 1.0312,0.1918 4.6171,0.5437 7.9687,0.7818 3.9413,0.2801 6.7566,1.0097 7.9688,2.0652 1.0312,0.8978 3.7734,2.1565 6.0937,2.7974 2.3203,0.6408 5.5031,1.5545 7.0734,2.0303 1.9285,0.5845 3.8222,0.4998 5.8379,-0.2609 2.5865,-0.9764 3.5503,-0.8505 7.2487,0.9464 4.7081,2.2873 9.8034,2.6666 12.9488,0.9636 6.4462,-3.4902 23.87898,-0.082 22.74178,4.4465 -0.3122,1.2455 -0.2015,3.008 0.2466,3.9165 3.3187,6.731 3.9159,8.4946 3.3647,9.9324 -0.3816,0.9952 0.038,2.3709 1.0819,3.5216 2.5687,2.8379 -1.9866,6.3977 -8.2472,6.4455 -3.87568,0.03 -4.99598,0.5439 -9.07778,4.1696 -6.6179,5.8775 -7.4579,5.9704 -13.8525,1.5315 -8.7891,-6.1006 -11.67,-5.4556 -14.4694,3.2389 -1.7063,5.2996 -3.226,6.0977 -6.1144,3.21 z"
       style="fill:#a4a4a4" />
    <path
       id="path5948"
       d="m 882.63217,800.83392 c -0.5756,-0.6938 -2.8425,-1.9988 -5.0362,-2.9001 -5.4591,-2.2418 -20.5444,-9.0289 -22.2713,-10.0198 -5.9841,-3.4343 -16.1559,-8.3187 -17.3231,-8.3187 -0.7847,0 -1.4269,-0.7868 -1.4269,-1.7485 0,-0.9618 -0.7856,-2.7548 -1.7466,-3.9844 -1.0706,-1.3698 -1.9209,-4.3716 -2.1965,-7.7496 l -0.45,-5.5138 5.009,-4.8517 c 5.4057,-5.2361 6.8729,-12.2861 3.9094,-18.7896 -0.8409,-1.8459 -0.8409,-2.6718 0,-3.5128 0.6047,-0.6048 1.0997,-2.0473 1.0997,-3.2057 0,-1.5196 1.4738,-3.0844 5.2913,-5.6183 2.91,-1.9318 5.4909,-4.2746 5.7346,-5.2064 0.5785,-2.2147 1.1194,-2.1545 7.1335,0.795 l 5.0756,2.4894 3.1481,-1.8329 c 2.8107,-1.6367 3.18,-2.3299 3.4416,-6.4737 0.3694,-5.8258 2.9053,-8.8595 7.4072,-8.8595 1.7353,0 4.8094,-0.8438 6.8306,-1.875 6.63,-3.3822 7.5,-2.8516 7.5,4.5727 0,7.391 1.0132,8.8652 5.4792,7.972 1.966,-0.3931 3.704,-0.084 5.258,0.934 1.277,0.8367 3.497,1.5341 4.933,1.5498 2.227,0.024 2.369,0.1692 0.97,0.9841 -0.901,0.5256 -1.64,1.7916 -1.64,2.8134 0,1.0218 -0.623,2.0967 -1.383,2.3886 -1.436,0.551 -4.242,5.4284 -4.242,7.3729 0,0.6115 -2.11,5.2549 -4.688,10.3187 -4.259,8.3652 -4.6872,9.7881 -4.6872,15.5638 0,3.4963 -0.4219,6.6176 -0.9375,6.9362 -0.5156,0.3187 -0.9375,2.0062 -0.9375,3.75 0,1.7439 -0.4219,3.4314 -0.9375,3.75 -0.5156,0.3187 -0.9375,1.5843 -0.9375,2.8125 0,1.2283 -0.4219,2.4939 -0.9375,2.8125 -0.5156,0.3187 -0.9375,1.5843 -0.9375,2.8125 0,1.2283 -0.4219,2.4939 -0.9375,2.8125 -1.7119,1.0578 -1.0134,6.3605 1.1381,8.6512 1.7438,1.8563 1.8938,2.5008 0.9375,4.0321 -0.6262,1.0024 -1.1381,2.6721 -1.1381,3.7102 0,2.2272 -3.8156,2.6613 -5.505,0.6264 z"
       style="fill:#a4a4a4" />
    <path
       id="path5946"
       d="m 634.61099,792.79542 c -0.9704,-1.0725 -2.7572,-1.9501 -3.9713,-1.9501 l -2.2059,0 0.2418,-50.8594 0.2429,-50.8593 3.1584,-0.3021 c 2.9672,-0.2839 6.2166,0.5619 11.1422,2.9006 1.7494,0.8307 2.5134,0.6266 4.4437,-1.1868 2.0194,-1.897 2.6513,-2.0438 4.7278,-1.0977 1.3182,0.6007 4.2825,1.0922 6.586,1.0922 4.9987,0 7.9012,3.5674 7.9069,9.7196 0,7.6537 9.0046,13.2131 14.4506,8.9291 1.8403,-1.4471 3.1912,-1.8033 5.0484,-1.3306 1.395,0.3549 4.2235,0.8667 6.286,1.1372 5.5415,0.7265 7.9687,3.3974 7.9687,8.768 0,4.1574 0.3563,4.7731 6.5541,11.321 7.8515,8.2957 7.7953,7.8258 1.649,13.662 -6.2025,5.89 -10.0781,12.206 -10.0781,16.4238 0,3.4788 -3.0844,7.3074 -5.8875,7.3074 -2.0625,0 -7.9191,5.2174 -8.7319,7.7785 -1.0453,3.2922 -6.1734,9.0965 -8.0372,9.0965 -2.625,0 -5.4684,3.4127 -5.4684,6.5625 0,3.302 -1.2084,3.6126 -3.1687,0.8142 -1.6969,-2.4237 -3.9188,-1.8086 -5.4272,1.5032 -1.3275,2.9128 -3.9413,3.057 -5.8566,0.323 -1.2187,-1.7402 -1.7541,-1.8881 -3.5691,-0.9865 -1.1737,0.5834 -4.0331,1.2664 -6.3534,1.5179 -2.3203,0.2514 -5.4938,0.729 -7.0528,1.0615 -2.1806,0.4653 -3.2391,0.1555 -4.5984,-1.3457 z"
       style="fill:#a4a4a4" />
    <path
       id="path5944"
       d="m 794.38719,757.19412 c -2.4638,-1.3349 -5.0353,-1.7508 -10.3247,-1.67 -7.8515,0.1198 -11.7553,-1.0976 -17.0981,-5.3322 -3.1613,-2.5052 -3.7463,-2.6644 -5.7834,-1.5743 -1.2535,0.6707 -3.4529,0.9662 -4.921,0.6609 -8.8912,-1.8489 -8.3719,-1.9062 -10.56,1.1658 -1.3134,1.8449 -1.8478,3.582 -1.469,4.7753 1.2178,3.8391 -3.4885,2.1314 -7.9688,-2.891 -2.3203,-2.6012 -6.0122,-6.4657 -8.2031,-8.5876 -2.191,-2.122 -3.9844,-4.5416 -3.9844,-5.3769 0,-2.2261 -1.9134,-3.7688 -4.6734,-3.7688 -6.4322,0 -17.7947,-15.8237 -14.8032,-20.6145 0.9554,-1.5297 0.871,-2.042 -0.5025,-3.0463 -1.5243,-1.1148 -1.4371,-1.3339 1.1419,-2.8575 1.5366,-0.9076 4.1738,-3.7797 5.8603,-6.3826 2.8678,-4.4257 3.2635,-4.6954 6.1022,-4.1628 4.5816,0.8595 5.8678,-1.5464 8.7497,-16.3738 0.4509,-2.3203 1.2684,-6.0117 1.8159,-8.2031 0.5485,-2.1914 1.4447,-5.7774 1.9932,-7.9688 0.5475,-2.1914 1.365,-5.8828 1.8159,-8.2031 2.22,-11.4184 4.0106,-17.0545 5.6728,-17.8505 0.7472,-0.3576 5.3663,-2.4375 10.2647,-4.6218 4.8984,-2.1843 10.8047,-4.9548 13.125,-6.1566 13.7409,-7.1166 26.2228,-12.7487 27.0797,-12.219 0.3928,0.2427 1.2394,2.2555 1.8806,4.4728 0.6422,2.2172 1.56,5.3269 2.041,6.9104 0.48,1.5834 0.8737,4.3316 0.8737,6.107 0,1.7753 0.8438,5.5363 1.875,8.3577 1.0313,2.8214 1.875,6.6832 1.875,8.582 0,6.578 4.4353,10.168 12.5634,10.168 2.311,0 4.4691,0.4332 4.7963,0.9627 1.5384,2.4903 15.51468,8.4126 19.88528,8.4265 4.1803,0.013 9.5044,1.363 12.2081,3.0956 0.645,0.4129 1.1719,1.8016 1.1719,3.0859 0,2.6882 2.2284,7.455 4.8066,10.281 1.604,1.7586 1.6762,2.5233 0.7472,7.9687 -1.171,6.8603 -1.2535,10.2024 -0.3704,15.0484 0.5175,2.8405 0.2822,3.6368 -1.4343,4.8386 -1.4232,0.9968 -1.8732,2.0059 -1.4663,3.2868 0.4678,1.476 -0.4256,2.5201 -4.4353,5.1815 -7.1091,4.719 -7.5066,5.3691 -6.8194,11.1566 0.3235,2.7219 0.8194,7.2861 1.1035,10.1427 l 0.5147,5.1937 -4.7204,4.4157 c -4.9228,4.6046 -7.6378,5.3899 -10.92,3.1583 -2.10928,-1.434 -9.03838,-1.2808 -15.44338,0.3415 -7.6228,1.9305 -10.6106,1.947 -14.0625,0.077 z"
       style="fill:#a4a4a4" />
    <path
       id="path5942"
       d="m 546.11539,740.53052 c 0.1666,-0.8606 1.5466,-2.2537 3.0664,-3.0959 3.5921,-1.9903 5.9886,-6.167 6.0744,-10.5864 0.037,-1.9406 0.5853,-4.3558 1.2169,-5.3672 0.9062,-1.4511 0.9062,-2.0811 0,-2.9873 -0.6316,-0.6316 -1.1484,-3.3108 -1.1484,-5.9537 0,-3.9246 -0.4333,-5.2124 -2.3641,-7.0263 -1.3003,-1.2216 -3.482,-4.5646 -4.8482,-7.4291 -5.0667,-10.6226 -10.6002,-10.6033 -10.6002,0.037 0,1.4373 -0.4219,2.8739 -0.9375,3.1926 -0.5156,0.3186 -0.9375,2.2292 -0.9375,4.2455 0,2.0164 -0.8179,5.1223 -1.8175,6.9021 -0.9996,1.7797 -1.9488,5.062 -2.1094,7.2941 l -0.2918,4.0583 -5.223,-0.3126 c -3.9735,-0.2378 -6.0547,0.1547 -8.7003,1.6406 -5.222,2.933 -7.1705,2.6231 -7.1705,-1.1405 0,-4.7841 5.8394,-7.5669 9.0794,-4.3269 2.5188,2.5188 5.4391,0.5723 5.7454,-3.8294 0.1615,-2.3203 0.6889,-4.6195 1.1719,-5.1094 1.1638,-1.1801 1.1246,-4.9402 -0.059,-5.6718 -1.2878,-0.7959 -1.1806,-4.5382 0.1686,-5.8873 0.8497,-0.8498 0.8126,-1.6544 -0.1603,-3.4722 -1.1333,-2.1176 -1.0526,-2.5936 0.769,-4.5325 1.1437,-1.2174 2.0352,-3.3837 2.0352,-4.9455 0,-2.166 1.2984,-4.0661 5.8846,-8.6115 l 5.8846,-5.8323 12.7506,0 c 15.1437,0 14.6774,0.3209 15.0486,-10.3592 l 0.2753,-7.922 3.9188,-0.2851 c 3.8982,-0.2836 3.9405,-0.2517 8.0913,6.0937 6.92,10.5791 5.6278,10.0581 26.2885,10.5976 l 17.9514,0.4688 0,22.5 0,22.5 -8.4375,-0.2468 c -4.6406,-0.1356 -14.5882,-0.4725 -22.1058,-0.7484 -12.5618,-0.461 -13.8503,-0.3544 -15.9154,1.318 -2.4455,1.9801 -2.5612,1.2785 1.6775,10.1728 1.9085,4.005 1.0489,6.1469 -2.1454,5.3451 -1.3401,-0.3364 -3.3533,-0.1506 -4.4737,0.4127 -1.1205,0.5633 -3.3028,1.1445 -4.8497,1.2916 -2.4297,0.2311 -2.7885,0.6184 -2.6359,2.8456 0.1696,2.4778 0,2.5781 -4.3078,2.5781 -3.2938,0 -4.9349,0.4978 -6.1813,1.875 -2.257,2.4941 -10.1501,2.7471 -9.678,0.3102 z"
       style="fill:#a4a4a4" />
    <path
       id="path5940"
       d="m -62.019013,720.53282 c -0.3427,-0.5543 -6.0653,-0.9375 -14.0031,-0.9375 -10.704698,0 -13.656798,-0.2809 -14.574598,-1.3868 -1.4577,-1.7564 -6.3844,-4.2382 -8.4138,-4.2382 -1.768899,0 -7.539799,-5.6057 -7.539799,-7.324 0,-3.3967 9.350799,-5.9998 13.260199,-3.6916 1.6135,0.9527 2.0698,0.9357 2.4395,-0.091 0.25,-0.6945 1.6129,-2.5929 3.0287,-4.2187 4.9015,-5.6288 5.8378,-8.5402 5.2757,-16.406 -0.7524,-10.5326 -0.7535,-10.4854 0.3602,-16.0813 0.5645,-2.8359 1.2658,-6.5273 1.5586,-8.2031 0.4402,-2.5197 0.9606,-3.0537 3.007798,-3.0862 3.9166,-0.062 8.2172,-2.8925 11.2376,-7.396 l 2.7862,-4.154 14.9117,0.2405 c 18.8034,0.3033 16.9238,2.7763 18.6292,-24.5106 0.2819,-4.5117 0.815,-8.2031 1.1845,-8.2031 0.8643,0 8.6941,8.1883 10.7575,11.25 0.8687,1.2891 3.0387,4.2422 4.8222,6.5625 5.1335001,6.6787 8.8046001,12.0398 10.4651001,15.2828 0.8444,1.6492 2.63689998,4.3473 3.9835,5.9959 1.3464,1.6487 3.7137,4.7295 5.2606,6.8463 5.7107999,7.8151 7.9683999,10.0241 11.9068999,11.6511 6.4351,2.6582 6.8282,2.9519 7.121,5.3196 0.1529,1.2365 0.7315,3.4086 1.286,4.827 1.5608,3.9934 -4.0607,7.9971 -6.2515,4.4523 -0.3186,-0.5156 -2.428,-0.9375 -4.6875,-0.9375 -2.2594,0 -4.3688,0.4219 -4.6875,0.9375 -0.3186,0.5156 -1.5194999,0.9375 -2.6685999,0.9375 -2.0924,0 -10.9251,8.0253 -10.9251,9.9264 0,3.577 -6.2208,6.9486 -12.8205001,6.9486 -6.9017,0 -7.8864,0.4881 -10.1333,5.0219 -0.5493,1.1083 -2.074,2.1358 -3.4,2.2913 -1.3939,0.1635 -4.3248,2.2319 -6.9743,4.9218 -2.7642,2.8065 -5.3958,4.64 -6.6595,4.64 -1.1491,0 -2.35,0.4219 -2.6687,0.9375 -0.3186,0.5156 -1.5842,0.9375 -2.8125,0.9375 -1.2282,0 -2.4938,0.4219 -2.8125,0.9375 -0.3186,0.5156 -2.8499,0.9375 -5.625,0.9375 -2.775,0 -5.3063,-0.4219 -5.625,-0.9375 z"
       style="fill:#a4a4a4" />
    <path
       id="path5938"
       d="m 927.53677,613.82102 c -5.4431,0.7222 -8.6422,7.0924 -14.6272,7.1449 -6.3892,1.4549 -11.6797,-5.627 -18.0979,-2.8853 -5.3438,1.4233 -8.3524,7.9111 -14.506,6.936 -3.586,1.9727 -3.867,7.2911 -8.5126,8.3323 -4.5588,4.4846 -9.0974,10.0122 -9.2924,16.6947 -4.2165,5.4174 4.6217,8.2034 1.8215,13.9531 -1.2579,4.6746 -4.9272,9.6665 -10.2311,9.6061 -7.5835,0.2262 -2.8325,8.1255 0.3269,10.9737 5.3535,5.1941 -1.1626,12.2008 -0.085,18.4647 -0.2916,5.6977 1.4343,12.7494 7.5757,14.6592 7.5408,4.2277 7.4203,-5.4334 8.519,-10.0345 2.5505,-6.2744 10.0712,-4.0491 14.8962,-6.8214 3.9053,-1.7529 8.0755,-2.2696 11.9082,-3.7774 4.6608,4.6417 -2.6887,8.8364 -1.2111,14.0674 2.1638,3.2233 7.2751,0.2433 10.2015,3.2252 7.5455,1.636 8.4851,-7.1237 8.7377,-12.4336 0.8933,-5.4648 6.0763,-8.7352 7.6315,-13.8085 0.186,-4.4454 7.1405,-4.6453 6.8038,-10.2509 1.6575,-4.5702 1.8847,-9.6391 3.1126,-14.1717 0.8019,-3.0677 5.373,-2.9609 5.4226,-7.1644 2.5115,-4.3876 5.4309,-9.4536 10.6521,-10.7583 5.9567,-4.52 11.0169,-10.4137 14.5693,-16.9942 1.711,-4.9524 -1.8834,-8.8646 -6.916,-8.1466 -4.8614,-1.3119 -8.4385,-5.5711 -13.7822,-5.3175 -4.9844,-0.3808 -9.9499,-0.9531 -14.9172,-1.493 z"
       style="fill:#a4a4a4" />
    <path
       id="path5936"
       d="m 468.98559,713.26722 c -2.6614,-3.315 -3.6609,-5.92 -3.6609,-9.5413 0,-2.0391 -0.4219,-3.9682 -0.9375,-4.2868 -0.5156,-0.3187 -0.9375,-1.5843 -0.9375,-2.8125 0,-1.2283 -0.4219,-2.4939 -0.9375,-2.8125 -0.5156,-0.3187 -0.9375,-2.3608 -0.9375,-4.5378 0,-3.5946 -0.517,-4.47 -5.625,-9.5247 -3.9888,-3.9472 -5.625,-6.2713 -5.625,-7.9898 0,-6.4444 -8.0067,-17.2221 -11.277,-15.1797 -3.6665,2.2897 -7.473,0.7821 -7.473,-2.9599 0,-1.0164 -0.6799,-2.5993 -1.5109,-3.5175 -1.764,-1.9491 2.1549,-6.348 5.7297,-6.4314 3.5355,-0.082 9.087,-2.5553 11.1057,-4.9467 3.7552,-4.4488 8.1,-5.5946 11.0592,-2.9166 0.9281,0.84 3.4926,1.914 5.6988,2.3866 2.2062,0.4727 5.6988,1.3277 7.7613,1.8999 2.0625,0.5723 9.8671,1.2117 17.3437,1.4211 l 13.5938,0.3806 10.6427,-3.4928 c 5.8535,-1.9211 12.0949,-4.4783 13.8698,-5.6827 5.9984,-4.0706 10.0345,-2.5476 7.1664,2.7044 -0.9463,1.7329 -1.8835,5.9342 -2.1477,9.6281 -0.402,5.6201 -0.7358,6.6016 -2.3437,6.8905 -4.0737,0.7317 -8.9063,7.4253 -8.9063,12.3359 0,1.3877 -0.8437,3.2867 -1.875,4.22 -1.0312,0.9332 -1.875,2.1989 -1.875,2.8125 0,2.1117 -3.4272,4.3354 -5.774,3.7464 -1.6652,-0.4179 -2.8394,0.07 -4.5493,1.8901 -1.2677,1.3493 -3.7878,3.1265 -5.6001,3.9494 -4.7029,2.1351 -9.2379,6.646 -11.3805,11.32 -1.0164,2.217 -2.5661,4.2783 -3.4438,4.5806 -4.2159,1.452 -10.5023,10.0445 -10.5023,14.355 0,1.8997 -0.5658,2.7477 -2.1094,3.1613 -2.9781,0.7981 -3.0769,0.7753 -4.5422,-1.0497 z"
       style="fill:#a4a4a4" />
    <path
       id="path5928"
       d="m 672.69599,705.25382 c -2.1179,-2.1857 -2.9963,-3.9821 -2.9963,-6.1311 0,-6.8452 -8.0353,-15.3967 -11.6494,-12.3975 -1.095,0.9084 -2.0728,0.9007 -4.665,-0.036 -2.5547,-0.9237 -3.8194,-0.9407 -5.715,-0.077 -3.7697,1.7176 -9.8184,0.8695 -14.3072,-2.0059 -0.6487,-0.4159 -2.0221,-0.4887 -3.0525,-0.162 -1.8618,0.591 -1.8703,0.1767 -1.6321,-79.8613 l 0.24,-80.4555 115.0781,-0.2381 c 63.2934,-0.1309 115.06498,0.08 115.04808,0.4687 -0.019,0.3888 -0.6487,1.5258 -1.4062,2.5267 -0.7566,1.001 -1.3763,3.6518 -1.3763,5.8911 0,3.5964 -0.3553,4.2823 -3.0469,5.8827 -1.6762,0.9964 -4.5234,3.7446 -6.3281,6.1072 -8.0841,10.5836 -6.6009,9.6582 -16.2019,10.1097 -4.7531,0.2236 -9.76308,0.7158 -11.13278,1.0938 -1.8319,0.5055 -3.195,0.1674 -5.1562,-1.2789 -5.086,-3.7516 -12.3722,-5.7191 -21.18,-5.7191 -4.9004,0 -9.0329,-0.4741 -10.2141,-1.1719 -1.59,-0.9389 -2.07,-0.9373 -2.4122,0.01 -0.2344,0.6489 -1.8965,2.939 -3.6928,5.0891 -2.3616,2.8268 -3.0984,4.447 -2.6587,5.8514 0.5765,1.8456 1.2609,4.5269 3.1865,12.489 0.4678,1.9336 1.3575,4.9922 1.9781,6.7969 0.6207,1.8047 1.4766,5.1797 1.9032,7.5 0.7303,3.9709 1.3293,6.5316 3.7818,16.1718 0.5578,2.1915 1.2254,5.468 1.4841,7.2814 l 0.4706,3.2969 -6.8747,3.1363 c -7.44,3.3942 -16.184,7.6334 -21.4059,10.3773 -3.4687,1.8229 -18.4153,8.5609 -22.6772,10.2235 -2.8894,1.1269 -4.575,5.6897 -7.3228,19.8253 -0.4509,2.3203 -1.2684,6.0117 -1.8159,8.2031 -0.5485,2.1914 -1.4447,5.7773 -1.9932,7.9687 -0.5475,2.1915 -1.365,5.8829 -1.8159,8.2032 -2.6859,13.8156 -2.9616,14.3846 -6.5906,13.5875 -2.9541,-0.6488 -4.1963,0.3398 -8.7047,6.93 -2.0606,3.0125 -3.2297,3.8575 -5.3353,3.8575 -1.4832,0 -2.9569,0.4218 -3.2757,0.9375 -0.3187,0.5156 -2.2218,0.9375 -4.23,0.9375 -3.4068,0 -5.7975,-0.6708 -11.0025,-3.0869 -1.1596,-0.5382 -2.2368,-0.8021 -2.3934,-0.5864 -0.1566,0.2156 -1.0106,1.5522 -1.8984,2.9701 -2.0916,3.3432 -3.3628,3.2501 -7.0107,-0.5133 z"
       style="fill:#a4a4a4" />
    <path
       id="path5926"
       d="m -112.62521,701.80362 c -2.6515,-2.9299 -10.8282,-6.5833 -14.7341,-6.5833 -3.4388,0 -3.566,-0.1151 -3.566,-3.2259 0,-1.7743 -0.4219,-3.4867 -0.9375,-3.8053 -0.5156,-0.3187 -0.9375,-3.4104 -0.9375,-6.8704 l 0,-6.2911 7.0158,0.3543 c 6.6921,0.3379 7.0552,0.2505 7.871,-1.8953 0.4705,-1.2373 1.5321,-2.8113 2.3593,-3.4977 0.8271,-0.6865 1.5039,-1.7639 1.5039,-2.3944 0,-0.6304 0.8438,-1.9097 1.875,-2.8429 1.9786,-1.7907 2.5206,-5.5842 0.9375,-6.5625 -0.5156,-0.3187 -0.9375,-2.85 -0.9375,-5.625 0,-2.7751 0.4219,-5.3064 0.9375,-5.625 0.5156,-0.3187 0.9375,-1.5843 0.9375,-2.8125 0,-1.2283 0.4219,-2.4939 0.9375,-2.8125 0.5156,-0.3187 0.9375,-1.5843 0.9375,-2.8125 0,-1.2283 -0.4219,-2.4939 -0.9375,-2.8125 -0.5458,-0.3374 -0.9375,-5.5801 -0.9375,-12.5474 l 0,-11.9679 -5.6042,-11.0687 c -3.0823,-6.0877 -5.3778,-11.4351 -5.1009,-11.883 1.087,-1.7588 14.4896,-0.9232 17.0118,1.0607 2.97,2.3362 7.675999,2.4005 13.841599,0.1889 4.6647,-1.6731 4.943,-2.0248 6.6954,-8.461 0.2628,-0.965 2.1618,-1.1156 8.543898,-0.6772 4.5134,0.3101 14.9561,0.8684 23.2061,1.2409 l 15,0.6772 0.4688,9.5159 c 0.3652,7.4147 0.8438,9.9293 2.1678,11.3882 1.81,1.9949 1.8074,13.2838 -0.01,30.1896 l -0.7546,7.0313 -12.6562,-0.048 c -6.961,-0.026 -13.5527,-0.378 -14.6483,-0.7817 -1.6577,-0.611 -2.4445,-0.069 -4.6875,3.2273 -4.9672,7.3002 -6.6625,8.6392 -10.1176,7.9911 -4.703498,-0.8825 -5.124198,-0.1151 -8.178698,14.9235 -1.0562,5.2003 -1.0945,7.5615 -0.2628,16.2374 0.8915,9.299 -5.1429,18.9126 -10.1792,16.2172 -1.9079,-1.0211 -2.8848,-0.7579 -8.075799,2.1762 -6.9042,3.9026 -6.8123,3.8874 -8.9875,1.4837 z"
       style="fill:#a4a4a4" />
    <path
       id="path5922"
       d="m 75.696387,684.20472 c -1.7351,-5.6152 -4.2231,-6.9717 -7.368,-4.0173 l -2.393,2.2481 -3.8314,-2.045 c -4.0284,-2.1503 -12.4277,-2.8395 -13.4981,-1.1077 -0.3186,0.5156 -3.0915,0.9375 -6.1618,0.9375 -3.0703,0 -6.3645,0.4884 -7.3204,1.0854 -3.4383,2.1473 -4.2419,1.0236 -7.4505,-10.4188 -0.4747,-1.6925 -1.8847,-2.741 -5.3252,-3.9601 -4.7202,-1.6724 -8.2751,-4.9407 -14.0545999,-12.9214 -1.5468,-2.1361 -3.9158,-5.2327 -5.2644,-6.8814 -1.3486,-1.6486 -3.34410002,-4.6849 -4.4346,-6.7474 -1.0905,-2.0625 -3.2464,-5.4375 -4.7909,-7.5 -8.4478001,-11.2815 -8.6925001,-12.0128 -4.7094001,-14.0726 3.2438001,-1.6774 41.6533,-1.5871 47.7931,0.1124 l 3.2813,0.9083 0.2691,9.7531 c 0.362,13.1156 -1.3004,12.205 22.2819,12.205 l 19.9775,0 2.0567,-2.8883 c 1.7055,-2.3952 1.8718,-3.2356 0.9739,-4.9219 -0.7314,-1.3735 -0.9978,-7.3589 -0.821,-18.4398 l 0.2618,-16.4062 2.5095,-0.2901 c 4.117,-0.4758 4.4591,-1.7811 4.7322,-18.0583 l 0.2583,-15.4016 33.233903,-0.2466 c 31.577,-0.2343 33.3316,-0.3385 35.1973,-2.0912 1.881,-1.7671 3.835,-1.8638 46.4537,-2.3012 24.4696,-0.251 49.5526,-0.5756 55.7401,-0.7213 l 11.25,-0.2647 0,24.2983 0,24.2983 -5.0088,2.5882 c -2.755,1.4235 -5.7413,3.2511 -6.6363,4.0611 -0.8951,0.8101 -2.2898,1.4728 -3.0991,1.4728 -0.8093,0 -3.8776,1.2656 -6.8183,2.8125 -3.2475,1.7083 -6.7598,2.8125 -8.946,2.8125 -1.9798,0 -3.8603,0.4219 -4.179,0.9375 -0.3186,0.5156 -1.5842,0.9375 -2.8125,0.9375 -1.2282,0 -2.4938,0.4219 -2.8125,0.9375 -0.3186,0.5156 -1.5842,0.9375 -2.8125,0.9375 -1.2282,0 -2.4938,0.4219 -2.8125,0.9375 -0.3186,0.5156 -4.056,0.9375 -8.3053,0.9375 -4.8465,0 -8.1539,0.428 -8.8743,1.1484 -0.9062,0.9062 -1.5362,0.9062 -2.9873,0 -1.0114,-0.6316 -3.8696,-1.1484 -6.3516,-1.1484 -2.482,0 -5.0295,-0.5167 -5.6611,-1.1484 -0.9062,-0.9062 -1.5362,-0.9062 -2.9873,0 -1.0114,0.6317 -2.8344,1.1484 -4.0513,1.1484 -2.596,0 -7.4373,2.2599 -9.0791,4.2382 -0.633,0.7627 -1.6532,1.3868 -2.2671,1.3868 -0.6138,0 -2.3286,1.2656 -3.8106,2.8125 -1.6496,1.7219 -3.6457,2.8125 -5.1475,2.8125 -3.1783,0 -11.2616,4.0405 -14.0755,7.0358 -1.2086,1.2866 -3.1538,2.3392 -4.3225,2.3392 -1.1688,0 -2.3858,0.4219 -2.7045,0.9375 -0.3186,0.5156 -2.3672,0.9375 -4.5525,0.9375 -6.0776,0 -14.0509,9.8018 -14.8653,18.2743 -0.1915,1.9919 -1.0174,3.1623 -2.8478,4.0356 -1.4179,0.6765 -2.5781,1.7569 -2.5781,2.4011 0,2.1833 -6.0689,7.164 -8.7293,7.164 -1.4004,0 -3.3663,0.5122 -4.3687,1.1382 -1.5313,0.9563 -2.1758,0.8065 -4.0321,-0.9375 -2.3054,-2.1658 -5.7803,-2.7495 -6.776203,-1.1382 -0.3189,0.5161 -4.4925,0.9375 -9.285,0.9375 -7.515,0 -8.9377,0.2564 -10.4025,1.875 -2.0883,2.3077 -3.1857,2.3745 -3.847,0.2344 z"
       style="fill:#a4a4a4" />
    <path
       id="path5920"
       d="m 843.60587,668.88482 c -2.5781,-0.9801 -6.7031,-1.7836 -9.1678,-1.7857 -4.5075,0 -13.30218,-3.6541 -18.38058,-7.6289 -1.4447,-1.1307 -3.7669,-1.7511 -6.5625,-1.7534 -6.7734,-0.01 -10.4166,-2.7002 -10.4344,-7.7171 0,-2.199 -0.7087,-5.8966 -1.559,-8.2169 -0.8494,-2.3203 -1.8666,-6.5391 -2.2585,-9.375 -0.3918,-2.8359 -1.2047,-7.0547 -1.8056,-9.375 -0.6009,-2.3203 -1.3115,-6.1172 -1.5787,-8.4375 -0.2672,-2.3203 -0.7857,-4.6406 -1.1532,-5.1562 -0.6628,-0.9299 -1.9556,-5.2234 -3.8821,-12.8907 -0.5504,-2.1914 -1.3941,-5.2799 -1.875,-6.8634 -0.4801,-1.5834 -0.8804,-3.9038 -0.8879,-5.1563 0,-1.2524 -0.6956,-4.1756 -1.53,-6.4959 -4.6443,-12.9155 -5.4712,-20.5186 -2.5631,-23.5541 4.8328,-5.0445 23.4563,-3.5374 32.4356,2.6249 2.8603,1.9627 4.1213,2.2769 7.0313,1.7524 1.9509,-0.3515 7.69778,-0.9267 12.77158,-1.278 10.2103,-0.7072 8.9587,0.052 16.5562,-10.0497 1.8047,-2.3996 4.8638,-5.3824 6.7969,-6.6285 3.2212,-2.0756 3.5156,-2.6254 3.5156,-6.559 0,-2.8739 0.6197,-5.0816 1.875,-6.6772 1.0313,-1.311 1.875,-3.1128 1.875,-4.0039 0,-0.8912 2.0578,-3.471 4.5722,-5.733 8.19,-7.3668 9.0525,-7.7489 17.8819,-7.9257 4.4081,-0.088 9.5576,-0.468 11.4426,-0.8442 2.768,-0.5519 3.975,-0.2806 6.256,1.4067 2.743,2.0273 3.929,2.0875 9.084,0.4611 1.25,-0.3942 3.002,0.208 5.156,1.7722 1.794,1.303 4.887,3.4674 6.871,4.8098 3.451,2.3351 3.582,2.6099 3.019,6.3553 -0.324,2.1531 -0.983,6.6568 -1.466,10.0084 -0.481,3.3516 -1.331,8.8359 -1.888,12.1875 -2.112,12.7255 -2.119,14.6311 -0.08,20.3834 1.079,3.0375 1.962,7.5194 1.962,9.9599 0,5.5259 1.9,9.2839 7.155,14.1489 4.928,4.5624 6.448,11.9578 2.571,12.5108 -1.096,0.1564 -3.331,1.9493 -4.967,3.9844 -1.635,2.0351 -3.782,3.7001 -4.771,3.7001 -0.989,0 -3.184,1.2038 -4.877,2.675 -6.219,5.4014 -11.178,6.2321 -17.611,2.95 -6.056,-3.0893 -10.5735,-2.5379 -15.3604,1.875 -3.1022,2.859 -4.8347,3.75 -7.2919,3.75 -3.539,0 -5.4731,1.3693 -5.4731,3.8755 0,0.894 -1.7662,2.8136 -3.9244,4.2657 -5.414,3.6424 -11.0718,11.9825 -11.0737,16.3229 0,2.1782 -0.6647,3.9705 -1.8769,5.0672 -2.5594,2.3158 -2.3812,3.3481 1.0669,6.1824 3.2991,2.7117 3.2822,4.5165 -0.097,9.9894 -2.2734,3.6837 -7.6743,4.0621 -15.5015,1.0864 z"
       style="fill:#a4a4a4" />
    <path
       id="path5916"
       d="m 539.69839,667.82512 c -3.3028,-5.1409 -3.3263,-5.6799 -0.3494,-8.0097 3.3231,-2.6007 3.6957,-5.7273 0.9757,-8.1888 -1.1503,-1.0411 -1.875,-2.8875 -1.875,-4.7776 0,-1.6943 -0.4614,-3.3658 -1.0255,-3.7143 -0.6422,-0.397 -0.7994,-2.082 -0.4207,-4.5085 0.5674,-3.6347 0.6264,-5.4206 0.4299,-13.0153 -0.1181,-4.5644 1.0851,-9.3089 3.0295,-11.9457 2.1266,-2.8839 5.4868,-11.8891 5.4868,-14.7045 0,-1.137 0.4684,-2.3567 1.0408,-2.7105 0.612,-0.3783 0.8275,-1.9574 0.5232,-3.833 l -0.5176,-3.1896 11.8987,0.262 11.8986,0.262 0.2515,22.8931 c 0.2918,26.5765 -0.2093,25.2187 9.4413,25.5845 l 7.1822,0.2724 0.4688,6.5625 0.4687,6.5625 4.6875,2.5961 c 2.9216,1.6181 5.5706,2.4346 7.0313,2.1671 6.3388,-1.1606 10.1184,-2.2462 12.9396,-3.7169 1.9882,-1.0365 4.6713,-1.5124 7.4998,-1.3301 l 4.4043,0.2838 0,7.5 0,7.5 -16.7909,0.2565 c -19.2452,0.2942 -18.3605,0.6223 -24.711,-9.1628 -4.4631,-6.877 -5.3821,-7.5 -11.0625,-7.5 -6.2798,0 -6.8278,0.7928 -7.1602,10.3592 l -0.2754,7.9221 -12.35,0.261 c -9.2347,0.1952 -12.5442,-0.041 -13.12,-0.9375 z"
       style="fill:#a4a4a4" />
    <path
       id="path5912"
       d="m 595.16849,651.84562 c -3.7228,-2.1301 -3.752,-2.191 -4.0254,-8.3672 -0.3384,-7.6454 -0.8527,-8.0975 -9.6103,-8.4475 l -6.9893,-0.2793 -0.2515,-22.8932 c -0.3035,-27.6494 1.0992,-25.2677 -15.0763,-25.5966 l -12.7972,-0.2602 -0.2567,-4.2188 c -0.6275,-10.3134 -9.0034,-18.2456 -18.6201,-17.6339 -5.323,0.3386 -7.5027,5.9318 -3.2075,8.2306 1.403,0.7508 1.928,1.96 1.928,4.4406 0,1.9153 0.7103,4.1937 1.6211,5.2001 1.5365,1.6978 1.5365,1.8387 0,2.6986 -2.5767,1.4419 -2.034,5.202 0.957,6.6304 2.3264,1.1111 2.6062,1.7761 2.8652,6.8113 0.3485,6.7734 -1.2039,10.584 -3.493,8.5742 -0.8149,-0.7154 -3.5909,-2.3579 -6.169,-3.6499 -7.211,-3.6141 -8.3541,-5.429 -9.8738,-15.677 -2.5467,-17.1738 -4.4074,-18.8643 -29.97,-27.2281 -6.9609,-2.2776 -13.9932,-4.9931 -15.6274,-6.0346 -1.634,-1.0415 -5.1357,-3.1592 -7.7814,-4.706 -5.6308,-3.2923 -15.6234,-10.7351 -18.3099,-13.6381 -1.0313,-1.1144 -4.8696,-5.0432 -8.5296,-8.7309 -10.1831,-10.2603 -9.7517,-8.5641 -9.7517,-38.3345 0,-27.5209 -0.064,-27.8903 -4.8197,-27.8903 -1.4133,0 -2.8354,-0.4299 -3.1601,-0.9553 -0.3247,-0.5255 -2.5814,-1.9643 -5.0148,-3.1974 -5.3277,-2.6998 -12.054,-9.7357 -12.7816,-13.37 -0.29,-1.4485 -0.9335,-3.8815 -1.4302,-5.407 -0.4967,-1.5253 -0.5674,-3.109 -0.1572,-3.5192 0.4104,-0.4104 52.403,-0.6389 115.5392,-0.508 l 114.7932,0.2382 0,106.875 0,106.875 -5.625,0.4917 c -3.0938,0.2703 -6.6797,1.0825 -7.9688,1.8047 -1.2891,0.7222 -3.8203,1.6284 -5.625,2.0137 -1.8047,0.3853 -4.125,0.949 -5.1562,1.2526 -1.1117,0.3273 -3.4017,-0.3216 -5.625,-1.5937 z"
       style="fill:#a4a4a4" />
    <path
       id="path5906"
       d="m 432.69969,639.72032 c -0.6187,-0.6187 -1.125,-1.6081 -1.125,-2.1984 0,-2.9194 -6.5268,-5.5723 -7.9687,-3.2391 -1.0833,1.7528 -2.4784,0.9637 -1.842,-1.0419 0.4904,-1.5451 -0.3621,-2.9849 -3.8859,-6.5625 -5.0408,-5.1178 -5.901,-5.3973 -8.3346,-2.7081 -1.1826,1.3067 -2.8876,1.875 -5.625,1.875 -2.7375,0 -4.4425,-0.5683 -5.625,-1.875 -0.9333,-1.0312 -2.2126,-1.875 -2.843,-1.875 -0.6305,0 -1.6642,-0.6241 -2.2972,-1.3868 -3.601,-4.339 -14.2588,-5.7899 -17.3598,-2.3632 -0.9333,1.0313 -2.199,1.875 -2.8125,1.875 -0.6136,0 -1.8793,-0.8437 -2.8125,-1.875 -0.9333,-1.0312 -2.1816,-1.875 -2.7739,-1.875 -0.5924,0 -2.5163,-1.4849 -4.2753,-3.2997 -3.2457,-3.3488 -15.0989,-9.8253 -17.9819,-9.8253 -0.8674,0 -1.8378,-0.4219 -2.1564,-0.9375 -0.9107,-1.4735 -3.8649,-1.1042 -7.5,0.9375 -2.9928,1.6809 -5.076,1.875 -20.1295,1.875 -10.1828,0 -17.0192,0.369 -17.3705,0.9375 -0.3187,0.5156 -4.0561,0.9375 -8.3054,0.9375 -4.759,0 -8.1579,0.432 -8.8509,1.125 -2.8692,2.8692 -3.0078,-1.5041 -2.7705,-87.4267 l 0.2392,-86.667 56,-0.2418 56,-0.2417 1.4219,3.4031 c 0.7821,1.8717 1.4219,4.2162 1.4219,5.2102 0,4.7096 6.4137,12.8014 12.6562,15.9677 2.0625,1.0462 4.4711,2.5356 5.3522,3.3097 0.8813,0.7742 2.9907,1.6912 4.6875,2.0377 l 3.0853,0.6301 0.4688,26.2124 c 0.5432,30.3775 0.062,28.5933 10.6147,39.3067 3.701,3.7571 7.3619,7.5293 8.1353,8.3827 2.2484,2.4809 12.6033,10.1482 17.8412,13.2106 2.6457,1.5469 6.3119,3.7891 8.1471,4.9828 1.8352,1.1936 9.61,4.2457 17.2771,6.7825 15.9265,5.2693 19.9534,7.1405 23.4225,10.8832 2.4446,2.6375 2.9864,4.3687 4.5009,14.3828 1.7285,11.4293 2.5684,12.7294 11.2039,17.3437 4.7115,2.5176 5.2901,3.1567 5.5166,6.0938 0.459,5.9508 1.1053,7.2865 4.4925,9.285 4.2927,2.5328 4.2322,5.814 -0.1235,6.6992 -1.5829,0.3217 -4.1141,1.4787 -5.625,2.5712 -10.1271,7.3228 -37.8523,10.9094 -52.9033,6.8438 -2.3203,-0.6268 -5.4844,-1.3836 -7.0313,-1.682 -1.5468,-0.2983 -3.8186,-1.327 -5.0483,-2.286 -3.8221,-2.9808 -13.8258,-0.8121 -15.4203,3.343 -1.1443,2.9822 -9.5844,5.2665 -11.6876,3.1633 z"
       style="fill:#a4a4a4" />
    <path
       id="path5900"
       d="m 44.093987,638.36452 c -0.3544,-0.3543 -0.6443,-4.9519 -0.6443,-10.2169 0,-10.4636 -0.2311,-10.9641 -5.625,-12.1836 -6.4142,-1.4503 -47.9539,-1.0468 -51.3846,0.4991 l -3.1032,1.3984 -5.803,-6.2444 c -11.6712,-12.5588 -11.1606,-11.443 -10.5256,-23.0016 0.3055,-5.5627 0.7746,-17.4954 1.0421,-26.517 0.5356,-18.0544 0.7237,-18.6657 5.0546,-16.426 1.6478,0.852 5.4312,2.3271 8.4076,3.2779 2.9764,0.9509 8.1104,3.0914 11.4088001,4.7566 10.8731,5.4895 16.4057,6.627 34.5907999,7.1115 14.8636,0.396 16.9539,-0.094 15.2761,-3.5841 -2.1323,-4.4346 -2.5182,-6.1112 -3.3053,-14.3579 -1.279,-13.4013 -0.7695,-26.7771 1.1785,-30.9375 0.4828,-1.0312 0.9913,-4.1953 1.1299,-7.0312 l 0.252,-5.1563 36.5625,0 36.562503,0 0,30.9375 0,30.9375 -11.8609,0.2617 c -14.765703,0.3258 -13.812203,-0.8947 -14.130703,18.0867 l -0.2584,15.4016 -2.5095,0.2901 c -4.2492,0.4911 -4.4693,1.5484 -4.737,22.7517 l -0.2535,20.0833 -18.3401,0.2535 c -10.0871,0.1395 -18.6301,-0.036 -18.9844,-0.3906 z"
       style="fill:#a4a4a4" />
    <path
       id="path5896"
       d="m 952.73137,615.54992 c -3.529,-2.3916 -5.014,-2.7979 -10.275,-2.8125 -9.618,-0.026 -12.529,-3.8838 -5.232,-6.9331 3.605,-1.5063 4.958,-4.259 3.464,-7.0495 -0.543,-1.0168 -0.989,-2.8953 -0.989,-4.1745 0,-1.6005 -1.388,-3.5454 -4.453,-6.2373 -5.692,-5.0009 -6.723,-6.9183 -6.764,-12.5915 -0.02,-2.5438 -0.917,-7.1164 -1.999,-10.1612 -1.302,-3.6681 -1.786,-6.6945 -1.433,-8.9687 0.292,-1.8879 0.992,-6.1747 1.553,-9.5263 0.563,-3.3516 1.243,-8.7305 1.514,-11.9531 0.448,-5.3412 0.682,-5.8594 2.642,-5.8594 1.494,0 2.498,-0.8385 3.287,-2.7447 1.787,-4.3143 4.209,-6.0284 7.569,-5.3565 6.36,1.2719 12.493,-5.2863 10.176,-10.8803 -2.077,-5.0159 8.948,-10.5445 16.233,-8.14 2.728,0.9003 4.104,0.9198 5.939,0.084 1.312,-0.5983 3.75,-1.0878 5.416,-1.0878 1.665,0 4.071,-0.7383 5.346,-1.6406 2.871,-2.0319 8.493,-4.0449 9.522,-3.4092 1.075,0.6648 0.954,3.8847 -0.173,4.581 -0.515,0.3187 -0.937,2.4281 -0.937,4.6875 0,2.2595 0.422,4.3689 0.937,4.6875 1.832,1.1322 -0.238,8.7213 -2.812,10.3125 -2.271,1.4031 -3.75,6.8022 -3.75,13.6825 0,4.0154 -0.422,7.5614 -0.938,7.88 -0.515,0.3187 -0.937,2.4281 -0.937,4.6875 0,2.2595 -0.422,4.3689 -0.938,4.6875 -0.515,0.3187 -0.937,1.5843 -0.937,2.8125 0,1.2283 -0.422,2.4939 -0.938,2.8125 -0.515,0.3187 -0.937,1.3855 -0.937,2.3706 0,0.9851 -0.857,3.3161 -1.903,5.1801 -1.646,2.9282 -1.877,4.8463 -1.709,14.1119 0.131,7.2166 -0.166,11.084 -0.909,11.8271 -0.607,0.6072 -1.104,2.8932 -1.104,5.08 0,2.1868 -0.422,4.2367 -0.938,4.5553 -0.515,0.3187 -0.937,1.5843 -0.937,2.8125 0,1.2283 -0.422,2.4939 -0.938,2.8125 -0.515,0.3187 -0.937,1.4878 -0.937,2.598 0,7.9022 -12.218,12.388 -19.782,7.2629 z"
       style="fill:#a4a4a4" />
    <path
       id="path5888"
       d="m -102.66981,586.43912 c -1.8309,-1.5253 -3.6349,-1.8438 -10.443,-1.8438 -10.7389,0 -15.9375,-4.5783 -15.9375,-14.0357 0,-2.0164 -0.4219,-3.9269 -0.9375,-4.2455 -0.5156,-0.3187 -0.9375,-2.0062 -0.9375,-3.75 0,-1.7439 -0.4219,-3.4314 -0.9375,-3.75 -0.5495,-0.3396 -0.9375,-5.7726 -0.9375,-13.125 0,-7.3525 -0.388,-12.7855 -0.9375,-13.125 -0.5156,-0.3187 -0.9375,-1.9522 -0.9375,-3.63 0,-2.1657 -0.8158,-3.8321 -2.8125,-5.745 -1.5469,-1.482 -2.8125,-3.1968 -2.8125,-3.8106 0,-0.6139 -0.6622,-1.6657 -1.4714,-2.3373 -0.8768,-0.7276 -1.2622,-2.0054 -0.9536,-3.1616 0.7851,-2.9426 -5.3184,-14.4626 -10.2017,-19.2553 l -4.2483,-4.1694 0,-9.461 c 0,-5.2036 -0.3744,-9.8619 -0.8321,-10.3517 -0.4577,-0.4899 -1.1278,-1.8677 -1.4891,-3.062 l -0.657,-2.1713 9.6922,0.5097 c 25.0653,1.318 25.362,1.3651 28.6766,4.5523 l 3.0469,2.9297 5e-4,9.8943 3e-4,9.8941 13.5934,14.2763 c 7.476299,7.8519 13.598599,14.6019 13.604999,15 0.01,0.3981 3.3524,4.3097 7.4353,8.6925 4.0829,4.3828 8.507198,9.1552 9.831598,10.6054 l 2.4081,2.6366 10.0785,-0.4896 c 5.5432,-0.2692 12.9441,-0.7542 16.4464,-1.0777 10.8797,-1.005 10.9759,-0.8453 10.9759,18.2321 0,12.4663 -0.2795,16.033 -1.3241,16.9 -1.3206,1.096 -17.0035,0.9207 -39.2819,-0.4392 -10.240398,-0.6251 -11.893998,-0.025 -11.893998,4.3168 0,2.8903 -0.7158,3.566 -5.625,5.3095 -4.6098,1.6372 -7.613799,1.4269 -10.181999,-0.7126 z"
       style="fill:#a4a4a4" />
    <path
       id="path5880"
       d="m 119.07469,561.47032 c -0.3437,-0.3437 -0.625,-14.6031 -0.625,-31.6875 0,-22.9097 -0.2953,-31.3578 -1.125,-32.1875 -1.6742,-1.6742 -76.054103,-1.6116 -77.445803,0.066 -0.5432,0.6547 -1.1222,3.0805 -1.2866,5.3907 l -0.2988,4.2003 -7.9688,-0.2326 c -31.9400999,-0.9323 -57.3115,-2.9169 -57.8401,-4.5243 -0.1821,-0.5538 0.7952,-2.6632 2.172,-4.6875 1.3767,-2.0243 2.8768,-5.0275 3.3336,-6.6737 0.4567,-1.6463 2.2938,-4.7448 4.0825,-6.8856 1.7886,-2.1409 3.252,-4.5243 3.252,-5.2965 0,-0.7722 0.8438,-2.4767 1.875,-3.7877 1.0313,-1.3111 1.875,-3.3161 1.875,-4.4557 0,-1.1397 0.8438,-2.8356 1.8750001,-3.7689 1.0313,-0.9333 1.875,-2.8347 1.875,-4.2254 0,-1.3907 1.0425,-3.962 2.3166,-5.714 1.2741,-1.7521 3.3375,-4.6621 4.58529998,-6.4668 6.55460002,-9.4801 7.13410002,-9.6707 33.58749992,-11.0498 12.0893,-0.6302 12.986,-0.8111 15.4688,-3.12 3.7494,-3.4866 5.5941,-3.8814 21.8543,-4.6767 7.9922,-0.3908 16.5963,-0.9982 19.1202,-1.3498 2.7472,-0.3826 6.1337,-0.191 8.4375,0.4775 2.116703,0.614 6.590703,1.8957 9.942303,2.8481 3.3516,0.9524 8.4141,2.451 11.25,3.3302 2.8359,0.8792 7.0547,1.9387 9.375,2.3545 2.3203,0.4158 6.1172,1.2308 8.4375,1.811 4.0387,1.0099 8.8449,2.0231 15.9375,3.3599 4.2063,0.7928 6.2272,2.6104 9.0153,8.1085 1.6475,3.2489 2.9386,4.5821 4.8205,4.9783 1.4138,0.2977 3.4142,0.7979 4.4455,1.1118 1.0312,0.3139 7.9921,0.8986 15.4687,1.2994 7.4766,0.4009 17.1797,1.2086 21.5625,1.7951 4.3828,0.5864 19.9922,1.3474 34.6875,1.691 17.829,0.4169 27.5796,1.0081 29.306,1.7768 l 2.5872,1.1522 -0.2435,44.7853 -0.2434,44.7854 -11.7188,0.76 c -6.4453,0.4179 -32.0159,0.9531 -56.8236,1.1893 -43.4851,0.4139 -45.1652,0.496 -46.7859,2.2869 -1.7005,1.879 -38.3681,3.005 -40.1405,1.2325 z"
       style="fill:#a4a4a4" />
    <path
       id="path5878"
       d="m 14.387187,557.40782 c -0.7734,-0.4999 -2.6719,-0.9214 -4.2187,-0.9368 -3.5221999,-0.035 -9.22919992,-2.0027 -16.5993999,-5.7232 -3.1391,-1.5846 -8.1640001,-3.6658 -11.1667001,-4.6251 -3.0026,-0.9592 -6.4211,-2.2687 -7.5966,-2.9101 -5.1122,-2.789 -15.1303,-3.3947 -36.001,-2.1767 l -9.4887,0.5537 -2.23,-2.8607 c -1.2266,-1.5734 -5.491598,-6.3464 -9.477898,-10.6066 -3.9862,-4.2601 -7.2558,-8.0716 -7.2656,-8.4698 -0.01,-0.3982 -5.9242,-6.9268 -13.142899,-14.5079 l -13.125,-13.7839 0,-9.6465 0,-9.6465 -3.207,-3.5018 c -3.5632,-3.8907 -4.2145,-4.0063 -31.8415,-5.651 l -11.1423,-0.6634 -1.6704,-3.1213 c -0.9188,-1.7167 -2.2329,-3.8261 -2.9203,-4.6875 -4.2986,-5.3867 -4.5233,-8.0898 -0.781,-9.3945 2.2965,-0.8005 2.8125,-1.5053 2.8125,-3.8416 0,-3.1263 0.9972,-3.6422 2.8125,-1.4551 2.6138,3.1495 9.887,-2.62 7.7058,-6.1126 -1.38,-2.2097 -1.5078,-7.1452 -0.2058,-7.9499 2.2219,-1.3731 0.9617,-6.64 -2.3588,-9.8583 -3.3901,-3.2858 -7.9537,-11.3579 -7.9537,-14.0685 0,-0.8402 -1.0656,-2.5287 -2.3679,-3.7522 -3.1603,-2.9688 -5.1321,-7.1025 -5.1321,-10.7585 0,-3.2713 -2.0523,-8.0457 -4.2382,-9.8598 -1.6188,-1.3436 -2.0012,-14.4935 -0.4493,-15.4527 0.5156,-0.3186 0.9375,-1.3584 0.9375,-2.3104 0,-2.4656 3.8796,-9.4117 5.8438,-10.4629 0.9109,-0.4875 1.6562,-1.7152 1.6562,-2.7284 0,-2.4721 0.7323,-2.3596 8.6564,1.3298 3.7468,1.7445 10.7147,4.9086 15.4842,7.0313 4.7696,2.1227 12.5742,5.5961 17.3438,7.7188 4.7695,2.1227 11.8359,5.3853 15.7031,7.2501 7.8977,3.8084 9.795,4.029 49.921897,5.802 11.2148,0.4955 29.5664,1.304 40.7812,1.7966 11.2149001,0.4926 24.3828001,1.2308 29.2621001,1.6406 l 8.8714999,0.745 0.7875,3.2813 c 0.4331,1.8047 1.2223,4.9687 1.7537,7.0312 1.0736,4.167 1.0732,4.0962 0.098,15.9576 -0.6043,7.3533 -1.0944,9.0598 -3.7539,13.0696 -1.6825,2.5365 -3.4981,6.2428 -4.0348,8.2361 -0.5368,1.9933 -2.4298,5.2335 -4.2067999,7.2004 -1.7769,1.9669 -3.2308,3.8996 -3.2308,4.2952 0,0.3954 -1.582,2.5442 -3.5156,4.7752 -8.2605,9.5307 -11.4844,14.5816 -11.4844,17.9929 0,0.9769 -0.8437001,2.5398 -1.8750001,3.473 -1.0312,0.9333 -1.875,2.7252 -1.875,3.9819 0,1.2567 -0.8437,3.3576 -1.875,4.6686 -1.0312,1.311 -1.875,3.097 -1.875,3.9688 0,0.8718 -1.0011,2.5256 -2.2246,3.6751 -1.2235,1.1493 -2.954,3.8596 -3.8454,6.0227 -0.8916,2.1631 -1.9955,4.5658 -2.4532,5.3392 -8.528,14.4109 -9.257,14.012 29.1482001,15.9505 9.5390999,0.4815 21.0684999,1.1293 25.6209999,1.4397 l 8.2773,0.5642 -0.5793,6.7259 c -1.0401,12.0756 -0.2584,27.9282 1.8688,37.8978 l 0.65,3.0469 -11.5908,-0.014 c -6.3749,-0.01 -12.2236,-0.4232 -12.997,-0.9231 z"
       style="fill:#a4a4a4" />
    <path
       id="path5872"
       d="m 930.32437,521.31412 c 0,-2.4196 -0.589,-3.1042 -7.172,-8.3266 -5.901,-4.6829 -9.232,-5.8142 -13.051,-4.4333 -2.803,1.0135 -3.462,0.9144 -5.897,-0.8863 -2.242,-1.6575 -3.53,-1.9231 -7.061,-1.4562 -2.375,0.3141 -6.2612,0.828 -8.634,1.1419 l -4.3163,0.5709 0.6357,-2.8908 c 0.3618,-1.6489 0.1265,-4.2964 -0.5485,-6.1621 -1.0556,-2.9198 -0.9478,-3.7738 1.0097,-7.9517 2.6166,-5.5867 0.886,-14.4465 -3.1219,-15.9796 -7.6715,-2.9349 -10.9518,-4.7081 -14.8031,-8.0012 -2.4112,-2.0625 -5.4956,-4.524 -6.8531,-5.4697 -4.3463,-3.028 -9.5616,-14.9395 -8.1956,-18.7174 0.6234,-1.7235 1.1334,-4.1007 1.1334,-5.2828 0,-2.3479 0.3844,-2.3488 9.375,-0.023 7.44,1.9247 13.5956,2.1262 16.6528,0.5449 6.4003,-3.3094 11.1281,-4.3063 20.4859,-4.3197 7.811,-0.011 9.878,-0.3217 11.719,-1.7597 6.653,-5.1954 18.958,1.9645 28.781,16.746 1.886,2.8359 4.805,6.4716 6.488,8.0794 2.37,2.2631 3.061,3.7006 3.061,6.3655 0,1.8933 0.844,5.0961 1.875,7.1176 1.031,2.0214 1.875,4.7705 1.875,6.1092 0,1.4543 1.069,3.4504 2.659,4.9593 6.331,6.0154 7.272,18.9315 1.377,18.9315 -5.783,0 -10.016,4.964 -9.151,10.7313 0.744,4.965 -1.705,7.6393 -6.176,6.7449 -3.372,-0.6744 -7.833,1.2824 -9.34,4.096 -1.38,2.5785 -2.807,2.3353 -2.807,-0.4785 z"
       style="fill:#a4a4a4" />
    <path
       id="path5870"
       d="m 628.87909,519.67342 c -0.2466,-0.6445 -0.3394,-21 -0.2053,-45.2343 l 0.2447,-44.0625 28.515,-0.2484 c 33.1575,-0.2888 30.855,0.4774 31.215,-10.384 l 0.27,-8.1177 7.0312,0.213 c 3.8672,0.117 10.5094,0.4654 14.76,0.7742 6.5513,0.4759 8.5509,0.2507 13.125,-1.4775 2.9681,-1.1213 7.0838,-2.6627 9.1463,-3.4249 2.0625,-0.7624 4.3828,-1.9362 5.1562,-2.6083 0.7734,-0.6721 3.0263,-2.0393 5.0063,-3.038 2.4581,-1.2399 4.3912,-3.2736 6.0937,-6.4099 5.2744,-9.7165 12.2138,-11.02 24.5916,-4.6193 3.5531,1.8375 6.7968,1.7282 10.9865,-0.37 1.9125,-0.9581 4.5638,-2.002 5.8903,-2.32 1.3266,-0.3179 3.9825,-1.6433 5.9016,-2.9455 5.5369,-3.7576 8.2613,-3.2858 7.5272,1.3038 -0.5363,3.3563 -0.2606,4.02 3.2072,7.7344 l 3.794,4.063 2.7094,-1.5951 c 9.13778,-5.3811 16.40348,-5.0395 13.37058,0.6286 -0.6984,1.3035 -1.0921,2.4983 -0.8765,2.6552 0.2156,0.1567 1.5515,1.0109 2.97,1.8979 1.6725,1.0462 2.5781,2.4201 2.5781,3.91 0,1.2634 0.8934,4.3122 1.9856,6.7752 6.4116,14.4609 6.1172,14.0233 11.3203,16.8163 5.4188,2.9085 5.8538,4.4757 4.0172,14.4664 -0.8962,4.8766 5.6035,17.7166 10.5741,20.8883 1.9303,1.2315 4.4597,3.2673 5.6212,4.524 1.1616,1.2567 4.7475,3.4674 7.9688,4.9128 3.2212,1.4454 6.4294,2.9015 7.1287,3.2358 2.9682,1.4176 4.0979,8.1974 2.0382,12.2345 -2.1544,4.2229 -2.3935,7.3307 -0.8288,10.7657 1.246,2.7352 -0.1669,5.2282 -2.9634,5.2282 -1.8197,0 -6.855,3.6727 -14.46,10.5469 l -4.9266,4.4531 -115.01718,0 c -91.1493,0 -115.11,-0.2432 -115.4662,-1.1719 z"
       style="fill:#a4a4a4" />
    <path
       id="path5864"
       d="m 967.00637,496.03282 c -1.613,-2.3892 -2.938,-5.0611 -2.946,-5.9376 -0.03,-3.3682 -2.682,-9.0322 -5.031,-10.7431 -1.497,-1.0901 -2.455,-2.6871 -2.455,-4.091 0,-1.2667 -0.784,-3.8682 -1.744,-5.7812 -3.614,-7.2134 -3.363,-14.3558 0.798,-22.6971 0.733,-1.467 3.24,-1.5442 12.948,-0.399 3.104,0.3663 6.008,0.1565 7.735,-0.5588 5.407,-2.2399 8.495,8.3374 3.701,12.6765 -3.147,2.8485 -2.452,7.0255 1.875,11.25 3.134,3.0606 3.75,4.2749 3.75,7.3955 0,2.3734 0.651,4.4388 1.789,5.6691 3.207,3.4675 3.049,10.9806 -0.249,11.8789 -1.474,0.4012 -3.372,1.341 -4.219,2.0883 -0.847,0.7474 -3.227,1.5676 -5.29,1.8228 -2.062,0.2551 -4.645,0.7579 -5.74,1.1172 -1.639,0.5382 -2.507,-0.1128 -4.922,-3.6905 z"
       style="fill:#a4a4a4" />
    <path
       id="path5858"
       d="m 271.83039,462.03672 c -0.3964,-0.3974 -12.8153,-1.0038 -27.5976,-1.3474 -14.7823,-0.3436 -30.4628,-1.1046 -34.8456,-1.691 -4.3828,-0.5865 -14.0859,-1.4143 -21.5625,-1.8396 -19.3683,-1.1019 -20.5626,-1.4535 -23.5235,-6.9269 -3.9634,-7.3267 -3.9891,-7.3412 -17.7265,-10.0115 -2.3203,-0.451 -6.1172,-1.2948 -8.4375,-1.875 -2.3203,-0.5802 -6.1172,-1.3952 -8.4375,-1.811 -2.3203,-0.4157 -6.5391,-1.4753 -9.375,-2.3545 -2.8359,-0.8792 -7.8984,-2.3778 -11.25,-3.3302 -3.3516,-0.9524 -7.8133,-2.23 -9.915003,-2.8392 -2.3196,-0.6723 -6.0038,-0.8667 -9.375,-0.4947 -3.0546,0.337 -12.0928,0.9337 -20.085,1.3261 -15.7052,0.7709 -19.64,1.6487 -23.3669,5.2131 -2.2513,2.1531 -3.2372,2.3392 -14.6018,2.7554 -6.7032,0.2456 -14.2421,0.7378 -16.7533,1.0941 -2.5111,0.3561 -4.3997,0.2847 -4.1971,-0.1589 0.2028,-0.4435 1.26,-2.7049 2.3495,-5.0252 1.0895,-2.3203 2.671,-5.6953 3.5146,-7.5 0.8436,-1.8047 2.4737,-4.7578 3.6225,-6.5625 1.5428,-2.4236 2.2765,-5.4864 2.8073,-11.7188 1.04,-12.213 1.0178,-13.6132 -0.29,-18.2812 -0.6501,-2.3203 -1.2234,-8.2266 -1.274,-13.125 l -0.092,-8.9063 23.4375,-0.623 c 36.5193,-0.9709 45.9829,-2.4653 53.0715,-8.38 7.417603,-6.1893 8.478003,-6.4657 24.806103,-6.4657 l 14.5081,0 4.0904,-3.7704 4.0904,-3.7704 38.7792,0.3127 c 29.1396,0.235 39.828,0.6281 42.9981,1.5814 2.7192,0.8177 11.883,1.4636 25.7812,1.8171 l 21.5625,0.5483 0,57.1095 c 0,55.4134 -0.1978,59.5724 -2.713,57.0507 z"
       style="fill:#a4a4a4" />
    <path
       id="path5856"
       d="m 943.09937,447.01722 c -4.785,-7.2684 -11.765,-14.303 -16.525,-16.6528 -1.804,-0.8911 -4.021,-2.2688 -4.924,-3.0614 -0.905,-0.7928 -3.225,-1.6975 -5.157,-2.0106 -7.136,-1.1565 -11.751,-16.9517 -6.794,-23.2538 3.236,-4.1132 2.686,-13.6135 -0.937,-16.1933 -1.578,-1.1235 -2.813,-2.8566 -2.813,-3.9478 0,-3.1478 -8.546,-11.0522 -11.9491,-11.0522 -5.8725,0 -6.7828,-1.9372 -6.9843,-14.8706 -0.1444,-9.2771 -0.4969,-11.9921 -1.7682,-13.6077 -0.8728,-1.11 -1.8178,-4.1215 -2.1,-6.6919 -1.2,-10.9473 -2.1872,-14.5455 -4.71,-17.1791 -4.7512,-4.9592 -9.2906,-24.4759 -4.8318,-20.7757 0.7734,0.6419 1.4062,1.8944 1.4062,2.7832 0,1.935 2.55,7.2564 3.8672,8.0705 0.5147,0.3181 1.3209,1.5922 1.7925,2.8311 0.5925,1.5576 1.5872,2.2527 3.2231,2.2527 1.3585,0 2.3672,0.5377 2.3672,1.2609 0,1.9133 3.4894,4.6648 5.1216,4.0385 1.9134,-0.7345 1.8815,-6.0711 -0.047,-8.2053 -0.8916,-0.9855 -1.2534,-2.3951 -0.9,-3.509 0.525,-1.6535 1.0762,-1.3431 4.9286,2.7757 5.575,5.9603 10.329,8.4174 11.962,6.1832 0.986,-1.3475 1.378,-1.0658 3.157,2.266 2.105,3.9435 2.731,10.5841 1.093,11.5962 -0.516,0.3187 -0.938,1.5843 -0.938,2.8125 0,1.2283 0.422,2.4939 0.938,2.8125 0.516,0.3187 0.937,1.7373 0.937,3.1526 0,6.1221 8.191,17.4371 13.102,18.0978 1.285,0.1729 2.805,1.2878 3.407,2.4997 1.311,2.6391 5.283,4.8437 8.727,4.8437 3.669,0 10.389,7.7624 10.389,11.9993 0,1.9977 3.943,5.8022 7.969,7.6903 4.628,2.1698 7.031,4.7933 7.031,7.6741 0,4.5479 3.854,10.1363 6.99,10.1363 3.367,0 4.26,1.8496 4.26,8.8198 0,6.1519 0.199,6.7811 3.118,9.8906 l 3.117,3.3208 -0.4,8.2032 c -0.279,5.6955 -0.758,8.2031 -1.567,8.2031 -0.64,0 -1.959,0.878 -2.93,1.951 -1.484,1.6393 -2.48,1.8641 -6.239,1.4063 -14.303,-1.742 -13.575,-1.7563 -15.639,0.3079 -1.077,1.0779 -1.96,2.7097 -1.96,3.6262 0,1.9328 -2.52,5.8336 -3.77,5.8336 -0.469,0 -2.726,-2.8477 -5.018,-6.3281 z"
       style="fill:#a4a4a4" />
    <path
       id="path5852"
       d="m 866.57467,435.49862 c -1.2891,-0.4248 -4.2422,-1.2997 -6.5625,-1.9442 -2.3203,-0.6445 -4.8037,-1.6232 -5.5181,-2.1748 -0.7144,-0.5517 -3.6675,-2.2687 -6.5625,-3.8156 -4.171,-2.2288 -5.6813,-3.688 -7.2788,-7.0312 -4.3134,-9.027 -5.9531,-13.2608 -5.9531,-15.3674 0,-1.2057 -0.8437,-3.2649 -1.875,-4.5759 -1.0312,-1.311 -1.875,-3.4773 -1.875,-4.8139 0,-2.7872 -2.9672,-6.1803 -5.4037,-6.1803 -0.9094,0 -3.96288,0.8438 -6.78378,1.875 -8.1844,2.9915 -13.9397,0.372 -11.4047,-5.1911 0.6009,-1.3184 1.0922,-4.4923 1.0922,-7.0532 0,-2.5609 0.5278,-5.5071 1.1719,-6.547 1.5178,-2.4487 -0.2072,-3.6742 -5.2003,-3.6944 -3.0038,-0.012 -3.8072,-0.4671 -5.1563,-2.92 -3.8372,-6.9825 -7.4569,-12.0072 -12.4978,-17.3499 -5.8969,-6.2494 -6.9966,-8.8649 -5.9728,-14.2001 0.7472,-3.8898 0.9909,-15.5827 0.3862,-18.513 -0.3525,-1.7051 0.038,-1.8488 4.3004,-1.5859 17.0381,1.0508 37.31998,1.1073 38.52458,0.1073 0.9169,-0.7608 1.3191,-3.2144 1.3191,-8.0424 0,-12.9352 6.5138,-20.8767 17.1713,-20.9336 1.4512,-0.01 3.4575,-0.4521 4.4578,-0.9872 1.8928,-1.0129 7.3931,0.3873 13.0847,3.3303 1.4812,0.766 3.5521,1.3927 4.6021,1.3927 2.6157,0 4.7429,5.3918 4.7607,12.0676 0.019,7.3258 2.7984,15.1518 7.0359,19.8074 1.1728,1.2891 2.3747,4.0313 2.67,6.0938 0.2962,2.0625 0.8794,6.3564 1.2966,9.5419 0.4537,3.4668 1.4653,6.5733 2.52,7.7382 1.4756,1.6305 1.5843,2.3329 0.675,4.3303 -1.3341,2.9267 -1.4232,8.5395 -0.1491,9.3271 0.5156,0.3186 0.9375,3.0919 0.9375,6.1628 0,6.122 2.8903,9.2942 8.4769,9.3024 2.8793,0 9.7603,6.7689 10.6143,10.4353 0.316,1.3547 1.634,3.1575 2.929,4.006 3.08,2.0186 3.343,8.8535 0.48,12.4939 -3.138,3.9893 -2.634,13.6818 1.106,21.2665 4.124,8.3624 3.504,8.9851 -8.955,9.003 -9.3065,0.013 -14.1037,1.0131 -20.3428,4.2393 -2.8472,1.4724 -8.3184,1.6531 -12.1209,0.4003 z"
       style="fill:#a4a4a4" />
    <path
       id="path5850"
       d="m 278.25609,429.67672 c -0.2474,-0.6463 -0.3401,-24.3783 -0.2062,-52.7376 l 0.2436,-51.5625 7.9687,-0.7629 c 4.3828,-0.4195 19.5703,-1.1476 33.75,-1.618 44.4528,-1.4746 47.3969,-1.6998 49.2686,-3.768 1.53,-1.6907 3.0351,-1.8199 21.1948,-1.8199 l 19.5479,0 29.9887,-15 c 32.6925,-16.3524 37.0876,-17.6854 44.9338,-13.628 3.7052,1.916 10.5215,4.2231 12.5254,4.2393 1.9545,0.016 8.8429,3.3414 11.1858,5.4001 1.6592,1.4579 5.7817,2.5778 14.7925,4.0182 2.8359,0.4534 7.0547,1.1595 9.375,1.5692 l 4.2188,0.7449 0,62.8125 0,62.8125 -129.1688,0.2377 c -102.8404,0.1893 -129.2604,0 -129.6186,-0.9375 z"
       style="fill:#a4a4a4" />
    <path
       id="path5848"
       d="m 540.94969,430.22032 c -0.976,-0.976 -0.752,-158.75 0.2253,-158.75 0.4677,0 4.0599,3.0586 7.9826,6.7969 11.7798,11.2259 18.6906,17.2654 21.1671,18.4983 3.6249,1.8045 15.1172,9.489 18.5483,12.4024 1.6936,1.4382 3.7041,2.6149 4.4675,2.6149 0.7634,0 6.3385,2.4537 12.3893,5.4526 6.0506,2.999 12.8996,5.9807 15.2199,6.6261 2.3203,0.6453 5.5144,1.5666 7.0978,2.0474 5.5041,1.6707 22.8863,1.0607 28.5272,-1.0011 2.8209,-1.0312 5.2819,-1.875 5.4684,-1.875 0.1866,0 3.1454,-2.7088 6.5757,-6.0197 7.0472,-6.8016 23.744,-18.3553 26.5265,-18.3553 1.9182,0 6.8306,-2.2222 9.2419,-4.1807 0.7734,-0.6281 3.8063,-1.874 6.7397,-2.7686 2.9334,-0.8947 5.8322,-2.2283 6.4425,-2.9636 0.6103,-0.7354 2.5969,-1.3371 4.4137,-1.3371 3.0919,0 12.2672,-5.0027 13.8385,-7.546 0.869,-1.406 13.2562,-7.454 15.2672,-7.454 1.9415,0 3.9234,3.5553 3.9234,7.0388 0,2.1629 5.0081,9.1575 11.7422,16.3987 1.6781,1.8047 3.7959,4.7578 4.7062,6.5625 0.9103,1.8047 2.4825,4.4006 3.4941,5.7687 3.4809,4.7094 4.5075,13.9972 3.0009,27.159 -0.7284,6.3675 1.0847,10.5585 7.05,16.2911 4.1775,4.0155 8.3044,9.682 11.2369,15.43 1.9153,3.7539 3.3928,4.7262 7.1813,4.7262 4.6247,0 2.7787,7.8226 -2.0053,8.4988 -2.0625,0.2916 -5.3907,1.6627 -7.3969,3.0469 -2.0053,1.3842 -4.2085,2.5168 -4.8966,2.5168 -0.6872,0 -3.1697,0.9325 -5.5153,2.0723 -3.7978,1.8448 -4.5984,1.9382 -7.2909,0.8505 -13.8516,-5.5948 -16.8703,-5.9473 -22.7128,-2.6516 -2.5491,1.4377 -4.5975,3.6902 -6.3957,7.0314 -1.9434,3.6096 -3.6872,5.4403 -6.5625,6.8889 -2.1543,1.0851 -4.4934,2.4361 -5.1975,3.0022 -0.705,0.566 -2.6034,1.5277 -4.2187,2.1372 -1.6163,0.6094 -5.3728,2.0279 -8.3485,3.1522 -4.4831,1.6942 -6.57,1.947 -12.1875,1.4767 -26.1834,-2.1925 -24.8503,-2.6623 -25.2515,8.8994 l -0.2756,7.9221 -28.695,0.2476 c -27.2663,0.2354 -28.7785,0.3404 -30.3797,2.1094 -1.7035,1.8829 -83.3127,3.0682 -85.1441,1.2367 z"
       style="fill:#a4a4a4" />
    <path
       id="path5840"
       d="m 1.8464871,375.80202 c -0.4044,-0.4059 -9.9825,-1.0544 -21.2848001,-1.4411 -72.805698,-2.4911 -82.269197,-3.2625 -90.861997,-7.4061 -6.5993,-3.1824 -11.6825,-5.4825 -33.0469,-14.954 -4.7695,-2.1144 -11.8359,-5.384 -15.7031,-7.2656 l -7.0312,-3.4211 -0.276,-7.9635 c -0.1518,-4.38 -0.6792,-8.3667 -1.1719,-8.8594 -0.4928,-0.4928 -0.8959,-1.661 -0.8959,-2.5961 0,-0.9351 -0.4561,-2.4328 -1.0135,-3.3282 -0.7966,-1.2793 -0.3952,-2.8023 1.875,-7.1136 1.5887,-3.0173 2.8885,-6.6352 2.8885,-8.0397 0,-1.512 0.9562,-3.4522 2.3438,-4.7558 l 2.3437,-2.2018 0,2.3196 c 0,1.2759 -0.4977,2.8174 -1.1061,3.4258 -0.8399,0.8399 -0.846,1.6181 -0.025,3.2343 0.5946,1.1706 1.1978,3.8124 1.3405,5.8706 0.3653,5.2665 10.1033,4.9329 10.1033,-0.3461 0,-1.8861 3.7639,-9.6843 5.8464,-12.1126 0.7527,-0.8778 1.6329,-2.3407 1.9559,-3.2507 0.3229,-0.9102 1.5646,-2.0263 2.7591,-2.4805 1.1946,-0.4542 2.7336,-1.5025 3.42,-2.3297 0.6865,-0.8271 2.2263,-1.5039 3.4218,-1.5039 1.1955,0 2.4344,-0.4219 2.7531,-0.9375 0.3186,-0.5156 1.3334,-0.9375 2.255,-0.9375 2.8398,0 6.9308,-2.5293 11.2995,-6.9862 2.2988,-2.3451 4.6191,-4.2645 5.1563,-4.2653 0.5372,-8e-4 2.5638,-1.6883 4.5036,-3.75 1.9399,-2.0617 4.1031,-3.7485 4.8072,-3.7485 0.704,0 1.797999,-0.6241 2.430999,-1.3868 1.464,-1.764 6.3876,-4.2382 8.4342,-4.2382 0.8622,0 2.5343,-1.029 3.7157,-2.2866 1.872,-1.9926 2.7204,-2.2188 6.5991,-1.7594 2.822498,0.3343 4.689198,0.1419 5.101898,-0.5259 0.8069,-1.3056 4.9096,-1.3888 5.6965,-0.1156 0.3186,0.5156 3.6936,0.9375 7.5,0.9375 3.8063,0 7.1813,-0.4219 7.5,-0.9375 0.3186,-0.5156 1.5196,-0.9375 2.6686,-0.9375 1.2666,0 3.9075,-1.8459 6.7064,-4.6875 l 4.617,-4.6875 7.1568,0 c 9.4629,0 15.9839,-3.4224 16.9698,-8.9062 0.3845,-2.1386 10.4893001,-3.3296 12.3617001,-1.4572 1.6109,1.6109 7.8064,1.1288 11.3947,-0.8866 2.2006,-1.236 5.0759999,-1.875 8.4374999,-1.875 3.3615,0 6.2369,-0.639 8.4375,-1.875 1.8361,-1.0312 3.8716,-1.875 4.5234,-1.875 0.6517,0 4.9631,-1.8974 9.5808,-4.2165 4.6176,-2.319 8.7122,-4.2174 9.0989,-4.2187 1.0188,0 0.8679,102.9059 -0.1558,106.3374 -0.4725,1.5835 -1.7382,5.6766 -2.8125,9.0959 -1.0745,3.4192 -1.9536,7.0529 -1.9536,8.0748 0,2.4408 -7.8976,9.6983 -12.6562,11.6305 -2.0625,0.8375 -5.5257,2.2594 -7.6959,3.1597 l -3.9458,1.6369 -0.2729,6.6718 -0.2729,6.672 -7.5434,0.2691 c -4.1487999,0.1481 -7.8740999,-0.063 -8.2784999,-0.4687 z"
       style="fill:#a4a4a4" />
    <path
       id="path5838"
       d="m 28.449687,362.60422 c 0,-0.4474 2.1318,-1.8119 4.7374,-3.0322 5.5299,-2.5902 12.1316,-9.3148 12.1513,-12.3777 0.01,-1.1716 0.6962,-4.0287 1.5305,-6.349 3.3296,-9.2604 3.5031,-12.0689 4.0246,-65.1562 l 0.525,-53.4375 111.562503,0 111.5625,0 0.2452,36.7411 0.2452,36.7413 -3.5264,3.4402 c -1.9396,1.8921 -4.4989,3.8139 -5.6874,4.2708 -1.901,0.7306 -2.1265,1.3667 -1.875,5.2873 l 0.2858,4.4568 4.3785,0.2826 c 6.33,0.4088 6.4904,0.8419 6.1941,16.7194 l -0.2601,13.9355 -21.0937,-0.065 c -15.0228,-0.046 -22.3079,-0.4341 -25.3125,-1.3491 -3.2133,-0.9785 -13.7708,-1.3588 -44.2966,-1.5958 l -40.0777,-0.3113 -4.0896,3.7696 -4.0896,3.7696 -13.9576,0.014 c -16.2591,0.016 -18.7574,0.6641 -25.814403,6.6931 -5.2975,4.5259 -5.0711,4.4553 -20.9558,6.536 -9.7154,1.2728 -46.4062,2.0758 -46.4062,1.0156 z"
       style="fill:#a4a4a4" />
    <path
       id="path5826"
       d="m 628.44969,322.99862 c -1.2891,-0.4248 -4.2422,-1.3012 -6.5625,-1.9477 -2.3203,-0.6464 -9.1693,-3.629 -15.2199,-6.628 -6.0508,-2.9989 -11.5889,-5.4526 -12.3072,-5.4526 -0.7182,0 -1.8451,-0.6498 -2.5041,-1.4438 -1.2731,-1.5341 -14.7779,-10.6444 -18.7188,-12.6278 -2.5419,-1.2793 -9.3871,-7.3108 -23.6691,-20.8558 l -9.1378,-8.6663 0,-65.8594 c 0,-41.9058 0.3278,-65.8594 0.9062,-65.8594 0.5,0 2.4112,0.8438 4.2473,1.875 1.9443,1.0921 5.076,1.875 7.5,1.875 2.424,0 5.5556,0.7829 7.5,1.875 1.8361,1.0313 4.3316,1.875 5.5457,1.875 2.242,0 5.2355,3.4041 5.2355,5.9536 0,4.0129 5.1784,9.0464 9.3068,9.0464 0.8758,0 2.805,1.2656 4.287,2.8125 1.482,1.5469 3.6048,2.8125 4.7176,2.8125 1.1127,0 2.7866,0.8438 3.7199,1.875 1.8735,2.0702 16.6323,2.847 17.8125,0.9375 0.3186,-0.5156 1.5356,-0.9375 2.7047,-0.9375 1.1681,0 3.1471,-1.0994 4.3978,-2.4432 1.2497,-1.3438 3.2222,-2.8099 4.3818,-3.258 1.3969,-0.5396 2.1094,-1.5957 2.1094,-3.1265 0,-1.2714 0.4219,-2.5724 0.9375,-2.891 0.5156,-0.3187 0.9375,-1.7553 0.9375,-3.1926 0,-2.9414 2.1478,-7.7446 4.2385,-9.4798 0.7621,-0.633 1.3865,-1.7321 1.3865,-2.4424 0,-2.4205 2.5885,-1.299 5.7506,2.4912 1.7354,2.0805 6.2072,7.2485 9.9366,11.4844 3.7284,4.2359 9.5372,10.8657 12.9066,14.7329 7.3331,8.4161 18.1959,20.8177 23.6128,26.9572 l 3.9253,4.4491 18.0694,0.4687 18.0684,0.4688 0.6375,3.1225 c 0.3506,1.7173 1.6894,4.2485 2.9747,5.625 3.5297,3.7782 4.9528,15.7575 3.0403,25.5817 -1.0528,5.4043 3.0291,11.2607 13.4709,19.3275 2.8322,2.1883 3.8363,5.4199 4.156,13.3745 l 0.1697,4.2188 -7.1935,3.753 c -3.9562,2.0642 -8.175,4.6031 -9.375,5.6419 -4.874,4.2194 -8.3512,6.0738 -11.3925,6.0738 -1.7559,0 -4.1981,0.7642 -5.4281,1.6982 -1.23,0.9339 -4.3706,2.3691 -6.9806,3.1893 -2.61,0.82 -6.36,2.5871 -8.3344,3.9268 -1.9734,1.3396 -4.6537,2.4357 -5.9559,2.4357 -3.2841,0 -19.9482,11.2193 -27.4003,18.4479 -9.0919,8.8174 -26.2594,12.7086 -38.4085,8.7054 z"
       style="fill:#a4a4a4" />
    <path
       id="path5824"
       d="m 278.51599,321.53662 c -2.1076,-2.1075 2.9667,-9.7538 6.473,-9.7538 4.2379,0 7.2548,-8.276 3.8513,-10.5648 l -2.1093,-1.4185 2.1866,-2.3541 c 4.1347,-4.4515 2.6043,-6.7108 -4.7648,-7.0336 l -6.3281,-0.2772 0,-49.5915 0,-49.5915 2.0836,-1.4594 c 1.146,-0.8027 2.7766,-1.4594 3.6235,-1.4594 0.8471,0 2.6815,-0.8978 4.0766,-1.9953 2.1704,-1.7072 2.8875,-1.8352 4.9678,-0.8874 1.844,0.8402 3.06,0.8473 5.0348,0.029 2.2144,-0.9171 3.1715,-0.7591 6.4025,1.0568 l 3.7989,2.1351 2.176,-2.0442 c 2.8212,-2.6505 8.3858,-2.7313 11.643,-0.1692 1.3111,1.0313 3.1456,1.875 4.0769,1.875 0.9313,0 1.954,0.4219 2.2727,0.9375 1.191,1.9271 2.9671,0.8168 4.8736,-3.0469 1.9924,-4.0376 7.9732,-11.1123 16.9232,-20.0189 2.7071,-2.6938 4.9219,-5.5179 4.9219,-6.2757 0,-1.2794 2.4677,-3.6558 10.7403,-10.3427 3.0794,-2.489 3.7028,-2.6263 10.0989,-2.2234 16.5911,1.045 24.5035,5.7894 28.2988,16.9685 0.8329,2.453 2.1409,5.6718 2.9068,7.153 0.766,1.4811 1.3927,4.0005 1.3927,5.5986 0,1.5981 0.6739,4.2087 1.4975,5.8014 0.914,1.7677 1.2838,3.9642 0.9489,5.6383 -0.3597,1.7989 0.093,3.9992 1.315,6.3953 1.2856,2.5198 1.8636,5.5152 1.8636,9.6575 0,4.5851 0.4433,6.5682 1.875,8.3884 1.0981,1.3959 1.875,3.8032 1.875,5.8095 0,7.7394 4.8248,16.4346 9.1192,16.4346 0.7515,0 2.439,0.8438 3.75,1.875 1.3111,1.0313 3.0861,1.875 3.9448,1.875 2.102,0 3.811,1.841 3.811,4.1053 0,1.0205 0.3953,3.151 0.8783,4.7344 0.4831,1.5835 1.5285,5.1134 2.323,7.8443 1.8919,6.5023 8.3187,12.8413 18.1815,17.9329 4.4314,2.2877 10.9105,8.9479 10.0535,10.3345 -0.3596,0.5819 -14.1165,7.7918 -30.5707,16.022 l -29.9168,14.9641 -20.0166,0 c -18.6176,0 -20.1316,0.127 -21.6621,1.8182 -1.8829,2.0807 -5.1361,2.3353 -48.3326,3.7836 -14.1797,0.4754 -28.9507,1.1267 -32.8243,1.4476 -3.8738,0.3207 -7.3542,0.2721 -7.7344,-0.1081 z"
       style="fill:#a4a4a4" />
    <path
       id="path5814"
       d="m 790.63719,311.79932 c -0.7734,-0.5069 -3.3806,-0.9281 -5.7928,-0.936 -4.6294,-0.015 -6.8709,-2.2148 -11.626,-11.4088 -0.8128,-1.573 -4.6096,-6.4948 -8.4365,-10.9373 -4.3341,-5.0322 -6.9572,-8.8977 -6.9572,-10.2538 0,-1.1972 -0.8437,-3.8305 -1.875,-5.8519 -1.0312,-2.0215 -1.875,-4.4516 -1.875,-5.4002 0,-0.9487 -0.3487,-2.1256 -0.7744,-2.6155 -0.7781,-0.8949 -2.4318,-6.2 -3.4068,-10.9313 -0.2879,-1.3975 -1.62,-3.2959 -2.9597,-4.2188 -9.436,-6.499 -14.685,-14.2343 -12.6657,-18.6662 0.5813,-1.2753 1.0566,-3.6911 1.0566,-5.3685 0,-1.6772 0.5016,-3.5515 1.1156,-4.165 0.8625,-0.8623 0.6497,-1.9445 -0.9375,-4.7683 -1.1297,-2.0091 -2.0531,-4.7408 -2.0531,-6.0707 0,-1.3496 -1.2422,-3.833 -2.8125,-5.621 -7.4334,-8.4659 -2.6259,-18.1147 12.87,-25.8327 11.1347,-5.5457 28.38,-5.2116 28.38,0.5499 0,1.133 0.4219,2.3208 0.9375,2.6395 0.5156,0.3187 0.9375,1.3334 0.9375,2.2551 0,2.5271 2.7834,7.5887 4.1728,7.5887 2.3091,0 3.8053,2.7685 2.5678,4.7508 -2.7037,4.329 6.975,15.8742 13.3078,15.8742 0.7275,0 3.6882,1.2435 6.5775,2.7635 3.3779,1.7768 6.9835,2.8647 10.0979,3.0469 5.4178,0.3169 7.8365,2.9916 8.445,9.3406 0.2737,2.8584 0.5962,3.155 3.71618,3.4152 1.8956,0.1582 4.1513,1.0972 5.0672,2.1094 1.1297,1.2485 2.8772,1.8244 5.5369,1.8244 4.3275,0 6.1359,1.2559 6.1359,4.2609 0,3.1435 3.4125,5.7757 5.6644,4.3693 5.5181,-3.4461 12.1294,2.6137 7.4606,6.8385 -4.3594,3.9452 -0.2869,11.3999 8.655,15.8412 2.7497,1.3658 4.0997,2.6807 4.3163,4.203 0.1725,1.2186 1.1221,3.6535 2.1093,5.4111 0.9863,1.7575 1.7944,3.961 1.7944,4.8966 0,0.9358 0.8438,2.4648 1.875,3.3981 1.0313,0.9333 1.875,1.9914 1.875,2.3514 0,1.1602 -9.7378,-0.2036 -13.125,-1.8381 -6.6216,-3.1958 -11.0709,-4.1769 -13.6387,-3.0073 -1.3125,0.5983 -3.5269,1.0938 -4.921,1.1014 -11.2462,0.06 -18.0169,7.9374 -18.9253,22.0176 l -0.48368,7.5 -15,0.2329 c -8.6747,0.1346 -15.5925,-0.1558 -16.4063,-0.6888 z"
       style="fill:#a4a4a4" />
    <path
       id="path5808"
       d="m 530.63339,300.84522 c -0.3947,-0.3947 -3.1217,-1.0258 -6.06,-1.4025 -8.528,-1.0932 -11.8073,-1.8648 -13.3112,-3.1323 -2.2885,-1.9287 -11.0509,-6.0853 -12.8595,-6.1001 -1.9987,-0.016 -8.8187,-2.3257 -12.5192,-4.2393 -1.4592,-0.7546 -4.794,-1.372 -7.4105,-1.372 -4.3291,0 -4.8447,-0.2321 -5.729,-2.5782 -1.3082,-3.4704 -6.1781,-8.4379 -10.4115,-10.6202 -5.245,-2.7035 -9.2733,-5.6281 -13.4585,-9.7704 -3.6357,-3.5986 -4.4764,-5.4705 -7.0523,-15.7031 -2.078,-8.2547 -2.2959,-8.6643 -5.1115,-9.6094 -1.5362,-0.5156 -3.8358,-1.6758 -5.1104,-2.5781 -1.2745,-0.9024 -3.0018,-1.6406 -3.8384,-1.6406 -3.5466,0 -7.3968,-7.5935 -7.4225,-14.6392 -0.01,-2.4211 -0.7125,-4.7458 -1.8892,-6.2417 -1.4127,-1.796 -1.875,-3.8032 -1.875,-8.1417 0,-3.4405 -0.6027,-6.9235 -1.4975,-8.6539 -0.914,-1.7676 -1.2838,-3.9641 -0.9489,-5.6382 0.3597,-1.799 -0.093,-3.9992 -1.315,-6.3953 -1.025,-2.0091 -1.8636,-4.9562 -1.8636,-6.5492 0,-1.593 -0.6666,-4.1855 -1.4813,-5.7611 -0.8147,-1.5754 -2.1858,-5.057 -3.0469,-7.7367 -3.7873,-11.7865 -13.0622,-17.1683 -31.1679,-18.0855 -7.9515,-0.4027 -8.0827,-0.373 -11.9459,2.702 -2.1483,1.7101 -5.2129,4.122 -6.8103,5.3599 -1.5973,1.2377 -3.3852,3.3471 -3.9732,4.6875 -0.588,1.3402 -2.9757,4.3798 -5.3061,6.7545 -7.0943,7.2292 -14.0022,15.2039 -15.9532,18.4167 -2.1727,3.5781 -4.5674,3.8869 -8.3659,1.0786 -2.2658,-1.6752 -3.4816,-1.8817 -8.1651,-1.3867 -6.7006,0.7082 -8.9615,0.7345 -18.8716,0.2203 -6.3763,-0.3309 -8.1144,-0.1112 -9.8438,1.2442 -1.1551,0.9053 -3.4711,1.9456 -5.1469,2.3115 l -3.0469,0.6654 0,-22.5191 c 0,-14.0016 0.3546,-22.7383 0.9375,-23.0986 0.5362,-0.3314 0.9375,-5.1475 0.9375,-11.25 0,-6.1025 -0.4013,-10.9186 -0.9375,-11.25 -0.5639,-0.3486 -0.9375,-6.7668 -0.9375,-16.1077 0,-13.6664 0.1679,-15.3888 1.4002,-14.3661 2.2532,1.87 7.9748,-1.2406 7.9748,-4.3358 0,-3.1369 1.7365,-2.4702 3.8552,1.4804 0.9243,1.7234 2.7552,4.2552 4.0688,5.6264 1.3137,1.3711 2.3885,3.1564 2.3885,3.9675 0,2.3903 2.5249,3.8689 5.3853,3.1537 7.4661,-1.8667 8.4241,-1.7649 9.7606,1.037 0.9897,2.0749 2.0029,2.7282 4.5482,2.9327 1.801,0.1446 4.2287,0.7459 5.3949,1.3361 1.7257,0.8734 2.3363,0.7867 3.2812,-0.4658 1.1763,-1.559 3.2018,-1.4461 14.43,0.8041 1.9375,0.3884 4.8673,-0.086 8.5,-1.3756 3.6577,-1.2987 7.823,-1.9681 12.2452,-1.9681 7.5193,0 11.1398,-2.1934 15.7963,-9.5698 2.6599,-4.2136 4.8128,-4.5022 12.5333,-1.6802 6.9021,2.5228 7.5638,2.4324 12.8612,-1.7549 2.5256,-1.9964 5.461,-3.9056 6.523,-4.2426 1.0621,-0.3371 2.6848,-1.4459 3.6062,-2.4639 2.016,-2.2277 2.8942,-2.2712 8.3618,-0.415 3.9389,1.3374 4.4736,1.3138 7.767,-0.342 5.4223,-2.726 10.0545,-3.283 13.3081,-1.6005 3.1849,1.647 17.4065,2.0394 18.3539,0.5064 0.8315,-1.3454 2.3438,-1.1561 2.3438,0.2933 0,1.7142 4.4954,5.664 8.5427,7.5059 1.8626,0.8476 3.9182,2.1818 4.568,2.9647 0.6497,0.783 1.6239,1.4236 2.1646,1.4236 0.5409,0 1.7578,0.7007 2.7042,1.5573 0.9465,0.8566 2.6651,2.0281 3.819,2.6035 1.22,0.6082 2.2993,2.2076 2.5789,3.8218 0.3182,1.837 1.1125,2.8752 2.3486,3.0698 4.628,0.7289 9.5862,4.1367 10.8584,7.4632 0.6701,1.7522 1.5156,2.1094 4.9933,2.1094 2.3027,0 4.4474,0.4218 4.766,0.9375 0.3187,0.5156 1.3836,0.9375 2.3665,0.9375 0.9829,0 3.2285,1.2656 4.9903,2.8125 2.4009,2.108 4.1293,2.8125 6.9005,2.8125 3.5985,0 7.774,2.8336 7.774,5.2756 0,0.5148 1.2679,2.1508 2.8174,3.6353 l 2.8174,2.6992 -0.2393,85.3668 -0.2393,85.3668 -2.8461,0.2788 c -1.5654,0.1534 -3.1691,-0.044 -3.5639,-0.4388 z"
       style="fill:#a4a4a4" />
    <path
       id="path5794"
       d="m 51.887187,218.18202 c 0,-0.4379 0.8361,-1.5527 1.8579,-2.4775 1.0218,-0.9247 3.4139,-4.8924 5.3159,-8.8172 1.9018,-3.9246 4.1928,-7.9795 5.091,-9.0108 0.8984,-1.0312 1.7758,-2.919 1.9499,-4.1953 0.1741,-1.2761 1.2927,-2.805 2.4857,-3.3975 1.1931,-0.5924 3.3255,-2.185 4.7388,-3.539 1.4133,-1.3541 2.9883,-2.4619 3.5,-2.4619 1.7458,0 7.8733,-7.1047 7.8733,-9.129 0,-1.2791 -0.9445,-2.4691 -2.5781,-3.2483 -1.9637,-0.9364 -2.65,-2.01 -2.8794,-4.5043 -0.1656,-1.801 -0.693,-3.6754 -1.1718,-4.1653 -2.8553,-2.9207 0.251,-14.9192 4.2567,-16.4421 1.1643,-0.4427 2.3596,-1.4373 2.6562,-2.2102 0.2965,-0.773 1.5142,-1.5436 2.706,-1.7124 1.5567,-0.2207 2.2486,-1.0169 2.4578,-2.8285 0.225,-1.9486 0.8639,-2.5875 2.8125,-2.8125 1.8802,-0.2171 2.6011,-0.8871 2.8351,-2.6349 0.8678,-6.4821 3.6095,-3.8598 10.520903,10.0626 2.6194,5.2765 5.1816,9.8526 5.6937,10.1691 0.5121,0.3165 1.3281,1.6198 1.8135,2.8963 1.1322,2.978 4.0416,2.5632 4.4719,-0.6376 0.1725,-1.2838 0.6999,-2.7349 1.1719,-3.2248 0.4719,-0.4898 0.8581,-2.0719 0.8581,-3.5156 0,-3.2548 0.6197,-3.2803 3.8771,-0.1595 1.539,1.4745 3.1612,2.24 4.0357,1.9045 1.8905,-0.7255 1.8877,-4.7248 0,-6.2951 -0.9349,-0.7758 -1.267,-2.0119 -0.9161,-3.4099 0.4259,-1.6968 -0.3029,-3.0809 -3.221,-6.1179 -2.0742,-2.1587 -3.7405,-4.3671 -3.7029,-4.9078 0.1741,-2.4982 3.5394,-6.633 5.6273,-6.914 1.2502,-0.1681 2.9534,-1.1781 3.785,-2.2441 1.7307,-2.2188 3.3526,-1.6203 4.6163,1.7036 0.7797,2.0509 1.3878,2.2527 6.7859,2.2527 3.2613,0 6.3785,0.449 6.9271,0.9976 1.8415,1.8415 9.2212,0.6783 9.2212,-1.4535 0,-1.1387 -0.7286,-1.977 -1.875,-2.1578 -1.0313,-0.1624 -2.7188,-0.6826 -3.75,-1.156 -1.0313,-0.4732 -3.3481,-0.9788 -5.1486,-1.1235 -2.199,-0.1767 -3.3725,-0.7852 -3.5748,-1.8539 -0.2314,-1.2222 0.3097,-1.5481 2.3351,-1.4062 2.1261,0.1488 2.6974,-0.2458 2.9519,-2.039 0.1735,-1.2231 1.147,-3.7042 2.1633,-5.5137 1.0165,-1.8095 1.6264,-3.8675 1.3556,-4.5732 -0.761,-1.9831 -5.0262,-1.5573 -6.1903,0.6179 -1.4572,2.7228 -2.7985,1.3907 -2.7985,-2.7793 0,-3.9309 1.1306,-5.337 4.6875,-5.829 1.7596,-0.2433 2.4177,-0.9667 2.6404,-2.9023 0.4063,-3.531 2.9479,-3.0656 8.3275,1.5249 2.8899,2.4659 4.9696,1.3728 4.9696,-2.612 0,-1.7904 -0.4219,-3.5161 -0.9375,-3.8347 -1.6509,-1.0204 -1.0045,-3.045 1.1523,-3.6091 1.3239,-0.3463 2.3717,-0.042 2.8591,0.8281 0.8852,1.5818 4.9575,1.8527 5.8615,0.39 0.6967,-1.1272 -2.0588,-7.4528 -3.2465,-7.4528 -0.4321,0 -1.4858,-1.0684 -2.3414,-2.3742 -2.1831,-3.332 2.1396,-7.9383 7.4494,-7.9383 2.682,0 3.5521,-0.4245 3.9444,-1.9242 0.7062,-2.7007 4.375,-2.0799 4.7846,0.8096 0.6303,4.4469 8.5991,1.1466 8.5991,-3.5614 0,-3.0994 2.3217,-6.559299 4.4065,-6.566699 1.1346,0 2.4711,-0.7368 2.97,-1.6284 0.8599,-1.5365 1.0008,-1.5365 2.6986,0 4.0815,3.693799 10.1786,-0.4493 10.7211,-7.2851 0.3784,-4.768 4.1317,-5.478 6.1955,-1.1719 1.2446,2.5969 3.3419,3.3763 4.4146,1.6406 1.0941,-1.7704 3.2169,-0.9321 6.7621,2.6703 1.9527,1.9842 4.2568,3.8572 5.1201,4.1621 0.8635,0.3049 2.303,2.1619 3.1991,4.126599 1.8455,4.0463 5.8315,8.7285 7.4307,8.7285 2.4773,0 5.6037,4.674 4.4074,6.5895 -0.626,1.0024 -1.1382,2.5877 -1.1382,3.5228 0,0.9351 -0.4816,2.1818 -1.0702,2.7705 -2.2989,2.2988 4.9549,12.3606 8.0537,11.1715 1.6435,-0.6307 2.0532,-6.6984 0.5165,-7.648 -1.8039,-1.1149 -0.915,-2.2265 1.6406,-2.0516 2.3435,0.1605 2.6208,-0.1648 3.0469,-3.5734 0.4983,-3.9865 3.5877,-4.8271 8.9063,-2.4237 1.0312,0.4661 2.6132,1.0833 3.5156,1.3717 1.497,0.4785 1.6406,2.3327 1.6406,21.1788 0,21.1559 -0.1157,21.769 -3.6866,19.539 -2.7356,-1.7085 -7.5634,3.79 -7.5634,8.6142 0,0.872 -0.8437,2.3492 -1.875,3.2825 -2.5629,2.3194 -2.4413,5.9235 0.2344,6.9468 2.8805,1.1016 5.1552,3.8312 5.5395,6.6469 0.3641,2.6678 3.7513,3.6954 6.0078,1.8229 1.1928,-0.99 1.3347,3.4246 1.1202,34.8499 l -0.2456,35.9835 -111.3282,0.2382 c -61.2304,0.1309 -111.328103,-0.12 -111.328103,-0.5578 z"
       style="fill:#a4a4a4" />
    <path
       id="path5786"
       d="m 686.49219,189.92282 c -14.4881,-16.5104 -18.3412,-20.91 -23.8237,-27.2025 -3.3694,-3.8672 -9.1782,-10.5038 -12.9066,-14.7482 -3.7294,-4.2442 -8.3625,-9.5638 -10.2966,-11.8212 -3.434,-4.0092 -4.4597,-7.4241 -2.5781,-8.5868 0.5156,-0.3187 0.9375,-1.8074 0.9375,-3.3081 0,-1.5008 0.7687,-4.1126 1.7091,-5.8041 1.2768,-2.2976 1.754,-5.3677 1.8853,-12.1395 0.1556,-8.0637 0.4847,-9.6523 2.9784,-14.3921 2.865,-5.4478 3.8963,-13.7259 1.8647,-14.9812 -0.5156,-0.3187 -0.9375,-2.0062 -0.9375,-3.75 0,-1.7439 -0.4219,-3.4314 -0.9375,-3.75 -0.5156,-0.3187 -0.9375,-1.5843 -0.9375,-2.8125 0,-1.2283 0.4219,-2.4939 0.9375,-2.8125 1.8562,-1.1471 1.1194,-12.201399 -0.9375,-14.062499 -1.9781,-1.7907 -2.5209,-5.5842 -0.9375,-6.5625 0.5156,-0.3187 0.9375,-1.3555 0.9375,-2.304 0,-0.9484 1.2881,-4.173 2.8622,-7.1656 l 2.8622,-5.4413 -2.0306,-3.9476 c -2.206,-4.2898 -1.9041,-5.6429 1.5534,-6.9574 1.2394,-0.4711 2.2528,-1.4506 2.2528,-2.1766 0,-0.7261 0.8438,-1.5408 1.875,-1.8104 1.0313,-0.2697 1.875,-1.0972 1.875,-1.8391 0,-0.7417 -0.8437,-2.1123001 -1.875,-3.0455001 -1.0312,-0.9333 -1.875,-2.2434 -1.875,-2.9113 0,-0.6678 -0.6919,-1.6013 -1.5366,-2.0744 -1.424,-0.7969 -1.424,-1.086 0,-3.94060003 0.8447,-1.69429997 1.5366,-3.65659997 1.5366,-4.36069997 0,-0.8665 0.6947,-1.1056 2.1506,-0.7403 3.1144,0.7817 6.1828,-2.7041 4.605,-5.2311999 -1.3734,-2.1984 -1.4709,-5.2644 -0.1931,-6.054 0.5156,-0.3187 0.9375,-2.0062 0.9375,-3.75 0,-1.7439 0.4219,-3.4314 0.9375,-3.75 0.5156,-0.3187 0.9375,-1.5249 0.9375,-2.6804 0,-1.1555 0.3966,-2.5017 0.8813,-2.9915 0.4846,-0.4899 1.0125,-3 1.1718,-5.5781 0.2522,-4.0646 0.54,-4.6551 2.1657,-4.4436 1.6846,0.2192 9.4284,0.8973 12.4218,1.0878 0.7444,0.047 1.1719,1.5455 1.1719,4.1058 0,2.2171 0.405,4.4359 0.8991,4.9305 0.495,0.4947 1.0218,4.9033 1.1718,9.7969 l 0.2729,8.8976 3.9843,0.2882 c 4.5366,0.3283 4.4878,0.2427 2.5088,4.4139999 -2.2435,4.7275 -1.4907,8.3061 1.8693,8.8871 3.4819,0.602 6.0085,4.7647 6.1004,10.0495001 0.047,2.9475 0.5447,4.2064 1.9434,4.9549 1.5975,0.8547 1.875,1.9629 1.875,7.4777 0,3.5608 0.4219,6.7349 0.9375,7.0536 1.3294,0.8213 1.1663,8.3027 -0.2109,9.6796 -0.9066,0.9062 -0.9066,1.5362 0,2.9873 0.6318,1.0114 1.1484,2.6735 1.1484,3.6936 0,1.0201 0.8438,2.3063 1.875,2.8582 1.3838,0.7405 1.875,1.9629 1.875,4.6652 0,2.0139 0.4219,3.9224 0.9375,4.241099 0.5156,0.3186 0.9375,1.5782 0.9375,2.7991 0,4.9437 7.7475,6.5021 11.7188,2.3571 1.4821,-1.5469 3.645,-2.8125 4.8075,-2.8125 1.1625,0 2.3737,-0.4219 2.6925,-0.9375 1.1746,-1.901399 2.8612,-0.8017 4.6875,3.0573 1.3668,2.8874 2.9774,4.5089 5.9399,5.9789 2.235,1.1093 5.1882,3.0569 6.5625,4.328 1.3735,1.271 3.8682,2.8949 5.5444,3.6085 3.2194,1.3708 4.0547,4.1445 1.8985,6.3007 -0.9066,0.9062 -0.9066,1.5362 0,2.9873 0.6318,1.0114 1.1484,4.3509 1.1484,7.4212 0,3.0704 0.4219,5.8432 0.9375,6.1619 0.5156,0.3186 0.9375,2.2291 0.9375,4.2455 0,2.0164 0.8438,5.1684 1.875,7.0045 1.9987,3.559 2.4853,8.4186 0.9375,9.375 -2.3972,1.4815 0.038,7.7542 4.7456,12.2118 1.6191,1.5335 3.3122,3.7374 3.7631,4.8975 0.4876,1.2541 1.6154,2.1094 2.7816,2.1094 1.4841,0 1.8263,0.4234 1.4081,1.7408 -0.3253,1.0265 0.6104,3.95 2.281,7.1264 1.5581,2.9621 2.8331,6.1022 2.8331,6.978 0,0.8758 0.4434,2.0359 0.9863,2.5782 0.5465,0.5473 0.8596,3.6107 0.7031,6.8869 -0.3403,7.1041 -1.7456,8.5366 -6.6366,6.768 -13.8703,-5.0158 -41.3344,6.1425 -43.7072,17.7579 l -0.6393,3.1326 -16.92,0.2549 -16.92,0.255 -4.1363,-4.7137 z"
       style="fill:#a4a4a4" />
    <path
       id="path5758"
       d="m 338.06549,98.79452 c -1.8435,-1.8435 -2.2914,-1.922 -4.4304,-0.7773 -2.1345,1.1424 -2.6029,1.0639 -4.5461,-0.7617 -2.6954,-2.5322 -4.0906,-2.5782 -4.858,-0.1602 -0.995,3.1347 -7.5014,2.6325 -9.1091,-0.7031 -1.297,-2.6911 -8.0475,-3.6597 -12.1721,-1.7466 -1.8567,0.8613 -4.5001,-4.343 -4.5001,-8.8595 0,-1.4535 -0.4219,-2.9034 -0.9375,-3.222 -2.1775,-1.3458 -0.8807,-3.2813 2.1984,-3.2813 3.6231,0 6.7923,-2.8311 5.8674,-5.2414 -0.4766,-1.2421 -1.4581,-1.4643 -4.8012,-1.0876 -4.2807,0.4826 -5.0345,0.037 -3.1401,-1.858 1.4669,-1.4669 0.3105,-4.0005 -1.8261,-4.0005 -8.4658,0 -9.0447,-4.1744 -1.5796,-11.391799 5.9278,-5.7313 6.0937,-6.0215 6.0937,-10.6562 0,-5.5115 1.1075,-7.0145 5.1683,-7.0145 6.3549,0 10.2225,-8.2486 5.9834,-12.7608 -2.1402,-2.2782 -1.7182,-4.1142 0.9458,-4.1142 2.3558,0 4.7775,-2.9795 4.7775,-5.8778 0,-2.8282 1.5652,-4.1819 3.0817,-2.6655 1.538,1.538 5.3284,1.268 5.9785,-0.4259 0.31,-0.8082 0.086,-1.9472 -0.4982,-2.5313001 -3.4115,-3.4115 -0.6826,-5.3225 2.8151,-1.9715 3.5345,3.3863001 5.9337,2.4587001 5.208,-2.0133 -0.4592,-2.8301 -0.2763,-3.2647 1.3741,-3.2647 1.1154,0 2.1069,-0.7765 2.3942,-1.87500003 0.5314,-2.03209997 6.1783,-2.75699997 7.3028,-0.9375 0.3359,0.5433 5.46,0.9375 12.1875,0.9375 6.7275,0 11.8517,-0.3942 12.1875,-0.9375 0.3187,-0.5156 1.8985,-0.93749997 3.5106,-0.93749997 1.7177,0 3.8279,-0.8425 5.0975,-2.0352 1.9389,-1.8216 2.4149,-1.9023 4.5325,-0.769 3.1597,1.691 5.2419,-0.01 3.4766,-2.8315 -1.9666,-3.1488999 -1.4942,-13.8006999 0.6631,-14.9553999 0.9963,-0.5331 2.0795,-1.8136 2.407,-2.8454 0.9306,-2.9323 3.04,-2.2119 4.8009,1.6396 2.2517,4.9247 4.0529,6.7969 6.5393,6.7969 1.1788,0 2.4039,0.4219 2.7225,0.9375 0.3187,0.5156 1.5843,0.9375 2.8125,0.9375 1.2283,0 2.4939,0.4219 2.8125,0.9375 0.8783,1.421 4.7742,1.1213 6.0938,-0.4687 1.6448,-1.9819 2.6334,-1.7489 2.9816,0.7031 0.2388,1.6812 0.993,2.1672 3.7158,2.3944 1.8955,0.1581 4.1512,1.0970999 5.0672,2.1092999 0.9976,1.1024 2.8701,1.8244 4.7316,1.8244 1.6944,0 3.3414,0.4219 3.66,0.9375 0.3187,0.5156 1.5843,0.9375 2.8125,0.9375 1.2283,0 2.4939,-0.4219 2.8125,-0.9375 0.9784,-1.5831 4.7719,-1.0411 6.5625,0.9375 0.9333,1.0313 2.199,1.875 2.8125,1.875 0.6136,0 1.8793,0.8438 2.8125,1.875 2.4729,2.7325 5.6774,2.3624 8.117,-0.9375 2.956,-3.9981 8.9486,-4.1475 9.3989,-0.2344 0.2744,2.38509997 0.6114,2.57819997 4.5006,2.57819997 3.9377,0 4.2349,0.1782 4.692,2.81250003 0.5438,3.1337 7.0973,4.6316 9.9407,2.2718 3.1107,-2.5817 4.6311,-7.5571 2.7333,-8.9448 -1.6762,-1.2257 -1.6769,-1.3262 -0.021,-3.1559 2.1377,-2.3621 4.2323,-2.4408 4.2323,-0.1589 0,4.7615 2.8638,7.87549997 6.6814,7.26499997 4.3017,-0.6879 5.2575,1.68200003 1.2873,3.19150003 -1.289,0.4901 -2.3437,1.469 -2.3437,2.1753 0,0.7062 -0.8438,2.0477 -1.875,2.981 -1.0313,0.9332 -1.875,2.2150001 -1.875,2.8485001 0,0.6333 -0.9053,1.3883 -2.0118,1.6776 -1.8102,0.4733 -1.9577,0.9825 -1.4721,5.0825 0.5621,4.7453 -0.4233,8.3086 -1.5125,5.4699 -0.7781,-2.0275 -2.8071,-1.8642 -4.8474,0.3902 -0.988,1.0918 -2.8875,1.875 -4.5471,1.875 -6.6796,0 -11.7611,13.6146 -6.6612,17.8471 2.5032,2.0774 -0.2005,10.7109 -4.6686,14.9085 -1.3224,1.2423 -2.4043,2.752599 -2.4043,3.356199 0,0.6037 -0.8438,1.8612 -1.875,2.7945 -1.0313,0.9332 -1.8755,2.3697 -1.8761,3.1921 0,4.2609 -14.3876,10.8536 -16.4391,7.5343 -0.3467,-0.5609 -1.7676,-0.739 -3.2681,-0.4094 -1.6328,0.3586 -3.7461,0.019 -5.4893,-0.8826 -4.1661,-2.1544 -8.3065,-1.8393 -11.5359,0.8781 -3.2442,2.7298 -4.7983,2.8623 -10.5727,0.9019 -4.5789,-1.5545 -6.2165,-1.1524 -9.334,2.2925 -0.9765,1.079 -2.3726,1.9618 -3.1026,1.9618 -0.7299,0 -3.3649,1.7183 -5.8558,3.8186 l -4.5287,3.8187 -4.478,-1.5204 c -2.463,-0.8361 -5.5797,-2.1711 -6.926,-2.9663 -2.5169,-1.4868 -9.4062,1.1094 -9.4062,3.5447 0,0.4868 -1.9562,2.9763 -4.347,5.5323 l -4.3471,4.6474 -6.6819,0 c -4.3468,0 -8.4743,0.6552 -11.8115,1.875 -6.4732,2.3661 -7.5486,2.3472 -10.0717,-0.1758 z"
       style="fill:#a4a4a4" />
  </g>
</svg>
